%TF.GenerationSoftware,KiCad,Pcbnew,9.0.7*%
%TF.CreationDate,2026-04-27T22:36:44+02:00*%
%TF.ProjectId,chessconnect_matrice,63686573-7363-46f6-9e6e-6563745f6d61,rev?*%
%TF.SameCoordinates,Original*%
%TF.FileFunction,Soldermask,Top*%
%TF.FilePolarity,Negative*%
%FSLAX46Y46*%
G04 Gerber Fmt 4.6, Leading zero omitted, Abs format (unit mm)*
G04 Created by KiCad (PCBNEW 9.0.7) date 2026-04-27 22:36:44*
%MOMM*%
%LPD*%
G01*
G04 APERTURE LIST*
G04 Aperture macros list*
%AMRoundRect*
0 Rectangle with rounded corners*
0 $1 Rounding radius*
0 $2 $3 $4 $5 $6 $7 $8 $9 X,Y pos of 4 corners*
0 Add a 4 corners polygon primitive as box body*
4,1,4,$2,$3,$4,$5,$6,$7,$8,$9,$2,$3,0*
0 Add four circle primitives for the rounded corners*
1,1,$1+$1,$2,$3*
1,1,$1+$1,$4,$5*
1,1,$1+$1,$6,$7*
1,1,$1+$1,$8,$9*
0 Add four rect primitives between the rounded corners*
20,1,$1+$1,$2,$3,$4,$5,0*
20,1,$1+$1,$4,$5,$6,$7,0*
20,1,$1+$1,$6,$7,$8,$9,0*
20,1,$1+$1,$8,$9,$2,$3,0*%
G04 Aperture macros list end*
%ADD10RoundRect,0.155000X-0.212500X-0.155000X0.212500X-0.155000X0.212500X0.155000X-0.212500X0.155000X0*%
%ADD11RoundRect,0.090000X0.660000X0.360000X-0.660000X0.360000X-0.660000X-0.360000X0.660000X-0.360000X0*%
%ADD12R,1.700000X1.700000*%
%ADD13C,6.400000*%
%ADD14R,4.000000X4.000000*%
%ADD15C,1.700000*%
G04 APERTURE END LIST*
D10*
%TO.C,C12*%
X171115000Y-117750000D03*
X172250000Y-117750000D03*
%TD*%
D11*
%TO.C,D3*%
X105250000Y-85750000D03*
X105250000Y-82450000D03*
X100350000Y-82450000D03*
X100350000Y-85750000D03*
%TD*%
D12*
%TO.C,*%
X70000000Y-65200000D03*
%TD*%
D13*
%TO.C,H8*%
X272800000Y-126100000D03*
%TD*%
D11*
%TO.C,D2*%
X73250000Y-85750000D03*
X73250000Y-82450000D03*
X68350000Y-82450000D03*
X68350000Y-85750000D03*
%TD*%
%TO.C,D15*%
X73250000Y-117750000D03*
X73250000Y-114450000D03*
X68350000Y-114450000D03*
X68350000Y-117750000D03*
%TD*%
%TO.C,D13*%
X137250000Y-117750000D03*
X137250000Y-114450000D03*
X132350000Y-114450000D03*
X132350000Y-117750000D03*
%TD*%
D10*
%TO.C,C9*%
X267182500Y-117750000D03*
X268317500Y-117750000D03*
%TD*%
%TO.C,C6*%
X203115000Y-85750000D03*
X204250000Y-85750000D03*
%TD*%
%TO.C,C2*%
X75115000Y-85750000D03*
X76250000Y-85750000D03*
%TD*%
D13*
%TO.C,H4*%
X110100000Y-126200000D03*
%TD*%
D11*
%TO.C,D7*%
X233250000Y-85750000D03*
X233250000Y-82450000D03*
X228350000Y-82450000D03*
X228350000Y-85750000D03*
%TD*%
D14*
%TO.C,T16*%
X252000000Y-105150000D03*
%TD*%
%TO.C,T7*%
X241600000Y-95000000D03*
%TD*%
D15*
%TO.C,*%
X70000000Y-62660000D03*
%TD*%
D10*
%TO.C,C3*%
X107115000Y-85750000D03*
X108250000Y-85750000D03*
%TD*%
D11*
%TO.C,D5*%
X169250000Y-85750000D03*
X169250000Y-82450000D03*
X164350000Y-82450000D03*
X164350000Y-85750000D03*
%TD*%
D15*
%TO.C,*%
X78200000Y-62660000D03*
%TD*%
D14*
%TO.C,T9*%
X49600000Y-105150000D03*
%TD*%
D10*
%TO.C,C10*%
X235115000Y-117750000D03*
X236250000Y-117750000D03*
%TD*%
D11*
%TO.C,D1*%
X41250000Y-85750000D03*
X41250000Y-82450000D03*
X36350000Y-82450000D03*
X36350000Y-85750000D03*
%TD*%
%TO.C,D4*%
X137250000Y-85750000D03*
X137250000Y-82450000D03*
X132350000Y-82450000D03*
X132350000Y-85750000D03*
%TD*%
%TO.C,D14*%
X105250000Y-117750000D03*
X105250000Y-114450000D03*
X100350000Y-114450000D03*
X100350000Y-117750000D03*
%TD*%
%TO.C,D16*%
X41250000Y-117750000D03*
X41250000Y-114450000D03*
X36350000Y-114450000D03*
X36350000Y-117750000D03*
%TD*%
D14*
%TO.C,T14*%
X188000000Y-105250000D03*
%TD*%
%TO.C,T15*%
X241600000Y-105250000D03*
%TD*%
%TO.C,T3*%
X113700000Y-95000000D03*
%TD*%
D10*
%TO.C,C8*%
X267115000Y-85750000D03*
X268250000Y-85750000D03*
%TD*%
D11*
%TO.C,D10*%
X233250000Y-117750000D03*
X233250000Y-114450000D03*
X228350000Y-114450000D03*
X228350000Y-117750000D03*
%TD*%
D13*
%TO.C,H5*%
X191400000Y-74300000D03*
%TD*%
D14*
%TO.C,T1*%
X49600000Y-95000000D03*
%TD*%
D13*
%TO.C,H2*%
X28800000Y-74300000D03*
%TD*%
D10*
%TO.C,C16*%
X43115000Y-117750000D03*
X44250000Y-117750000D03*
%TD*%
D11*
%TO.C,D9*%
X265250000Y-117750000D03*
X265250000Y-114450000D03*
X260350000Y-114450000D03*
X260350000Y-117750000D03*
%TD*%
%TO.C,D11*%
X201250000Y-117750000D03*
X201250000Y-114450000D03*
X196350000Y-114450000D03*
X196350000Y-117750000D03*
%TD*%
D10*
%TO.C,C1*%
X43182500Y-85750000D03*
X44317500Y-85750000D03*
%TD*%
%TO.C,C14*%
X107115000Y-117750000D03*
X108250000Y-117750000D03*
%TD*%
%TO.C,C11*%
X203115000Y-117800000D03*
X204250000Y-117800000D03*
%TD*%
D14*
%TO.C,T2*%
X60000000Y-95000000D03*
%TD*%
D10*
%TO.C,C5*%
X171115000Y-85750000D03*
X172250000Y-85750000D03*
%TD*%
D14*
%TO.C,T11*%
X113600000Y-105250000D03*
%TD*%
D13*
%TO.C,H7*%
X272800000Y-74300000D03*
%TD*%
%TO.C,H6*%
X191400000Y-126300000D03*
%TD*%
D14*
%TO.C,T12*%
X124000000Y-105250000D03*
%TD*%
%TO.C,T5*%
X177600000Y-95000000D03*
%TD*%
%TO.C,T8*%
X252000000Y-95000000D03*
%TD*%
D13*
%TO.C,H3*%
X110100000Y-74300000D03*
%TD*%
D10*
%TO.C,C13*%
X139115000Y-117750000D03*
X140250000Y-117750000D03*
%TD*%
D14*
%TO.C,T6*%
X188000000Y-95000000D03*
%TD*%
D10*
%TO.C,C4*%
X139115000Y-85750000D03*
X140250000Y-85750000D03*
%TD*%
D14*
%TO.C,T4*%
X124000000Y-95000000D03*
%TD*%
D11*
%TO.C,D8*%
X265250000Y-85750000D03*
X265250000Y-82450000D03*
X260350000Y-82450000D03*
X260350000Y-85750000D03*
%TD*%
D13*
%TO.C,H1*%
X28800000Y-126100000D03*
%TD*%
D14*
%TO.C,T10*%
X60000000Y-105250000D03*
%TD*%
%TO.C,T13*%
X177750000Y-105250000D03*
%TD*%
D11*
%TO.C,D12*%
X169250000Y-117750000D03*
X169250000Y-114450000D03*
X164350000Y-114450000D03*
X164350000Y-117750000D03*
%TD*%
D10*
%TO.C,C15*%
X75115000Y-117750000D03*
X76250000Y-117750000D03*
%TD*%
D11*
%TO.C,D6*%
X201250000Y-85750000D03*
X201250000Y-82450000D03*
X196350000Y-82450000D03*
X196350000Y-85750000D03*
%TD*%
D10*
%TO.C,C7*%
X235182500Y-85750000D03*
X236317500Y-85750000D03*
%TD*%
D12*
%TO.C,*%
X78200000Y-65200000D03*
%TD*%
%TO.C,J2*%
X39600000Y-128200000D03*
D15*
X42140000Y-128200000D03*
%TD*%
D12*
%TO.C,J3*%
X39600000Y-72400000D03*
D15*
X42140000Y-72400000D03*
%TD*%
M02*
