%TF.GenerationSoftware,KiCad,Pcbnew,9.0.7*%
%TF.CreationDate,2026-04-27T22:36:44+02:00*%
%TF.ProjectId,chessconnect_matrice,63686573-7363-46f6-9e6e-6563745f6d61,rev?*%
%TF.SameCoordinates,Original*%
%TF.FileFunction,Copper,L2,Bot*%
%TF.FilePolarity,Positive*%
%FSLAX46Y46*%
G04 Gerber Fmt 4.6, Leading zero omitted, Abs format (unit mm)*
G04 Created by KiCad (PCBNEW 9.0.7) date 2026-04-27 22:36:44*
%MOMM*%
%LPD*%
G01*
G04 APERTURE LIST*
%TA.AperFunction,ComponentPad*%
%ADD10R,1.700000X1.700000*%
%TD*%
%TA.AperFunction,ComponentPad*%
%ADD11C,6.400000*%
%TD*%
%TA.AperFunction,ComponentPad*%
%ADD12C,1.700000*%
%TD*%
%TA.AperFunction,SMDPad,CuDef*%
%ADD13R,1.500000X0.500000*%
%TD*%
%TA.AperFunction,SMDPad,CuDef*%
%ADD14R,1.700000X2.000000*%
%TD*%
%TA.AperFunction,ViaPad*%
%ADD15C,0.600000*%
%TD*%
%TA.AperFunction,Conductor*%
%ADD16C,0.800000*%
%TD*%
%TA.AperFunction,Conductor*%
%ADD17C,0.200000*%
%TD*%
G04 APERTURE END LIST*
D10*
%TO.P,,1,Pin_1*%
%TO.N,/DOUT2*%
X70000000Y-65200000D03*
%TD*%
D11*
%TO.P,H8,1,1*%
%TO.N,GND*%
X272800000Y-126100000D03*
%TD*%
%TO.P,H4,1,1*%
%TO.N,GND*%
X110100000Y-126200000D03*
%TD*%
D12*
%TO.P,,2,Pin_2*%
%TO.N,VCC*%
X70000000Y-62660000D03*
%TD*%
%TO.P,,2,Pin_2*%
%TO.N,VCC*%
X78200000Y-62660000D03*
%TD*%
D11*
%TO.P,H5,1,1*%
%TO.N,GND*%
X191400000Y-74300000D03*
%TD*%
%TO.P,H2,1,1*%
%TO.N,GND*%
X28800000Y-74300000D03*
%TD*%
%TO.P,H7,1,1*%
%TO.N,GND*%
X272800000Y-74300000D03*
%TD*%
%TO.P,H6,1,1*%
%TO.N,GND*%
X191400000Y-126300000D03*
%TD*%
%TO.P,H3,1,1*%
%TO.N,GND*%
X110100000Y-74300000D03*
%TD*%
%TO.P,H1,1,1*%
%TO.N,GND*%
X28800000Y-126100000D03*
%TD*%
D10*
%TO.P,,1,Pin_1*%
%TO.N,/DOUT2*%
X78200000Y-65200000D03*
%TD*%
%TO.P,J2,1,Pin_1*%
%TO.N,/DOUT2*%
X39600000Y-128200000D03*
D12*
%TO.P,J2,2,Pin_2*%
%TO.N,VCC*%
X42140000Y-128200000D03*
%TD*%
D10*
%TO.P,J3,1,Pin_1*%
%TO.N,/DataLEDs*%
X39600000Y-72400000D03*
D12*
%TO.P,J3,2,Pin_2*%
%TO.N,VCC*%
X42140000Y-72400000D03*
%TD*%
D13*
%TO.P,J5,1,Pin_1*%
%TO.N,Net-(J5-Pin_1)*%
X269700000Y-91500000D03*
%TO.P,J5,2,Pin_2*%
%TO.N,Net-(J5-Pin_2)*%
X269700000Y-92500000D03*
%TO.P,J5,3,Pin_3*%
%TO.N,Net-(J5-Pin_3)*%
X269700000Y-93500000D03*
%TO.P,J5,4,Pin_4*%
%TO.N,Net-(J5-Pin_4)*%
X269700000Y-94500000D03*
%TO.P,J5,5,Pin_5*%
%TO.N,Net-(J5-Pin_5)*%
X269700000Y-95500000D03*
%TO.P,J5,6,Pin_6*%
%TO.N,Net-(J5-Pin_6)*%
X269700000Y-96500000D03*
%TO.P,J5,7,Pin_7*%
%TO.N,Net-(J5-Pin_7)*%
X269700000Y-97500000D03*
%TO.P,J5,8,Pin_8*%
%TO.N,Net-(J5-Pin_8)*%
X269700000Y-98500000D03*
%TO.P,J5,9,Pin_9*%
%TO.N,Net-(J5-Pin_9)*%
X269700000Y-99500000D03*
%TO.P,J5,10,Pin_10*%
%TO.N,Net-(J5-Pin_10)*%
X269700000Y-100500000D03*
%TO.P,J5,11,Pin_11*%
%TO.N,Net-(J5-Pin_11)*%
X269700000Y-101500000D03*
%TO.P,J5,12,Pin_12*%
%TO.N,Net-(J5-Pin_12)*%
X269700000Y-102500000D03*
%TO.P,J5,13,Pin_13*%
%TO.N,Net-(J5-Pin_13)*%
X269700000Y-103500000D03*
%TO.P,J5,14,Pin_14*%
%TO.N,Net-(J5-Pin_14)*%
X269700000Y-104500000D03*
%TO.P,J5,15,Pin_15*%
%TO.N,Net-(J5-Pin_15)*%
X269700000Y-105500000D03*
%TO.P,J5,16,Pin_16*%
%TO.N,Net-(J5-Pin_16)*%
X269700000Y-106500000D03*
%TO.P,J5,17,Pin_17*%
%TO.N,unconnected-(J5-Pin_17-Pad17)*%
X269700000Y-107500000D03*
%TO.P,J5,18,Pin_18*%
%TO.N,GND*%
X269700000Y-108500000D03*
D14*
%TO.P,J5,19*%
%TO.N,N/C*%
X272140000Y-110700000D03*
%TO.P,J5,20*%
X272300000Y-89300000D03*
%TD*%
D15*
%TO.N,GND*%
X233000000Y-72700000D03*
X99800000Y-105700000D03*
X49300000Y-99700000D03*
X45200000Y-125200000D03*
X126900000Y-127000000D03*
X259000000Y-73300000D03*
X127000000Y-91200000D03*
X256800000Y-127500000D03*
X154400000Y-116700000D03*
X120900000Y-116900000D03*
X215700000Y-84700000D03*
X37900000Y-78200000D03*
X247400000Y-110000000D03*
X115400000Y-86100000D03*
X216800000Y-96500000D03*
X160400000Y-73500000D03*
X28100000Y-114400000D03*
X178000000Y-84600000D03*
X163200000Y-106800000D03*
X37800000Y-122500000D03*
X276250000Y-96250000D03*
X222500000Y-126300000D03*
X134000000Y-73800000D03*
X93100000Y-74300000D03*
X129300000Y-87500000D03*
X186100000Y-116700000D03*
X33400000Y-102800000D03*
X185100000Y-87100000D03*
X276000000Y-117900000D03*
X98500000Y-126700000D03*
X273100000Y-83000000D03*
X208300000Y-108800000D03*
X249100000Y-87200000D03*
X72900000Y-105600000D03*
X76300000Y-125000000D03*
X90200000Y-116800000D03*
X28600000Y-83000000D03*
X248700000Y-117200000D03*
X162600000Y-125500000D03*
X149600000Y-84600000D03*
X202100000Y-72500000D03*
X148000000Y-94400000D03*
X89700000Y-93400000D03*
X155500000Y-87500000D03*
X208900000Y-87300000D03*
X243100000Y-84700000D03*
X57200000Y-116700000D03*
X185900000Y-109700000D03*
X202400000Y-126000000D03*
X217900000Y-117100000D03*
X144200000Y-107500000D03*
%TO.N,VCC*%
X42140000Y-90200000D03*
X42200000Y-77600000D03*
%TO.N,Net-(J5-Pin_12)*%
X128000000Y-105250000D03*
%TO.N,Net-(J5-Pin_4)*%
X127500000Y-95000000D03*
%TO.N,Net-(J5-Pin_14)*%
X192250000Y-105250000D03*
%TO.N,Net-(J5-Pin_6)*%
X192600000Y-95000000D03*
%TO.N,Net-(J5-Pin_7)*%
X244900000Y-96200000D03*
%TO.N,Net-(J5-Pin_15)*%
X245750000Y-105750000D03*
%TO.N,Net-(J5-Pin_2)*%
X64000000Y-95000000D03*
%TO.N,Net-(J5-Pin_1)*%
X53000000Y-95000000D03*
%TO.N,Net-(J5-Pin_8)*%
X262250000Y-98500000D03*
%TO.N,Net-(J5-Pin_11)*%
X116750000Y-105250000D03*
%TO.N,Net-(J5-Pin_16)*%
X257750000Y-106500000D03*
%TO.N,Net-(J5-Pin_10)*%
X63350000Y-105200000D03*
%TO.N,Net-(J5-Pin_5)*%
X180600000Y-95000000D03*
%TO.N,Net-(J5-Pin_13)*%
X181000000Y-105250000D03*
%TO.N,Net-(J5-Pin_3)*%
X117000000Y-95100000D03*
%TO.N,Net-(J5-Pin_9)*%
X52900000Y-105100000D03*
%TD*%
D16*
%TO.N,VCC*%
X42140000Y-90200000D02*
X42140000Y-128200000D01*
X42140000Y-77660000D02*
X42140000Y-90200000D01*
X42200000Y-77600000D02*
X42140000Y-77660000D01*
D17*
%TO.N,Net-(J5-Pin_12)*%
X128000000Y-105250000D02*
X133650000Y-105250000D01*
X136400000Y-102500000D02*
X269590000Y-102500000D01*
X133650000Y-105250000D02*
X136400000Y-102500000D01*
%TO.N,Net-(J5-Pin_4)*%
X259250000Y-94500000D02*
X269590000Y-94500000D01*
X253310000Y-88560000D02*
X259250000Y-94500000D01*
X127500000Y-95000000D02*
X133940000Y-88560000D01*
X133940000Y-88560000D02*
X253310000Y-88560000D01*
%TO.N,Net-(J5-Pin_14)*%
X192250000Y-105250000D02*
X193000000Y-104500000D01*
X193000000Y-104500000D02*
X269590000Y-104500000D01*
%TO.N,Net-(J5-Pin_6)*%
X250250000Y-96500000D02*
X269590000Y-96500000D01*
X247350000Y-93600000D02*
X250250000Y-96500000D01*
X194000000Y-93600000D02*
X247350000Y-93600000D01*
X192600000Y-95000000D02*
X194000000Y-93600000D01*
%TO.N,Net-(J5-Pin_7)*%
X246200000Y-97500000D02*
X269590000Y-97500000D01*
X244900000Y-96200000D02*
X246200000Y-97500000D01*
%TO.N,Net-(J5-Pin_15)*%
X246000000Y-105500000D02*
X269590000Y-105500000D01*
X245750000Y-105750000D02*
X246000000Y-105500000D01*
%TO.N,Net-(J5-Pin_2)*%
X260500000Y-92500000D02*
X269590000Y-92500000D01*
X75500000Y-83500000D02*
X251500000Y-83500000D01*
X251500000Y-83500000D02*
X260500000Y-92500000D01*
X64000000Y-95000000D02*
X75500000Y-83500000D01*
%TO.N,Net-(J5-Pin_1)*%
X53000000Y-95000000D02*
X67000000Y-81000000D01*
X67000000Y-81000000D02*
X250750000Y-81000000D01*
X261250000Y-91500000D02*
X269590000Y-91500000D01*
X250750000Y-81000000D02*
X261250000Y-91500000D01*
%TO.N,Net-(J5-Pin_8)*%
X262250000Y-98500000D02*
X269590000Y-98500000D01*
%TO.N,Net-(J5-Pin_11)*%
X116750000Y-105250000D02*
X120500000Y-101500000D01*
X120500000Y-101500000D02*
X269590000Y-101500000D01*
%TO.N,Net-(J5-Pin_16)*%
X269590000Y-106500000D02*
X257750000Y-106500000D01*
%TO.N,Net-(J5-Pin_10)*%
X68050000Y-100500000D02*
X269590000Y-100500000D01*
X63350000Y-105200000D02*
X68050000Y-100500000D01*
%TO.N,Net-(J5-Pin_5)*%
X180600000Y-95000000D02*
X184500000Y-91100000D01*
X258500000Y-95500000D02*
X269590000Y-95500000D01*
X254100000Y-91100000D02*
X258500000Y-95500000D01*
X184500000Y-91100000D02*
X254100000Y-91100000D01*
%TO.N,Net-(J5-Pin_13)*%
X181000000Y-105250000D02*
X182750000Y-103500000D01*
X182750000Y-103500000D02*
X269590000Y-103500000D01*
%TO.N,Net-(J5-Pin_3)*%
X117000000Y-95100000D02*
X126100000Y-86000000D01*
X252500000Y-86000000D02*
X260000000Y-93500000D01*
X126100000Y-86000000D02*
X252500000Y-86000000D01*
X260000000Y-93500000D02*
X269590000Y-93500000D01*
%TO.N,Net-(J5-Pin_9)*%
X58500000Y-99500000D02*
X269590000Y-99500000D01*
X52900000Y-105100000D02*
X58500000Y-99500000D01*
%TD*%
%TA.AperFunction,Conductor*%
%TO.N,GND*%
G36*
X277242539Y-69620185D02*
G01*
X277288294Y-69672989D01*
X277299500Y-69724500D01*
X277299500Y-130475500D01*
X277279815Y-130542539D01*
X277227011Y-130588294D01*
X277175500Y-130599500D01*
X24424500Y-130599500D01*
X24357461Y-130579815D01*
X24311706Y-130527011D01*
X24300500Y-130475500D01*
X24300500Y-127302135D01*
X38249500Y-127302135D01*
X38249500Y-129097870D01*
X38249501Y-129097876D01*
X38255908Y-129157483D01*
X38306202Y-129292328D01*
X38306206Y-129292335D01*
X38392452Y-129407544D01*
X38392455Y-129407547D01*
X38507664Y-129493793D01*
X38507671Y-129493797D01*
X38642517Y-129544091D01*
X38642516Y-129544091D01*
X38649444Y-129544835D01*
X38702127Y-129550500D01*
X40497872Y-129550499D01*
X40557483Y-129544091D01*
X40692331Y-129493796D01*
X40807546Y-129407546D01*
X40893796Y-129292331D01*
X40942810Y-129160916D01*
X40984681Y-129104984D01*
X41050145Y-129080566D01*
X41118418Y-129095417D01*
X41146673Y-129116569D01*
X41260213Y-129230109D01*
X41432179Y-129355048D01*
X41432181Y-129355049D01*
X41432184Y-129355051D01*
X41621588Y-129451557D01*
X41823757Y-129517246D01*
X42033713Y-129550500D01*
X42033714Y-129550500D01*
X42246286Y-129550500D01*
X42246287Y-129550500D01*
X42456243Y-129517246D01*
X42658412Y-129451557D01*
X42847816Y-129355051D01*
X42934138Y-129292335D01*
X43019786Y-129230109D01*
X43019788Y-129230106D01*
X43019792Y-129230104D01*
X43170104Y-129079792D01*
X43170106Y-129079788D01*
X43170109Y-129079786D01*
X43295048Y-128907820D01*
X43295047Y-128907820D01*
X43295051Y-128907816D01*
X43391557Y-128718412D01*
X43457246Y-128516243D01*
X43490500Y-128306287D01*
X43490500Y-128093713D01*
X43457246Y-127883757D01*
X43391557Y-127681588D01*
X43295051Y-127492184D01*
X43295049Y-127492181D01*
X43295048Y-127492179D01*
X43170109Y-127320213D01*
X43076819Y-127226923D01*
X43043334Y-127165600D01*
X43040500Y-127139242D01*
X43040500Y-109652135D01*
X270789500Y-109652135D01*
X270789500Y-111747870D01*
X270789501Y-111747876D01*
X270795908Y-111807483D01*
X270846202Y-111942328D01*
X270846206Y-111942335D01*
X270932452Y-112057544D01*
X270932455Y-112057547D01*
X271047664Y-112143793D01*
X271047671Y-112143797D01*
X271182517Y-112194091D01*
X271182516Y-112194091D01*
X271189444Y-112194835D01*
X271242127Y-112200500D01*
X273037872Y-112200499D01*
X273097483Y-112194091D01*
X273232331Y-112143796D01*
X273347546Y-112057546D01*
X273433796Y-111942331D01*
X273484091Y-111807483D01*
X273490500Y-111747873D01*
X273490499Y-109652128D01*
X273484091Y-109592517D01*
X273433796Y-109457669D01*
X273433795Y-109457668D01*
X273433793Y-109457664D01*
X273347547Y-109342455D01*
X273347544Y-109342452D01*
X273232335Y-109256206D01*
X273232328Y-109256202D01*
X273097482Y-109205908D01*
X273097483Y-109205908D01*
X273037883Y-109199501D01*
X273037881Y-109199500D01*
X273037873Y-109199500D01*
X273037864Y-109199500D01*
X271242129Y-109199500D01*
X271242123Y-109199501D01*
X271182516Y-109205908D01*
X271047671Y-109256202D01*
X271047664Y-109256206D01*
X270932455Y-109342452D01*
X270932452Y-109342455D01*
X270846206Y-109457664D01*
X270846202Y-109457671D01*
X270795908Y-109592517D01*
X270789501Y-109652116D01*
X270789501Y-109652123D01*
X270789500Y-109652135D01*
X43040500Y-109652135D01*
X43040500Y-108797844D01*
X268450000Y-108797844D01*
X268456401Y-108857372D01*
X268456403Y-108857379D01*
X268506645Y-108992086D01*
X268506649Y-108992093D01*
X268592809Y-109107187D01*
X268592812Y-109107190D01*
X268707906Y-109193350D01*
X268707913Y-109193354D01*
X268842620Y-109243596D01*
X268842627Y-109243598D01*
X268902155Y-109249999D01*
X268902172Y-109250000D01*
X269450000Y-109250000D01*
X269950000Y-109250000D01*
X270497828Y-109250000D01*
X270497844Y-109249999D01*
X270557372Y-109243598D01*
X270557379Y-109243596D01*
X270692086Y-109193354D01*
X270692093Y-109193350D01*
X270807187Y-109107190D01*
X270807190Y-109107187D01*
X270893350Y-108992093D01*
X270893354Y-108992086D01*
X270943596Y-108857379D01*
X270943598Y-108857372D01*
X270949999Y-108797844D01*
X270950000Y-108797827D01*
X270950000Y-108750000D01*
X269950000Y-108750000D01*
X269950000Y-109250000D01*
X269450000Y-109250000D01*
X269450000Y-108750000D01*
X268450000Y-108750000D01*
X268450000Y-108797844D01*
X43040500Y-108797844D01*
X43040500Y-105021153D01*
X52099500Y-105021153D01*
X52099500Y-105178846D01*
X52130261Y-105333489D01*
X52130264Y-105333501D01*
X52190602Y-105479172D01*
X52190609Y-105479185D01*
X52278210Y-105610288D01*
X52278213Y-105610292D01*
X52389707Y-105721786D01*
X52389711Y-105721789D01*
X52520814Y-105809390D01*
X52520827Y-105809397D01*
X52666498Y-105869735D01*
X52666503Y-105869737D01*
X52821153Y-105900499D01*
X52821156Y-105900500D01*
X52821158Y-105900500D01*
X52978844Y-105900500D01*
X52978845Y-105900499D01*
X53133497Y-105869737D01*
X53279179Y-105809394D01*
X53410289Y-105721789D01*
X53521789Y-105610289D01*
X53609394Y-105479179D01*
X53669737Y-105333497D01*
X53695869Y-105202123D01*
X53700638Y-105178150D01*
X53733023Y-105116239D01*
X53734518Y-105114716D01*
X58712416Y-100136819D01*
X58773739Y-100103334D01*
X58800097Y-100100500D01*
X67300902Y-100100500D01*
X67367941Y-100120185D01*
X67413696Y-100172989D01*
X67423640Y-100242147D01*
X67394615Y-100305703D01*
X67388583Y-100312181D01*
X63335339Y-104365425D01*
X63274016Y-104398910D01*
X63271850Y-104399361D01*
X63116508Y-104430261D01*
X63116498Y-104430264D01*
X62970827Y-104490602D01*
X62970814Y-104490609D01*
X62839711Y-104578210D01*
X62839707Y-104578213D01*
X62728213Y-104689707D01*
X62728210Y-104689711D01*
X62640609Y-104820814D01*
X62640602Y-104820827D01*
X62580264Y-104966498D01*
X62580261Y-104966510D01*
X62549500Y-105121153D01*
X62549500Y-105278846D01*
X62580261Y-105433489D01*
X62580264Y-105433501D01*
X62640602Y-105579172D01*
X62640609Y-105579185D01*
X62728210Y-105710288D01*
X62728213Y-105710292D01*
X62839707Y-105821786D01*
X62839711Y-105821789D01*
X62970814Y-105909390D01*
X62970827Y-105909397D01*
X63116498Y-105969735D01*
X63116503Y-105969737D01*
X63230090Y-105992331D01*
X63271153Y-106000499D01*
X63271156Y-106000500D01*
X63271158Y-106000500D01*
X63428844Y-106000500D01*
X63428845Y-106000499D01*
X63583497Y-105969737D01*
X63729179Y-105909394D01*
X63860289Y-105821789D01*
X63971789Y-105710289D01*
X64059394Y-105579179D01*
X64119737Y-105433497D01*
X64147701Y-105292914D01*
X64150638Y-105278150D01*
X64183023Y-105216239D01*
X64184518Y-105214716D01*
X68262417Y-101136819D01*
X68323740Y-101103334D01*
X68350098Y-101100500D01*
X119750902Y-101100500D01*
X119817941Y-101120185D01*
X119863696Y-101172989D01*
X119873640Y-101242147D01*
X119844615Y-101305703D01*
X119838583Y-101312181D01*
X116735339Y-104415425D01*
X116674016Y-104448910D01*
X116671850Y-104449361D01*
X116516508Y-104480261D01*
X116516498Y-104480264D01*
X116370827Y-104540602D01*
X116370814Y-104540609D01*
X116239711Y-104628210D01*
X116239707Y-104628213D01*
X116128213Y-104739707D01*
X116128210Y-104739711D01*
X116040609Y-104870814D01*
X116040602Y-104870827D01*
X115980264Y-105016498D01*
X115980261Y-105016510D01*
X115949500Y-105171153D01*
X115949500Y-105328846D01*
X115980261Y-105483489D01*
X115980264Y-105483501D01*
X116040602Y-105629172D01*
X116040609Y-105629185D01*
X116128210Y-105760288D01*
X116128213Y-105760292D01*
X116239707Y-105871786D01*
X116239711Y-105871789D01*
X116370814Y-105959390D01*
X116370827Y-105959397D01*
X116470060Y-106000500D01*
X116516503Y-106019737D01*
X116671153Y-106050499D01*
X116671156Y-106050500D01*
X116671158Y-106050500D01*
X116828844Y-106050500D01*
X116828845Y-106050499D01*
X116983497Y-106019737D01*
X117129179Y-105959394D01*
X117260289Y-105871789D01*
X117371789Y-105760289D01*
X117459394Y-105629179D01*
X117519737Y-105483497D01*
X117542151Y-105370815D01*
X117550638Y-105328150D01*
X117583023Y-105266239D01*
X117584518Y-105264716D01*
X120712416Y-102136819D01*
X120773739Y-102103334D01*
X120800097Y-102100500D01*
X135650902Y-102100500D01*
X135717941Y-102120185D01*
X135763696Y-102172989D01*
X135773640Y-102242147D01*
X135744615Y-102305703D01*
X135738583Y-102312181D01*
X133437584Y-104613181D01*
X133376261Y-104646666D01*
X133349903Y-104649500D01*
X128579766Y-104649500D01*
X128512727Y-104629815D01*
X128510875Y-104628602D01*
X128379185Y-104540609D01*
X128379172Y-104540602D01*
X128233501Y-104480264D01*
X128233489Y-104480261D01*
X128078845Y-104449500D01*
X128078842Y-104449500D01*
X127921158Y-104449500D01*
X127921155Y-104449500D01*
X127766510Y-104480261D01*
X127766498Y-104480264D01*
X127620827Y-104540602D01*
X127620814Y-104540609D01*
X127489711Y-104628210D01*
X127489707Y-104628213D01*
X127378213Y-104739707D01*
X127378210Y-104739711D01*
X127290609Y-104870814D01*
X127290602Y-104870827D01*
X127230264Y-105016498D01*
X127230261Y-105016510D01*
X127199500Y-105171153D01*
X127199500Y-105328846D01*
X127230261Y-105483489D01*
X127230264Y-105483501D01*
X127290602Y-105629172D01*
X127290609Y-105629185D01*
X127378210Y-105760288D01*
X127378213Y-105760292D01*
X127489707Y-105871786D01*
X127489711Y-105871789D01*
X127620814Y-105959390D01*
X127620827Y-105959397D01*
X127720060Y-106000500D01*
X127766503Y-106019737D01*
X127921153Y-106050499D01*
X127921156Y-106050500D01*
X127921158Y-106050500D01*
X128078844Y-106050500D01*
X128078845Y-106050499D01*
X128233497Y-106019737D01*
X128379179Y-105959394D01*
X128454005Y-105909397D01*
X128510875Y-105871398D01*
X128577553Y-105850520D01*
X128579766Y-105850500D01*
X133563331Y-105850500D01*
X133563347Y-105850501D01*
X133570943Y-105850501D01*
X133729054Y-105850501D01*
X133729057Y-105850501D01*
X133881785Y-105809577D01*
X133939136Y-105776465D01*
X134018716Y-105730520D01*
X134130520Y-105618716D01*
X134130520Y-105618714D01*
X134140724Y-105608511D01*
X134140727Y-105608506D01*
X136612416Y-103136819D01*
X136673739Y-103103334D01*
X136700097Y-103100500D01*
X182000902Y-103100500D01*
X182067941Y-103120185D01*
X182113696Y-103172989D01*
X182123640Y-103242147D01*
X182094615Y-103305703D01*
X182088583Y-103312181D01*
X180985339Y-104415425D01*
X180924016Y-104448910D01*
X180921850Y-104449361D01*
X180766508Y-104480261D01*
X180766498Y-104480264D01*
X180620827Y-104540602D01*
X180620814Y-104540609D01*
X180489711Y-104628210D01*
X180489707Y-104628213D01*
X180378213Y-104739707D01*
X180378210Y-104739711D01*
X180290609Y-104870814D01*
X180290602Y-104870827D01*
X180230264Y-105016498D01*
X180230261Y-105016510D01*
X180199500Y-105171153D01*
X180199500Y-105328846D01*
X180230261Y-105483489D01*
X180230264Y-105483501D01*
X180290602Y-105629172D01*
X180290609Y-105629185D01*
X180378210Y-105760288D01*
X180378213Y-105760292D01*
X180489707Y-105871786D01*
X180489711Y-105871789D01*
X180620814Y-105959390D01*
X180620827Y-105959397D01*
X180720060Y-106000500D01*
X180766503Y-106019737D01*
X180921153Y-106050499D01*
X180921156Y-106050500D01*
X180921158Y-106050500D01*
X181078844Y-106050500D01*
X181078845Y-106050499D01*
X181233497Y-106019737D01*
X181379179Y-105959394D01*
X181510289Y-105871789D01*
X181621789Y-105760289D01*
X181709394Y-105629179D01*
X181769737Y-105483497D01*
X181792151Y-105370815D01*
X181800638Y-105328150D01*
X181833023Y-105266239D01*
X181834517Y-105264717D01*
X182962417Y-104136819D01*
X183023740Y-104103334D01*
X183050098Y-104100500D01*
X192250903Y-104100500D01*
X192272148Y-104106738D01*
X192294237Y-104108318D01*
X192305020Y-104116390D01*
X192317942Y-104120185D01*
X192332441Y-104136918D01*
X192350170Y-104150190D01*
X192354877Y-104162810D01*
X192363697Y-104172989D01*
X192366848Y-104194907D01*
X192374587Y-104215655D01*
X192371724Y-104228815D01*
X192373641Y-104242147D01*
X192364441Y-104262290D01*
X192359735Y-104283927D01*
X192346465Y-104301653D01*
X192344616Y-104305703D01*
X192338603Y-104312161D01*
X192285340Y-104365425D01*
X192235339Y-104415426D01*
X192174016Y-104448910D01*
X192171850Y-104449361D01*
X192016508Y-104480261D01*
X192016498Y-104480264D01*
X191870827Y-104540602D01*
X191870814Y-104540609D01*
X191739711Y-104628210D01*
X191739707Y-104628213D01*
X191628213Y-104739707D01*
X191628210Y-104739711D01*
X191540609Y-104870814D01*
X191540602Y-104870827D01*
X191480264Y-105016498D01*
X191480261Y-105016510D01*
X191449500Y-105171153D01*
X191449500Y-105328846D01*
X191480261Y-105483489D01*
X191480264Y-105483501D01*
X191540602Y-105629172D01*
X191540609Y-105629185D01*
X191628210Y-105760288D01*
X191628213Y-105760292D01*
X191739707Y-105871786D01*
X191739711Y-105871789D01*
X191870814Y-105959390D01*
X191870827Y-105959397D01*
X191970060Y-106000500D01*
X192016503Y-106019737D01*
X192171153Y-106050499D01*
X192171156Y-106050500D01*
X192171158Y-106050500D01*
X192328844Y-106050500D01*
X192328845Y-106050499D01*
X192483497Y-106019737D01*
X192629179Y-105959394D01*
X192760289Y-105871789D01*
X192871789Y-105760289D01*
X192959394Y-105629179D01*
X193019737Y-105483497D01*
X193042151Y-105370815D01*
X193050638Y-105328150D01*
X193059402Y-105311393D01*
X193063423Y-105292914D01*
X193082168Y-105267872D01*
X193083023Y-105266239D01*
X193084467Y-105264767D01*
X193212418Y-105136816D01*
X193273739Y-105103334D01*
X193300097Y-105100500D01*
X244989241Y-105100500D01*
X245056280Y-105120185D01*
X245102035Y-105172989D01*
X245111979Y-105242147D01*
X245092343Y-105293391D01*
X245040609Y-105370815D01*
X245040602Y-105370827D01*
X244980264Y-105516498D01*
X244980261Y-105516510D01*
X244949500Y-105671153D01*
X244949500Y-105828846D01*
X244980261Y-105983489D01*
X244980264Y-105983501D01*
X245040602Y-106129172D01*
X245040609Y-106129185D01*
X245128210Y-106260288D01*
X245128213Y-106260292D01*
X245239707Y-106371786D01*
X245239711Y-106371789D01*
X245370814Y-106459390D01*
X245370827Y-106459397D01*
X245516498Y-106519735D01*
X245516503Y-106519737D01*
X245671153Y-106550499D01*
X245671156Y-106550500D01*
X245671158Y-106550500D01*
X245828844Y-106550500D01*
X245828845Y-106550499D01*
X245983497Y-106519737D01*
X246129179Y-106459394D01*
X246260289Y-106371789D01*
X246371789Y-106260289D01*
X246441734Y-106155608D01*
X246495346Y-106110804D01*
X246544836Y-106100500D01*
X256863445Y-106100500D01*
X256930484Y-106120185D01*
X256976239Y-106172989D01*
X256986183Y-106242147D01*
X256981159Y-106260411D01*
X256982031Y-106260676D01*
X256980261Y-106266510D01*
X256949500Y-106421153D01*
X256949500Y-106578846D01*
X256980261Y-106733489D01*
X256980264Y-106733501D01*
X257040602Y-106879172D01*
X257040609Y-106879185D01*
X257128210Y-107010288D01*
X257128213Y-107010292D01*
X257239707Y-107121786D01*
X257239711Y-107121789D01*
X257370814Y-107209390D01*
X257370827Y-107209397D01*
X257516498Y-107269735D01*
X257516503Y-107269737D01*
X257671153Y-107300499D01*
X257671156Y-107300500D01*
X257671158Y-107300500D01*
X257828844Y-107300500D01*
X257828845Y-107300499D01*
X257983497Y-107269737D01*
X258129179Y-107209394D01*
X258183663Y-107172989D01*
X258260875Y-107121398D01*
X258327553Y-107100520D01*
X258329766Y-107100500D01*
X268325500Y-107100500D01*
X268392539Y-107120185D01*
X268438294Y-107172989D01*
X268449500Y-107224500D01*
X268449500Y-107797870D01*
X268449501Y-107797876D01*
X268455908Y-107857483D01*
X268493168Y-107957381D01*
X268498152Y-108027073D01*
X268493168Y-108044046D01*
X268456403Y-108142617D01*
X268456401Y-108142627D01*
X268450000Y-108202155D01*
X268450000Y-108250000D01*
X268890833Y-108250000D01*
X268898811Y-108250427D01*
X268898817Y-108250322D01*
X268902102Y-108250497D01*
X268902127Y-108250500D01*
X270497872Y-108250499D01*
X270497872Y-108250498D01*
X270501196Y-108250321D01*
X270501201Y-108250426D01*
X270509163Y-108250000D01*
X270950000Y-108250000D01*
X270950000Y-108202172D01*
X270949999Y-108202155D01*
X270943598Y-108142627D01*
X270943596Y-108142620D01*
X270906831Y-108044047D01*
X270901847Y-107974356D01*
X270906831Y-107957381D01*
X270944091Y-107857483D01*
X270950500Y-107797873D01*
X270950499Y-107202128D01*
X270944091Y-107142517D01*
X270907096Y-107043330D01*
X270902113Y-106973642D01*
X270907092Y-106956680D01*
X270944091Y-106857483D01*
X270950500Y-106797873D01*
X270950499Y-106202128D01*
X270944091Y-106142517D01*
X270907096Y-106043330D01*
X270902113Y-105973642D01*
X270907092Y-105956680D01*
X270944091Y-105857483D01*
X270950500Y-105797873D01*
X270950499Y-105202128D01*
X270944091Y-105142517D01*
X270907096Y-105043330D01*
X270902113Y-104973642D01*
X270907092Y-104956680D01*
X270944091Y-104857483D01*
X270950500Y-104797873D01*
X270950499Y-104202128D01*
X270944091Y-104142517D01*
X270907096Y-104043330D01*
X270902113Y-103973642D01*
X270907092Y-103956680D01*
X270944091Y-103857483D01*
X270950500Y-103797873D01*
X270950499Y-103202128D01*
X270944091Y-103142517D01*
X270907096Y-103043330D01*
X270902113Y-102973642D01*
X270907092Y-102956680D01*
X270944091Y-102857483D01*
X270950500Y-102797873D01*
X270950499Y-102202128D01*
X270944091Y-102142517D01*
X270907096Y-102043330D01*
X270902113Y-101973642D01*
X270907092Y-101956680D01*
X270944091Y-101857483D01*
X270950500Y-101797873D01*
X270950499Y-101202128D01*
X270944091Y-101142517D01*
X270907096Y-101043330D01*
X270902113Y-100973642D01*
X270907092Y-100956680D01*
X270944091Y-100857483D01*
X270950500Y-100797873D01*
X270950499Y-100202128D01*
X270944091Y-100142517D01*
X270907096Y-100043330D01*
X270902113Y-99973642D01*
X270907092Y-99956680D01*
X270944091Y-99857483D01*
X270950500Y-99797873D01*
X270950499Y-99202128D01*
X270944091Y-99142517D01*
X270907096Y-99043330D01*
X270902113Y-98973642D01*
X270907092Y-98956680D01*
X270944091Y-98857483D01*
X270950500Y-98797873D01*
X270950499Y-98202128D01*
X270944091Y-98142517D01*
X270907096Y-98043330D01*
X270902113Y-97973642D01*
X270907092Y-97956680D01*
X270944091Y-97857483D01*
X270950500Y-97797873D01*
X270950499Y-97202128D01*
X270944091Y-97142517D01*
X270907096Y-97043330D01*
X270902113Y-96973642D01*
X270907092Y-96956680D01*
X270944091Y-96857483D01*
X270950500Y-96797873D01*
X270950499Y-96202128D01*
X270944091Y-96142517D01*
X270907096Y-96043330D01*
X270902113Y-95973642D01*
X270907092Y-95956680D01*
X270944091Y-95857483D01*
X270950500Y-95797873D01*
X270950499Y-95202128D01*
X270944091Y-95142517D01*
X270907096Y-95043330D01*
X270902113Y-94973642D01*
X270907092Y-94956680D01*
X270944091Y-94857483D01*
X270950500Y-94797873D01*
X270950499Y-94202128D01*
X270944091Y-94142517D01*
X270907096Y-94043330D01*
X270902113Y-93973642D01*
X270907092Y-93956680D01*
X270944091Y-93857483D01*
X270950500Y-93797873D01*
X270950499Y-93202128D01*
X270944091Y-93142517D01*
X270907096Y-93043330D01*
X270902113Y-92973642D01*
X270907092Y-92956680D01*
X270944091Y-92857483D01*
X270950500Y-92797873D01*
X270950499Y-92202128D01*
X270944091Y-92142517D01*
X270907096Y-92043330D01*
X270902113Y-91973642D01*
X270907092Y-91956680D01*
X270944091Y-91857483D01*
X270950500Y-91797873D01*
X270950499Y-91202128D01*
X270944091Y-91142517D01*
X270893796Y-91007669D01*
X270893795Y-91007668D01*
X270893793Y-91007664D01*
X270807547Y-90892455D01*
X270807544Y-90892452D01*
X270692335Y-90806206D01*
X270692328Y-90806202D01*
X270557482Y-90755908D01*
X270557483Y-90755908D01*
X270497883Y-90749501D01*
X270497881Y-90749500D01*
X270497873Y-90749500D01*
X270497864Y-90749500D01*
X268902129Y-90749500D01*
X268902123Y-90749501D01*
X268842516Y-90755908D01*
X268707671Y-90806202D01*
X268707668Y-90806204D01*
X268616080Y-90874767D01*
X268550615Y-90899184D01*
X268541769Y-90899500D01*
X261550097Y-90899500D01*
X261483058Y-90879815D01*
X261462416Y-90863181D01*
X258851370Y-88252135D01*
X270949500Y-88252135D01*
X270949500Y-90347870D01*
X270949501Y-90347876D01*
X270955908Y-90407483D01*
X271006202Y-90542328D01*
X271006206Y-90542335D01*
X271092452Y-90657544D01*
X271092455Y-90657547D01*
X271207664Y-90743793D01*
X271207671Y-90743797D01*
X271342517Y-90794091D01*
X271342516Y-90794091D01*
X271349444Y-90794835D01*
X271402127Y-90800500D01*
X273197872Y-90800499D01*
X273257483Y-90794091D01*
X273392331Y-90743796D01*
X273507546Y-90657546D01*
X273593796Y-90542331D01*
X273644091Y-90407483D01*
X273650500Y-90347873D01*
X273650499Y-88252128D01*
X273644091Y-88192517D01*
X273601931Y-88079481D01*
X273593797Y-88057671D01*
X273593793Y-88057664D01*
X273507547Y-87942455D01*
X273507544Y-87942452D01*
X273392335Y-87856206D01*
X273392328Y-87856202D01*
X273257482Y-87805908D01*
X273257483Y-87805908D01*
X273197883Y-87799501D01*
X273197881Y-87799500D01*
X273197873Y-87799500D01*
X273197864Y-87799500D01*
X271402129Y-87799500D01*
X271402123Y-87799501D01*
X271342516Y-87805908D01*
X271207671Y-87856202D01*
X271207664Y-87856206D01*
X271092455Y-87942452D01*
X271092452Y-87942455D01*
X271006206Y-88057664D01*
X271006202Y-88057671D01*
X270955908Y-88192517D01*
X270949501Y-88252116D01*
X270949501Y-88252123D01*
X270949500Y-88252135D01*
X258851370Y-88252135D01*
X251237590Y-80638355D01*
X251237588Y-80638352D01*
X251118717Y-80519481D01*
X251118716Y-80519480D01*
X251031904Y-80469360D01*
X251031904Y-80469359D01*
X251031900Y-80469358D01*
X250981785Y-80440423D01*
X250829057Y-80399499D01*
X250670943Y-80399499D01*
X250663347Y-80399499D01*
X250663331Y-80399500D01*
X67086669Y-80399500D01*
X67086653Y-80399499D01*
X67079057Y-80399499D01*
X66920943Y-80399499D01*
X66813587Y-80428265D01*
X66768210Y-80440424D01*
X66768209Y-80440425D01*
X66718096Y-80469359D01*
X66718095Y-80469360D01*
X66674689Y-80494420D01*
X66631285Y-80519479D01*
X66631282Y-80519481D01*
X52985339Y-94165425D01*
X52924016Y-94198910D01*
X52921850Y-94199361D01*
X52766508Y-94230261D01*
X52766498Y-94230264D01*
X52620827Y-94290602D01*
X52620814Y-94290609D01*
X52489711Y-94378210D01*
X52489707Y-94378213D01*
X52378213Y-94489707D01*
X52378210Y-94489711D01*
X52290609Y-94620814D01*
X52290602Y-94620827D01*
X52230264Y-94766498D01*
X52230261Y-94766510D01*
X52199500Y-94921153D01*
X52199500Y-95078846D01*
X52230261Y-95233489D01*
X52230264Y-95233501D01*
X52290602Y-95379172D01*
X52290609Y-95379185D01*
X52378210Y-95510288D01*
X52378213Y-95510292D01*
X52489707Y-95621786D01*
X52489711Y-95621789D01*
X52620814Y-95709390D01*
X52620827Y-95709397D01*
X52766498Y-95769735D01*
X52766503Y-95769737D01*
X52907906Y-95797864D01*
X52921153Y-95800499D01*
X52921156Y-95800500D01*
X52921158Y-95800500D01*
X53078844Y-95800500D01*
X53078845Y-95800499D01*
X53233497Y-95769737D01*
X53379179Y-95709394D01*
X53510289Y-95621789D01*
X53621789Y-95510289D01*
X53709394Y-95379179D01*
X53769737Y-95233497D01*
X53793375Y-95114660D01*
X53800638Y-95078150D01*
X53833023Y-95016239D01*
X53834518Y-95014716D01*
X67212416Y-81636819D01*
X67273739Y-81603334D01*
X67300097Y-81600500D01*
X250449903Y-81600500D01*
X250516942Y-81620185D01*
X250537584Y-81636819D01*
X251588583Y-82687818D01*
X251599193Y-82707250D01*
X251613696Y-82723986D01*
X251615613Y-82737319D01*
X251622068Y-82749141D01*
X251620488Y-82771226D01*
X251623640Y-82793145D01*
X251618044Y-82805397D01*
X251617084Y-82818833D01*
X251603814Y-82836558D01*
X251594616Y-82856701D01*
X251583283Y-82863984D01*
X251575212Y-82874766D01*
X251554467Y-82882503D01*
X251535838Y-82894476D01*
X251513918Y-82897627D01*
X251509748Y-82899183D01*
X251500903Y-82899499D01*
X251420943Y-82899499D01*
X251420939Y-82899499D01*
X251413332Y-82899500D01*
X251413331Y-82899499D01*
X251413331Y-82899500D01*
X75586669Y-82899500D01*
X75586653Y-82899499D01*
X75579057Y-82899499D01*
X75420943Y-82899499D01*
X75313587Y-82928265D01*
X75268210Y-82940424D01*
X75268209Y-82940425D01*
X75218096Y-82969359D01*
X75218095Y-82969360D01*
X75174689Y-82994420D01*
X75131285Y-83019479D01*
X75131282Y-83019481D01*
X63985339Y-94165425D01*
X63924016Y-94198910D01*
X63921850Y-94199361D01*
X63766508Y-94230261D01*
X63766498Y-94230264D01*
X63620827Y-94290602D01*
X63620814Y-94290609D01*
X63489711Y-94378210D01*
X63489707Y-94378213D01*
X63378213Y-94489707D01*
X63378210Y-94489711D01*
X63290609Y-94620814D01*
X63290602Y-94620827D01*
X63230264Y-94766498D01*
X63230261Y-94766510D01*
X63199500Y-94921153D01*
X63199500Y-95078846D01*
X63230261Y-95233489D01*
X63230264Y-95233501D01*
X63290602Y-95379172D01*
X63290609Y-95379185D01*
X63378210Y-95510288D01*
X63378213Y-95510292D01*
X63489707Y-95621786D01*
X63489711Y-95621789D01*
X63620814Y-95709390D01*
X63620827Y-95709397D01*
X63766498Y-95769735D01*
X63766503Y-95769737D01*
X63907906Y-95797864D01*
X63921153Y-95800499D01*
X63921156Y-95800500D01*
X63921158Y-95800500D01*
X64078844Y-95800500D01*
X64078845Y-95800499D01*
X64233497Y-95769737D01*
X64379179Y-95709394D01*
X64510289Y-95621789D01*
X64621789Y-95510289D01*
X64709394Y-95379179D01*
X64769737Y-95233497D01*
X64793375Y-95114660D01*
X64800638Y-95078150D01*
X64833023Y-95016239D01*
X64834518Y-95014716D01*
X75712416Y-84136819D01*
X75773739Y-84103334D01*
X75800097Y-84100500D01*
X251199903Y-84100500D01*
X251266942Y-84120185D01*
X251287584Y-84136819D01*
X252338584Y-85187819D01*
X252372069Y-85249142D01*
X252367085Y-85318834D01*
X252325213Y-85374767D01*
X252259749Y-85399184D01*
X252250903Y-85399500D01*
X126020940Y-85399500D01*
X125980019Y-85410464D01*
X125980019Y-85410465D01*
X125942751Y-85420451D01*
X125868214Y-85440423D01*
X125868209Y-85440426D01*
X125731290Y-85519475D01*
X125731282Y-85519481D01*
X116985339Y-94265425D01*
X116924016Y-94298910D01*
X116921850Y-94299361D01*
X116766508Y-94330261D01*
X116766498Y-94330264D01*
X116620827Y-94390602D01*
X116620814Y-94390609D01*
X116489711Y-94478210D01*
X116489707Y-94478213D01*
X116378213Y-94589707D01*
X116378210Y-94589711D01*
X116290609Y-94720814D01*
X116290602Y-94720827D01*
X116230264Y-94866498D01*
X116230261Y-94866510D01*
X116199500Y-95021153D01*
X116199500Y-95178846D01*
X116230261Y-95333489D01*
X116230264Y-95333501D01*
X116290602Y-95479172D01*
X116290609Y-95479185D01*
X116378210Y-95610288D01*
X116378213Y-95610292D01*
X116489707Y-95721786D01*
X116489711Y-95721789D01*
X116620814Y-95809390D01*
X116620827Y-95809397D01*
X116750675Y-95863181D01*
X116766503Y-95869737D01*
X116914542Y-95899184D01*
X116921153Y-95900499D01*
X116921156Y-95900500D01*
X116921158Y-95900500D01*
X117078844Y-95900500D01*
X117078845Y-95900499D01*
X117233497Y-95869737D01*
X117351592Y-95820821D01*
X117379172Y-95809397D01*
X117379172Y-95809396D01*
X117379179Y-95809394D01*
X117510289Y-95721789D01*
X117621789Y-95610289D01*
X117709394Y-95479179D01*
X117769737Y-95333497D01*
X117795869Y-95202123D01*
X117800638Y-95178150D01*
X117833023Y-95116239D01*
X117834518Y-95114716D01*
X126312416Y-86636819D01*
X126373739Y-86603334D01*
X126400097Y-86600500D01*
X252199903Y-86600500D01*
X252266942Y-86620185D01*
X252287584Y-86636819D01*
X253398583Y-87747818D01*
X253409193Y-87767250D01*
X253423696Y-87783986D01*
X253425613Y-87797319D01*
X253432068Y-87809141D01*
X253430488Y-87831226D01*
X253433640Y-87853145D01*
X253428044Y-87865397D01*
X253427084Y-87878833D01*
X253413814Y-87896558D01*
X253404616Y-87916701D01*
X253393283Y-87923984D01*
X253385212Y-87934766D01*
X253364467Y-87942503D01*
X253345838Y-87954476D01*
X253323918Y-87957627D01*
X253319748Y-87959183D01*
X253310903Y-87959499D01*
X253230943Y-87959499D01*
X253230939Y-87959499D01*
X253223332Y-87959500D01*
X253223331Y-87959499D01*
X253223331Y-87959500D01*
X133860940Y-87959500D01*
X133820019Y-87970464D01*
X133820019Y-87970465D01*
X133782751Y-87980451D01*
X133708214Y-88000423D01*
X133708209Y-88000426D01*
X133571290Y-88079475D01*
X133571282Y-88079481D01*
X127485339Y-94165425D01*
X127424016Y-94198910D01*
X127421850Y-94199361D01*
X127266508Y-94230261D01*
X127266498Y-94230264D01*
X127120827Y-94290602D01*
X127120814Y-94290609D01*
X126989711Y-94378210D01*
X126989707Y-94378213D01*
X126878213Y-94489707D01*
X126878210Y-94489711D01*
X126790609Y-94620814D01*
X126790602Y-94620827D01*
X126730264Y-94766498D01*
X126730261Y-94766510D01*
X126699500Y-94921153D01*
X126699500Y-95078846D01*
X126730261Y-95233489D01*
X126730264Y-95233501D01*
X126790602Y-95379172D01*
X126790609Y-95379185D01*
X126878210Y-95510288D01*
X126878213Y-95510292D01*
X126989707Y-95621786D01*
X126989711Y-95621789D01*
X127120814Y-95709390D01*
X127120827Y-95709397D01*
X127266498Y-95769735D01*
X127266503Y-95769737D01*
X127407906Y-95797864D01*
X127421153Y-95800499D01*
X127421156Y-95800500D01*
X127421158Y-95800500D01*
X127578844Y-95800500D01*
X127578845Y-95800499D01*
X127733497Y-95769737D01*
X127879179Y-95709394D01*
X128010289Y-95621789D01*
X128121789Y-95510289D01*
X128209394Y-95379179D01*
X128269737Y-95233497D01*
X128293375Y-95114660D01*
X128300638Y-95078150D01*
X128333023Y-95016239D01*
X128334518Y-95014716D01*
X134152416Y-89196819D01*
X134213739Y-89163334D01*
X134240097Y-89160500D01*
X253009903Y-89160500D01*
X253076942Y-89180185D01*
X253097584Y-89196819D01*
X254188583Y-90287818D01*
X254199193Y-90307250D01*
X254213696Y-90323986D01*
X254215613Y-90337319D01*
X254222068Y-90349141D01*
X254220488Y-90371226D01*
X254223640Y-90393145D01*
X254218044Y-90405397D01*
X254217084Y-90418833D01*
X254203814Y-90436558D01*
X254194616Y-90456701D01*
X254183283Y-90463984D01*
X254175212Y-90474766D01*
X254154467Y-90482503D01*
X254135838Y-90494476D01*
X254113918Y-90497627D01*
X254109748Y-90499183D01*
X254100903Y-90499499D01*
X254020943Y-90499499D01*
X254020939Y-90499499D01*
X254013332Y-90499500D01*
X254013331Y-90499499D01*
X254013331Y-90499500D01*
X184586669Y-90499500D01*
X184586653Y-90499499D01*
X184579057Y-90499499D01*
X184420943Y-90499499D01*
X184313587Y-90528265D01*
X184268210Y-90540424D01*
X184268209Y-90540425D01*
X184218096Y-90569359D01*
X184218095Y-90569360D01*
X184174689Y-90594420D01*
X184131285Y-90619479D01*
X184131282Y-90619481D01*
X180585339Y-94165425D01*
X180524016Y-94198910D01*
X180521850Y-94199361D01*
X180366508Y-94230261D01*
X180366498Y-94230264D01*
X180220827Y-94290602D01*
X180220814Y-94290609D01*
X180089711Y-94378210D01*
X180089707Y-94378213D01*
X179978213Y-94489707D01*
X179978210Y-94489711D01*
X179890609Y-94620814D01*
X179890602Y-94620827D01*
X179830264Y-94766498D01*
X179830261Y-94766510D01*
X179799500Y-94921153D01*
X179799500Y-95078846D01*
X179830261Y-95233489D01*
X179830264Y-95233501D01*
X179890602Y-95379172D01*
X179890609Y-95379185D01*
X179978210Y-95510288D01*
X179978213Y-95510292D01*
X180089707Y-95621786D01*
X180089711Y-95621789D01*
X180220814Y-95709390D01*
X180220827Y-95709397D01*
X180366498Y-95769735D01*
X180366503Y-95769737D01*
X180507906Y-95797864D01*
X180521153Y-95800499D01*
X180521156Y-95800500D01*
X180521158Y-95800500D01*
X180678844Y-95800500D01*
X180678845Y-95800499D01*
X180833497Y-95769737D01*
X180979179Y-95709394D01*
X181110289Y-95621789D01*
X181221789Y-95510289D01*
X181309394Y-95379179D01*
X181369737Y-95233497D01*
X181393375Y-95114660D01*
X181400638Y-95078150D01*
X181433023Y-95016239D01*
X181434518Y-95014716D01*
X184712416Y-91736819D01*
X184773739Y-91703334D01*
X184800097Y-91700500D01*
X253799903Y-91700500D01*
X253866942Y-91720185D01*
X253887584Y-91736819D01*
X257838583Y-95687819D01*
X257872068Y-95749142D01*
X257867084Y-95818834D01*
X257825212Y-95874767D01*
X257759748Y-95899184D01*
X257750902Y-95899500D01*
X250550097Y-95899500D01*
X250483058Y-95879815D01*
X250462416Y-95863181D01*
X247837590Y-93238355D01*
X247837588Y-93238352D01*
X247718717Y-93119481D01*
X247718716Y-93119480D01*
X247614960Y-93059577D01*
X247614959Y-93059576D01*
X247581783Y-93040422D01*
X247525881Y-93025443D01*
X247429057Y-92999499D01*
X247270943Y-92999499D01*
X247263347Y-92999499D01*
X247263331Y-92999500D01*
X194086669Y-92999500D01*
X194086653Y-92999499D01*
X194079057Y-92999499D01*
X193920943Y-92999499D01*
X193841010Y-93020917D01*
X193768216Y-93040422D01*
X193735038Y-93059578D01*
X193735037Y-93059577D01*
X193631287Y-93119477D01*
X193631282Y-93119481D01*
X192585339Y-94165425D01*
X192524016Y-94198910D01*
X192521850Y-94199361D01*
X192366508Y-94230261D01*
X192366498Y-94230264D01*
X192220827Y-94290602D01*
X192220814Y-94290609D01*
X192089711Y-94378210D01*
X192089707Y-94378213D01*
X191978213Y-94489707D01*
X191978210Y-94489711D01*
X191890609Y-94620814D01*
X191890602Y-94620827D01*
X191830264Y-94766498D01*
X191830261Y-94766510D01*
X191799500Y-94921153D01*
X191799500Y-95078846D01*
X191830261Y-95233489D01*
X191830264Y-95233501D01*
X191890602Y-95379172D01*
X191890609Y-95379185D01*
X191978210Y-95510288D01*
X191978213Y-95510292D01*
X192089707Y-95621786D01*
X192089711Y-95621789D01*
X192220814Y-95709390D01*
X192220827Y-95709397D01*
X192366498Y-95769735D01*
X192366503Y-95769737D01*
X192507906Y-95797864D01*
X192521153Y-95800499D01*
X192521156Y-95800500D01*
X192521158Y-95800500D01*
X192678844Y-95800500D01*
X192678845Y-95800499D01*
X192833497Y-95769737D01*
X192979179Y-95709394D01*
X193110289Y-95621789D01*
X193221789Y-95510289D01*
X193309394Y-95379179D01*
X193369737Y-95233497D01*
X193393375Y-95114660D01*
X193400638Y-95078150D01*
X193433023Y-95016239D01*
X193434518Y-95014716D01*
X194212416Y-94236819D01*
X194273739Y-94203334D01*
X194300097Y-94200500D01*
X247049903Y-94200500D01*
X247116942Y-94220185D01*
X247137584Y-94236819D01*
X249588584Y-96687819D01*
X249622069Y-96749142D01*
X249617085Y-96818834D01*
X249575213Y-96874767D01*
X249509749Y-96899184D01*
X249500903Y-96899500D01*
X246500098Y-96899500D01*
X246433059Y-96879815D01*
X246412417Y-96863181D01*
X245734573Y-96185337D01*
X245701088Y-96124014D01*
X245700637Y-96121847D01*
X245676400Y-96000000D01*
X245669737Y-95966503D01*
X245669735Y-95966498D01*
X245609397Y-95820827D01*
X245609390Y-95820814D01*
X245521789Y-95689711D01*
X245521786Y-95689707D01*
X245410292Y-95578213D01*
X245410288Y-95578210D01*
X245279185Y-95490609D01*
X245279172Y-95490602D01*
X245133501Y-95430264D01*
X245133489Y-95430261D01*
X244978845Y-95399500D01*
X244978842Y-95399500D01*
X244821158Y-95399500D01*
X244821155Y-95399500D01*
X244666510Y-95430261D01*
X244666498Y-95430264D01*
X244520827Y-95490602D01*
X244520814Y-95490609D01*
X244389711Y-95578210D01*
X244389707Y-95578213D01*
X244278213Y-95689707D01*
X244278210Y-95689711D01*
X244190609Y-95820814D01*
X244190602Y-95820827D01*
X244130264Y-95966498D01*
X244130261Y-95966510D01*
X244099500Y-96121153D01*
X244099500Y-96278846D01*
X244130261Y-96433489D01*
X244130264Y-96433501D01*
X244190602Y-96579172D01*
X244190609Y-96579185D01*
X244278210Y-96710288D01*
X244278213Y-96710292D01*
X244389707Y-96821786D01*
X244389711Y-96821789D01*
X244520814Y-96909390D01*
X244520827Y-96909397D01*
X244666498Y-96969735D01*
X244666503Y-96969737D01*
X244731147Y-96982595D01*
X244821849Y-97000638D01*
X244883760Y-97033023D01*
X244885337Y-97034572D01*
X245831284Y-97980520D01*
X245831286Y-97980521D01*
X245831290Y-97980524D01*
X245940082Y-98043334D01*
X245968216Y-98059577D01*
X246120943Y-98100501D01*
X246120945Y-98100501D01*
X246286654Y-98100501D01*
X246286670Y-98100500D01*
X261363445Y-98100500D01*
X261430484Y-98120185D01*
X261476239Y-98172989D01*
X261486183Y-98242147D01*
X261481159Y-98260411D01*
X261482031Y-98260676D01*
X261480261Y-98266510D01*
X261449500Y-98421153D01*
X261449500Y-98578846D01*
X261480261Y-98733489D01*
X261482031Y-98739324D01*
X261479279Y-98740158D01*
X261485503Y-98797359D01*
X261454309Y-98859878D01*
X261394266Y-98895608D01*
X261363445Y-98899500D01*
X58586669Y-98899500D01*
X58586653Y-98899499D01*
X58579057Y-98899499D01*
X58420943Y-98899499D01*
X58313587Y-98928265D01*
X58268210Y-98940424D01*
X58268209Y-98940425D01*
X58218096Y-98969359D01*
X58218095Y-98969360D01*
X58178308Y-98992331D01*
X58131285Y-99019479D01*
X58131282Y-99019481D01*
X52885339Y-104265425D01*
X52824016Y-104298910D01*
X52821850Y-104299361D01*
X52666508Y-104330261D01*
X52666498Y-104330264D01*
X52520827Y-104390602D01*
X52520814Y-104390609D01*
X52389711Y-104478210D01*
X52389707Y-104478213D01*
X52278213Y-104589707D01*
X52278210Y-104589711D01*
X52190609Y-104720814D01*
X52190602Y-104720827D01*
X52130264Y-104866498D01*
X52130261Y-104866510D01*
X52099500Y-105021153D01*
X43040500Y-105021153D01*
X43040500Y-77948639D01*
X43049939Y-77901186D01*
X43065895Y-77862666D01*
X43100500Y-77688692D01*
X43100500Y-77511308D01*
X43065895Y-77337334D01*
X42998013Y-77173453D01*
X42998012Y-77173452D01*
X42998009Y-77173446D01*
X42899464Y-77025964D01*
X42899461Y-77025960D01*
X42774039Y-76900538D01*
X42774035Y-76900535D01*
X42626553Y-76801990D01*
X42626544Y-76801985D01*
X42462666Y-76734105D01*
X42462658Y-76734103D01*
X42288696Y-76699500D01*
X42288692Y-76699500D01*
X42111308Y-76699500D01*
X42111303Y-76699500D01*
X41937341Y-76734103D01*
X41937333Y-76734105D01*
X41773455Y-76801985D01*
X41625961Y-76900537D01*
X41625960Y-76900538D01*
X41440537Y-77085962D01*
X41440536Y-77085964D01*
X41434680Y-77094728D01*
X41341988Y-77233449D01*
X41317789Y-77291873D01*
X41298959Y-77337333D01*
X41274105Y-77397334D01*
X41246537Y-77535931D01*
X41246537Y-77535932D01*
X41239500Y-77571307D01*
X41239500Y-127139242D01*
X41230855Y-127168679D01*
X41224332Y-127198670D01*
X41220577Y-127203685D01*
X41219815Y-127206281D01*
X41203181Y-127226923D01*
X41203180Y-127226924D01*
X41146672Y-127283431D01*
X41085349Y-127316915D01*
X41015657Y-127311930D01*
X40959724Y-127270059D01*
X40942810Y-127239082D01*
X40893797Y-127107671D01*
X40893793Y-127107664D01*
X40807547Y-126992455D01*
X40807544Y-126992452D01*
X40692335Y-126906206D01*
X40692328Y-126906202D01*
X40557482Y-126855908D01*
X40557483Y-126855908D01*
X40497883Y-126849501D01*
X40497881Y-126849500D01*
X40497873Y-126849500D01*
X40497864Y-126849500D01*
X38702129Y-126849500D01*
X38702123Y-126849501D01*
X38642516Y-126855908D01*
X38507671Y-126906202D01*
X38507664Y-126906206D01*
X38392455Y-126992452D01*
X38392452Y-126992455D01*
X38306206Y-127107664D01*
X38306202Y-127107671D01*
X38255908Y-127242517D01*
X38249501Y-127302116D01*
X38249500Y-127302135D01*
X24300500Y-127302135D01*
X24300500Y-71502135D01*
X38249500Y-71502135D01*
X38249500Y-73297870D01*
X38249501Y-73297876D01*
X38255908Y-73357483D01*
X38306202Y-73492328D01*
X38306206Y-73492335D01*
X38392452Y-73607544D01*
X38392455Y-73607547D01*
X38507664Y-73693793D01*
X38507671Y-73693797D01*
X38642517Y-73744091D01*
X38642516Y-73744091D01*
X38649444Y-73744835D01*
X38702127Y-73750500D01*
X40497872Y-73750499D01*
X40557483Y-73744091D01*
X40692331Y-73693796D01*
X40807546Y-73607546D01*
X40893796Y-73492331D01*
X40942810Y-73360916D01*
X40984681Y-73304984D01*
X41050145Y-73280566D01*
X41118418Y-73295417D01*
X41146673Y-73316569D01*
X41260213Y-73430109D01*
X41432179Y-73555048D01*
X41432181Y-73555049D01*
X41432184Y-73555051D01*
X41621588Y-73651557D01*
X41823757Y-73717246D01*
X42033713Y-73750500D01*
X42033714Y-73750500D01*
X42246286Y-73750500D01*
X42246287Y-73750500D01*
X42456243Y-73717246D01*
X42658412Y-73651557D01*
X42847816Y-73555051D01*
X42934138Y-73492335D01*
X43019786Y-73430109D01*
X43019788Y-73430106D01*
X43019792Y-73430104D01*
X43170104Y-73279792D01*
X43170106Y-73279788D01*
X43170109Y-73279786D01*
X43295048Y-73107820D01*
X43295047Y-73107820D01*
X43295051Y-73107816D01*
X43391557Y-72918412D01*
X43457246Y-72716243D01*
X43490500Y-72506287D01*
X43490500Y-72293713D01*
X43457246Y-72083757D01*
X43391557Y-71881588D01*
X43295051Y-71692184D01*
X43295049Y-71692181D01*
X43295048Y-71692179D01*
X43170109Y-71520213D01*
X43019786Y-71369890D01*
X42847820Y-71244951D01*
X42658414Y-71148444D01*
X42658413Y-71148443D01*
X42658412Y-71148443D01*
X42456243Y-71082754D01*
X42456241Y-71082753D01*
X42456240Y-71082753D01*
X42294957Y-71057208D01*
X42246287Y-71049500D01*
X42033713Y-71049500D01*
X41985042Y-71057208D01*
X41823760Y-71082753D01*
X41621585Y-71148444D01*
X41432179Y-71244951D01*
X41260215Y-71369889D01*
X41146673Y-71483431D01*
X41085350Y-71516915D01*
X41015658Y-71511931D01*
X40959725Y-71470059D01*
X40942810Y-71439082D01*
X40893797Y-71307671D01*
X40893793Y-71307664D01*
X40807547Y-71192455D01*
X40807544Y-71192452D01*
X40692335Y-71106206D01*
X40692328Y-71106202D01*
X40557482Y-71055908D01*
X40557483Y-71055908D01*
X40497883Y-71049501D01*
X40497881Y-71049500D01*
X40497873Y-71049500D01*
X40497864Y-71049500D01*
X38702129Y-71049500D01*
X38702123Y-71049501D01*
X38642516Y-71055908D01*
X38507671Y-71106202D01*
X38507664Y-71106206D01*
X38392455Y-71192452D01*
X38392452Y-71192455D01*
X38306206Y-71307664D01*
X38306202Y-71307671D01*
X38255908Y-71442517D01*
X38249501Y-71502116D01*
X38249500Y-71502135D01*
X24300500Y-71502135D01*
X24300500Y-69749172D01*
X24320185Y-69682133D01*
X24372989Y-69636378D01*
X24424434Y-69625172D01*
X68193068Y-69602281D01*
X69836777Y-69601531D01*
X76699634Y-69600500D01*
X79934108Y-69600500D01*
X277175500Y-69600500D01*
X277242539Y-69620185D01*
G37*
%TD.AperFunction*%
%TD*%
M02*
