%TF.GenerationSoftware,KiCad,Pcbnew,9.0.7*%
%TF.CreationDate,2026-04-27T22:36:44+02:00*%
%TF.ProjectId,chessconnect_matrice,63686573-7363-46f6-9e6e-6563745f6d61,rev?*%
%TF.SameCoordinates,Original*%
%TF.FileFunction,Legend,Bot*%
%TF.FilePolarity,Positive*%
%FSLAX46Y46*%
G04 Gerber Fmt 4.6, Leading zero omitted, Abs format (unit mm)*
G04 Created by KiCad (PCBNEW 9.0.7) date 2026-04-27 22:36:44*
%MOMM*%
%LPD*%
G01*
G04 APERTURE LIST*
%ADD10C,0.150000*%
%ADD11C,0.120000*%
%ADD12C,0.250000*%
%ADD13C,0.060000*%
G04 APERTURE END LIST*
D10*
X36674819Y-127866666D02*
X37389104Y-127866666D01*
X37389104Y-127866666D02*
X37531961Y-127819047D01*
X37531961Y-127819047D02*
X37627200Y-127723809D01*
X37627200Y-127723809D02*
X37674819Y-127580952D01*
X37674819Y-127580952D02*
X37674819Y-127485714D01*
X36770057Y-128295238D02*
X36722438Y-128342857D01*
X36722438Y-128342857D02*
X36674819Y-128438095D01*
X36674819Y-128438095D02*
X36674819Y-128676190D01*
X36674819Y-128676190D02*
X36722438Y-128771428D01*
X36722438Y-128771428D02*
X36770057Y-128819047D01*
X36770057Y-128819047D02*
X36865295Y-128866666D01*
X36865295Y-128866666D02*
X36960533Y-128866666D01*
X36960533Y-128866666D02*
X37103390Y-128819047D01*
X37103390Y-128819047D02*
X37674819Y-128247619D01*
X37674819Y-128247619D02*
X37674819Y-128866666D01*
X36674819Y-72066666D02*
X37389104Y-72066666D01*
X37389104Y-72066666D02*
X37531961Y-72019047D01*
X37531961Y-72019047D02*
X37627200Y-71923809D01*
X37627200Y-71923809D02*
X37674819Y-71780952D01*
X37674819Y-71780952D02*
X37674819Y-71685714D01*
X36674819Y-72447619D02*
X36674819Y-73066666D01*
X36674819Y-73066666D02*
X37055771Y-72733333D01*
X37055771Y-72733333D02*
X37055771Y-72876190D01*
X37055771Y-72876190D02*
X37103390Y-72971428D01*
X37103390Y-72971428D02*
X37151009Y-73019047D01*
X37151009Y-73019047D02*
X37246247Y-73066666D01*
X37246247Y-73066666D02*
X37484342Y-73066666D01*
X37484342Y-73066666D02*
X37579580Y-73019047D01*
X37579580Y-73019047D02*
X37627200Y-72971428D01*
X37627200Y-72971428D02*
X37674819Y-72876190D01*
X37674819Y-72876190D02*
X37674819Y-72590476D01*
X37674819Y-72590476D02*
X37627200Y-72495238D01*
X37627200Y-72495238D02*
X37579580Y-72447619D01*
X275854819Y-99666666D02*
X276569104Y-99666666D01*
X276569104Y-99666666D02*
X276711961Y-99619047D01*
X276711961Y-99619047D02*
X276807200Y-99523809D01*
X276807200Y-99523809D02*
X276854819Y-99380952D01*
X276854819Y-99380952D02*
X276854819Y-99285714D01*
X275854819Y-100619047D02*
X275854819Y-100142857D01*
X275854819Y-100142857D02*
X276331009Y-100095238D01*
X276331009Y-100095238D02*
X276283390Y-100142857D01*
X276283390Y-100142857D02*
X276235771Y-100238095D01*
X276235771Y-100238095D02*
X276235771Y-100476190D01*
X276235771Y-100476190D02*
X276283390Y-100571428D01*
X276283390Y-100571428D02*
X276331009Y-100619047D01*
X276331009Y-100619047D02*
X276426247Y-100666666D01*
X276426247Y-100666666D02*
X276664342Y-100666666D01*
X276664342Y-100666666D02*
X276759580Y-100619047D01*
X276759580Y-100619047D02*
X276807200Y-100571428D01*
X276807200Y-100571428D02*
X276854819Y-100476190D01*
X276854819Y-100476190D02*
X276854819Y-100238095D01*
X276854819Y-100238095D02*
X276807200Y-100142857D01*
X276807200Y-100142857D02*
X276759580Y-100095238D01*
D11*
%TO.C,J2*%
X38220000Y-126820000D02*
X38220000Y-128200000D01*
X39600000Y-126820000D02*
X38220000Y-126820000D01*
X40870000Y-126820000D02*
X40870000Y-129580000D01*
X40870000Y-126820000D02*
X43520000Y-126820000D01*
X40870000Y-129580000D02*
X43520000Y-129580000D01*
X43520000Y-126820000D02*
X43520000Y-129580000D01*
%TO.C,J3*%
X38220000Y-71020000D02*
X38220000Y-72400000D01*
X39600000Y-71020000D02*
X38220000Y-71020000D01*
X40870000Y-71020000D02*
X40870000Y-73780000D01*
X40870000Y-71020000D02*
X43520000Y-71020000D01*
X40870000Y-73780000D02*
X43520000Y-73780000D01*
X43520000Y-71020000D02*
X43520000Y-73780000D01*
D12*
%TO.C,J5*%
X269470000Y-90480000D02*
X269720000Y-90740000D01*
X269720000Y-90740000D02*
X269980000Y-90480000D01*
X269980000Y-90480000D02*
X269470000Y-90480000D01*
X270150000Y-88550000D02*
X271220000Y-88550000D01*
X270150000Y-91020000D02*
X270150000Y-88600000D01*
X270150000Y-111450000D02*
X270150000Y-108980000D01*
X271060000Y-111450000D02*
X270150000Y-111450000D01*
X273380000Y-88550000D02*
X275350000Y-88550000D01*
X275350000Y-111450000D02*
X273230000Y-111450000D01*
X275350000Y-111450000D02*
X275350000Y-88550000D01*
D13*
X269340000Y-88550000D02*
G75*
G02*
X269280000Y-88550000I-30000J0D01*
G01*
X269280000Y-88550000D02*
G75*
G02*
X269340000Y-88550000I30000J0D01*
G01*
%TD*%
M02*
