M48
; DRILL file {KiCad 9.0.7} date 2026-04-21T21:17:20+0200
; FORMAT={-:-/ absolute / metric / decimal}
; #@! TF.CreationDate,2026-04-21T21:17:20+02:00
; #@! TF.GenerationSoftware,Kicad,Pcbnew,9.0.7
; #@! TF.FileFunction,Plated,1,2,PTH
FMAT,2
METRIC
; #@! TA.AperFunction,Plated,PTH,ViaDrill
T1C0.300
; #@! TA.AperFunction,Plated,PTH,ComponentDrill
T2C1.000
; #@! TA.AperFunction,Plated,PTH,ComponentDrill
T3C2.200
%
G90
G05
T1
X28.1Y-114.4
X28.6Y-83.0
X33.4Y-102.8
X37.8Y-122.5
X37.9Y-78.2
X42.14Y-90.2
X42.2Y-77.6
X45.2Y-125.2
X49.3Y-99.7
X52.9Y-105.1
X53.0Y-95.0
X57.2Y-116.7
X63.35Y-105.2
X64.0Y-95.0
X72.9Y-105.6
X76.3Y-125.0
X89.7Y-93.4
X90.2Y-116.8
X93.1Y-74.3
X98.5Y-126.7
X99.8Y-105.7
X115.4Y-86.1
X116.75Y-105.25
X117.0Y-95.1
X120.9Y-116.9
X126.9Y-127.0
X127.0Y-91.2
X127.5Y-95.0
X128.0Y-105.25
X129.3Y-87.5
X134.0Y-73.8
X144.2Y-107.5
X148.0Y-94.4
X149.6Y-84.6
X154.4Y-116.7
X155.5Y-87.5
X160.4Y-73.5
X162.6Y-125.5
X163.2Y-106.8
X178.0Y-84.6
X180.6Y-95.0
X181.0Y-105.25
X185.1Y-87.1
X185.9Y-109.7
X186.1Y-116.7
X192.25Y-105.25
X192.6Y-95.0
X202.1Y-72.5
X202.4Y-126.0
X208.3Y-108.8
X208.9Y-87.3
X215.7Y-84.7
X216.8Y-96.5
X217.9Y-117.1
X222.5Y-126.3
X233.0Y-72.7
X243.1Y-84.7
X244.9Y-96.2
X245.75Y-105.75
X247.4Y-110.0
X248.7Y-117.2
X249.1Y-87.2
X256.8Y-127.5
X257.75Y-106.5
X259.0Y-73.3
X262.25Y-98.5
X273.1Y-83.0
X276.0Y-117.9
X276.1Y-96.2
T2
X39.6Y-72.4
X39.6Y-128.2
X42.14Y-72.4
X42.14Y-128.2
X70.0Y-62.66
X70.0Y-65.2
X78.2Y-62.66
X78.2Y-65.2
T3
X28.8Y-74.2
X28.8Y-126.1
X110.1Y-74.3
X110.1Y-126.2
X191.4Y-74.3
X191.4Y-126.3
X272.8Y-74.0
X272.8Y-126.1
M30
