%TF.GenerationSoftware,KiCad,Pcbnew,9.0.7*%
%TF.CreationDate,2026-04-21T21:15:24+02:00*%
%TF.ProjectId,chessconnect_matrice,63686573-7363-46f6-9e6e-6563745f6d61,rev?*%
%TF.SameCoordinates,Original*%
%TF.FileFunction,Legend,Top*%
%TF.FilePolarity,Positive*%
%FSLAX46Y46*%
G04 Gerber Fmt 4.6, Leading zero omitted, Abs format (unit mm)*
G04 Created by KiCad (PCBNEW 9.0.7) date 2026-04-21 21:15:24*
%MOMM*%
%LPD*%
G01*
G04 APERTURE LIST*
%ADD10C,0.150000*%
%ADD11C,0.120000*%
G04 APERTURE END LIST*
D10*
X171257142Y-116859580D02*
X171209523Y-116907200D01*
X171209523Y-116907200D02*
X171066666Y-116954819D01*
X171066666Y-116954819D02*
X170971428Y-116954819D01*
X170971428Y-116954819D02*
X170828571Y-116907200D01*
X170828571Y-116907200D02*
X170733333Y-116811961D01*
X170733333Y-116811961D02*
X170685714Y-116716723D01*
X170685714Y-116716723D02*
X170638095Y-116526247D01*
X170638095Y-116526247D02*
X170638095Y-116383390D01*
X170638095Y-116383390D02*
X170685714Y-116192914D01*
X170685714Y-116192914D02*
X170733333Y-116097676D01*
X170733333Y-116097676D02*
X170828571Y-116002438D01*
X170828571Y-116002438D02*
X170971428Y-115954819D01*
X170971428Y-115954819D02*
X171066666Y-115954819D01*
X171066666Y-115954819D02*
X171209523Y-116002438D01*
X171209523Y-116002438D02*
X171257142Y-116050057D01*
X172209523Y-116954819D02*
X171638095Y-116954819D01*
X171923809Y-116954819D02*
X171923809Y-115954819D01*
X171923809Y-115954819D02*
X171828571Y-116097676D01*
X171828571Y-116097676D02*
X171733333Y-116192914D01*
X171733333Y-116192914D02*
X171638095Y-116240533D01*
X172590476Y-116050057D02*
X172638095Y-116002438D01*
X172638095Y-116002438D02*
X172733333Y-115954819D01*
X172733333Y-115954819D02*
X172971428Y-115954819D01*
X172971428Y-115954819D02*
X173066666Y-116002438D01*
X173066666Y-116002438D02*
X173114285Y-116050057D01*
X173114285Y-116050057D02*
X173161904Y-116145295D01*
X173161904Y-116145295D02*
X173161904Y-116240533D01*
X173161904Y-116240533D02*
X173114285Y-116383390D01*
X173114285Y-116383390D02*
X172542857Y-116954819D01*
X172542857Y-116954819D02*
X173161904Y-116954819D01*
X99261905Y-88254819D02*
X99261905Y-87254819D01*
X99261905Y-87254819D02*
X99500000Y-87254819D01*
X99500000Y-87254819D02*
X99642857Y-87302438D01*
X99642857Y-87302438D02*
X99738095Y-87397676D01*
X99738095Y-87397676D02*
X99785714Y-87492914D01*
X99785714Y-87492914D02*
X99833333Y-87683390D01*
X99833333Y-87683390D02*
X99833333Y-87826247D01*
X99833333Y-87826247D02*
X99785714Y-88016723D01*
X99785714Y-88016723D02*
X99738095Y-88111961D01*
X99738095Y-88111961D02*
X99642857Y-88207200D01*
X99642857Y-88207200D02*
X99500000Y-88254819D01*
X99500000Y-88254819D02*
X99261905Y-88254819D01*
X100166667Y-87254819D02*
X100785714Y-87254819D01*
X100785714Y-87254819D02*
X100452381Y-87635771D01*
X100452381Y-87635771D02*
X100595238Y-87635771D01*
X100595238Y-87635771D02*
X100690476Y-87683390D01*
X100690476Y-87683390D02*
X100738095Y-87731009D01*
X100738095Y-87731009D02*
X100785714Y-87826247D01*
X100785714Y-87826247D02*
X100785714Y-88064342D01*
X100785714Y-88064342D02*
X100738095Y-88159580D01*
X100738095Y-88159580D02*
X100690476Y-88207200D01*
X100690476Y-88207200D02*
X100595238Y-88254819D01*
X100595238Y-88254819D02*
X100309524Y-88254819D01*
X100309524Y-88254819D02*
X100214286Y-88207200D01*
X100214286Y-88207200D02*
X100166667Y-88159580D01*
X272038095Y-123404819D02*
X272038095Y-122404819D01*
X272038095Y-122881009D02*
X272609523Y-122881009D01*
X272609523Y-123404819D02*
X272609523Y-122404819D01*
X273228571Y-122833390D02*
X273133333Y-122785771D01*
X273133333Y-122785771D02*
X273085714Y-122738152D01*
X273085714Y-122738152D02*
X273038095Y-122642914D01*
X273038095Y-122642914D02*
X273038095Y-122595295D01*
X273038095Y-122595295D02*
X273085714Y-122500057D01*
X273085714Y-122500057D02*
X273133333Y-122452438D01*
X273133333Y-122452438D02*
X273228571Y-122404819D01*
X273228571Y-122404819D02*
X273419047Y-122404819D01*
X273419047Y-122404819D02*
X273514285Y-122452438D01*
X273514285Y-122452438D02*
X273561904Y-122500057D01*
X273561904Y-122500057D02*
X273609523Y-122595295D01*
X273609523Y-122595295D02*
X273609523Y-122642914D01*
X273609523Y-122642914D02*
X273561904Y-122738152D01*
X273561904Y-122738152D02*
X273514285Y-122785771D01*
X273514285Y-122785771D02*
X273419047Y-122833390D01*
X273419047Y-122833390D02*
X273228571Y-122833390D01*
X273228571Y-122833390D02*
X273133333Y-122881009D01*
X273133333Y-122881009D02*
X273085714Y-122928628D01*
X273085714Y-122928628D02*
X273038095Y-123023866D01*
X273038095Y-123023866D02*
X273038095Y-123214342D01*
X273038095Y-123214342D02*
X273085714Y-123309580D01*
X273085714Y-123309580D02*
X273133333Y-123357200D01*
X273133333Y-123357200D02*
X273228571Y-123404819D01*
X273228571Y-123404819D02*
X273419047Y-123404819D01*
X273419047Y-123404819D02*
X273514285Y-123357200D01*
X273514285Y-123357200D02*
X273561904Y-123309580D01*
X273561904Y-123309580D02*
X273609523Y-123214342D01*
X273609523Y-123214342D02*
X273609523Y-123023866D01*
X273609523Y-123023866D02*
X273561904Y-122928628D01*
X273561904Y-122928628D02*
X273514285Y-122881009D01*
X273514285Y-122881009D02*
X273419047Y-122833390D01*
X67461905Y-88254819D02*
X67461905Y-87254819D01*
X67461905Y-87254819D02*
X67700000Y-87254819D01*
X67700000Y-87254819D02*
X67842857Y-87302438D01*
X67842857Y-87302438D02*
X67938095Y-87397676D01*
X67938095Y-87397676D02*
X67985714Y-87492914D01*
X67985714Y-87492914D02*
X68033333Y-87683390D01*
X68033333Y-87683390D02*
X68033333Y-87826247D01*
X68033333Y-87826247D02*
X67985714Y-88016723D01*
X67985714Y-88016723D02*
X67938095Y-88111961D01*
X67938095Y-88111961D02*
X67842857Y-88207200D01*
X67842857Y-88207200D02*
X67700000Y-88254819D01*
X67700000Y-88254819D02*
X67461905Y-88254819D01*
X68414286Y-87350057D02*
X68461905Y-87302438D01*
X68461905Y-87302438D02*
X68557143Y-87254819D01*
X68557143Y-87254819D02*
X68795238Y-87254819D01*
X68795238Y-87254819D02*
X68890476Y-87302438D01*
X68890476Y-87302438D02*
X68938095Y-87350057D01*
X68938095Y-87350057D02*
X68985714Y-87445295D01*
X68985714Y-87445295D02*
X68985714Y-87540533D01*
X68985714Y-87540533D02*
X68938095Y-87683390D01*
X68938095Y-87683390D02*
X68366667Y-88254819D01*
X68366667Y-88254819D02*
X68985714Y-88254819D01*
X67185714Y-120054819D02*
X67185714Y-119054819D01*
X67185714Y-119054819D02*
X67423809Y-119054819D01*
X67423809Y-119054819D02*
X67566666Y-119102438D01*
X67566666Y-119102438D02*
X67661904Y-119197676D01*
X67661904Y-119197676D02*
X67709523Y-119292914D01*
X67709523Y-119292914D02*
X67757142Y-119483390D01*
X67757142Y-119483390D02*
X67757142Y-119626247D01*
X67757142Y-119626247D02*
X67709523Y-119816723D01*
X67709523Y-119816723D02*
X67661904Y-119911961D01*
X67661904Y-119911961D02*
X67566666Y-120007200D01*
X67566666Y-120007200D02*
X67423809Y-120054819D01*
X67423809Y-120054819D02*
X67185714Y-120054819D01*
X68709523Y-120054819D02*
X68138095Y-120054819D01*
X68423809Y-120054819D02*
X68423809Y-119054819D01*
X68423809Y-119054819D02*
X68328571Y-119197676D01*
X68328571Y-119197676D02*
X68233333Y-119292914D01*
X68233333Y-119292914D02*
X68138095Y-119340533D01*
X69614285Y-119054819D02*
X69138095Y-119054819D01*
X69138095Y-119054819D02*
X69090476Y-119531009D01*
X69090476Y-119531009D02*
X69138095Y-119483390D01*
X69138095Y-119483390D02*
X69233333Y-119435771D01*
X69233333Y-119435771D02*
X69471428Y-119435771D01*
X69471428Y-119435771D02*
X69566666Y-119483390D01*
X69566666Y-119483390D02*
X69614285Y-119531009D01*
X69614285Y-119531009D02*
X69661904Y-119626247D01*
X69661904Y-119626247D02*
X69661904Y-119864342D01*
X69661904Y-119864342D02*
X69614285Y-119959580D01*
X69614285Y-119959580D02*
X69566666Y-120007200D01*
X69566666Y-120007200D02*
X69471428Y-120054819D01*
X69471428Y-120054819D02*
X69233333Y-120054819D01*
X69233333Y-120054819D02*
X69138095Y-120007200D01*
X69138095Y-120007200D02*
X69090476Y-119959580D01*
X130785714Y-120054819D02*
X130785714Y-119054819D01*
X130785714Y-119054819D02*
X131023809Y-119054819D01*
X131023809Y-119054819D02*
X131166666Y-119102438D01*
X131166666Y-119102438D02*
X131261904Y-119197676D01*
X131261904Y-119197676D02*
X131309523Y-119292914D01*
X131309523Y-119292914D02*
X131357142Y-119483390D01*
X131357142Y-119483390D02*
X131357142Y-119626247D01*
X131357142Y-119626247D02*
X131309523Y-119816723D01*
X131309523Y-119816723D02*
X131261904Y-119911961D01*
X131261904Y-119911961D02*
X131166666Y-120007200D01*
X131166666Y-120007200D02*
X131023809Y-120054819D01*
X131023809Y-120054819D02*
X130785714Y-120054819D01*
X132309523Y-120054819D02*
X131738095Y-120054819D01*
X132023809Y-120054819D02*
X132023809Y-119054819D01*
X132023809Y-119054819D02*
X131928571Y-119197676D01*
X131928571Y-119197676D02*
X131833333Y-119292914D01*
X131833333Y-119292914D02*
X131738095Y-119340533D01*
X132642857Y-119054819D02*
X133261904Y-119054819D01*
X133261904Y-119054819D02*
X132928571Y-119435771D01*
X132928571Y-119435771D02*
X133071428Y-119435771D01*
X133071428Y-119435771D02*
X133166666Y-119483390D01*
X133166666Y-119483390D02*
X133214285Y-119531009D01*
X133214285Y-119531009D02*
X133261904Y-119626247D01*
X133261904Y-119626247D02*
X133261904Y-119864342D01*
X133261904Y-119864342D02*
X133214285Y-119959580D01*
X133214285Y-119959580D02*
X133166666Y-120007200D01*
X133166666Y-120007200D02*
X133071428Y-120054819D01*
X133071428Y-120054819D02*
X132785714Y-120054819D01*
X132785714Y-120054819D02*
X132690476Y-120007200D01*
X132690476Y-120007200D02*
X132642857Y-119959580D01*
X267583333Y-116949580D02*
X267535714Y-116997200D01*
X267535714Y-116997200D02*
X267392857Y-117044819D01*
X267392857Y-117044819D02*
X267297619Y-117044819D01*
X267297619Y-117044819D02*
X267154762Y-116997200D01*
X267154762Y-116997200D02*
X267059524Y-116901961D01*
X267059524Y-116901961D02*
X267011905Y-116806723D01*
X267011905Y-116806723D02*
X266964286Y-116616247D01*
X266964286Y-116616247D02*
X266964286Y-116473390D01*
X266964286Y-116473390D02*
X267011905Y-116282914D01*
X267011905Y-116282914D02*
X267059524Y-116187676D01*
X267059524Y-116187676D02*
X267154762Y-116092438D01*
X267154762Y-116092438D02*
X267297619Y-116044819D01*
X267297619Y-116044819D02*
X267392857Y-116044819D01*
X267392857Y-116044819D02*
X267535714Y-116092438D01*
X267535714Y-116092438D02*
X267583333Y-116140057D01*
X268059524Y-117044819D02*
X268250000Y-117044819D01*
X268250000Y-117044819D02*
X268345238Y-116997200D01*
X268345238Y-116997200D02*
X268392857Y-116949580D01*
X268392857Y-116949580D02*
X268488095Y-116806723D01*
X268488095Y-116806723D02*
X268535714Y-116616247D01*
X268535714Y-116616247D02*
X268535714Y-116235295D01*
X268535714Y-116235295D02*
X268488095Y-116140057D01*
X268488095Y-116140057D02*
X268440476Y-116092438D01*
X268440476Y-116092438D02*
X268345238Y-116044819D01*
X268345238Y-116044819D02*
X268154762Y-116044819D01*
X268154762Y-116044819D02*
X268059524Y-116092438D01*
X268059524Y-116092438D02*
X268011905Y-116140057D01*
X268011905Y-116140057D02*
X267964286Y-116235295D01*
X267964286Y-116235295D02*
X267964286Y-116473390D01*
X267964286Y-116473390D02*
X268011905Y-116568628D01*
X268011905Y-116568628D02*
X268059524Y-116616247D01*
X268059524Y-116616247D02*
X268154762Y-116663866D01*
X268154762Y-116663866D02*
X268345238Y-116663866D01*
X268345238Y-116663866D02*
X268440476Y-116616247D01*
X268440476Y-116616247D02*
X268488095Y-116568628D01*
X268488095Y-116568628D02*
X268535714Y-116473390D01*
X203515833Y-84949580D02*
X203468214Y-84997200D01*
X203468214Y-84997200D02*
X203325357Y-85044819D01*
X203325357Y-85044819D02*
X203230119Y-85044819D01*
X203230119Y-85044819D02*
X203087262Y-84997200D01*
X203087262Y-84997200D02*
X202992024Y-84901961D01*
X202992024Y-84901961D02*
X202944405Y-84806723D01*
X202944405Y-84806723D02*
X202896786Y-84616247D01*
X202896786Y-84616247D02*
X202896786Y-84473390D01*
X202896786Y-84473390D02*
X202944405Y-84282914D01*
X202944405Y-84282914D02*
X202992024Y-84187676D01*
X202992024Y-84187676D02*
X203087262Y-84092438D01*
X203087262Y-84092438D02*
X203230119Y-84044819D01*
X203230119Y-84044819D02*
X203325357Y-84044819D01*
X203325357Y-84044819D02*
X203468214Y-84092438D01*
X203468214Y-84092438D02*
X203515833Y-84140057D01*
X204372976Y-84044819D02*
X204182500Y-84044819D01*
X204182500Y-84044819D02*
X204087262Y-84092438D01*
X204087262Y-84092438D02*
X204039643Y-84140057D01*
X204039643Y-84140057D02*
X203944405Y-84282914D01*
X203944405Y-84282914D02*
X203896786Y-84473390D01*
X203896786Y-84473390D02*
X203896786Y-84854342D01*
X203896786Y-84854342D02*
X203944405Y-84949580D01*
X203944405Y-84949580D02*
X203992024Y-84997200D01*
X203992024Y-84997200D02*
X204087262Y-85044819D01*
X204087262Y-85044819D02*
X204277738Y-85044819D01*
X204277738Y-85044819D02*
X204372976Y-84997200D01*
X204372976Y-84997200D02*
X204420595Y-84949580D01*
X204420595Y-84949580D02*
X204468214Y-84854342D01*
X204468214Y-84854342D02*
X204468214Y-84616247D01*
X204468214Y-84616247D02*
X204420595Y-84521009D01*
X204420595Y-84521009D02*
X204372976Y-84473390D01*
X204372976Y-84473390D02*
X204277738Y-84425771D01*
X204277738Y-84425771D02*
X204087262Y-84425771D01*
X204087262Y-84425771D02*
X203992024Y-84473390D01*
X203992024Y-84473390D02*
X203944405Y-84521009D01*
X203944405Y-84521009D02*
X203896786Y-84616247D01*
X75515833Y-84949580D02*
X75468214Y-84997200D01*
X75468214Y-84997200D02*
X75325357Y-85044819D01*
X75325357Y-85044819D02*
X75230119Y-85044819D01*
X75230119Y-85044819D02*
X75087262Y-84997200D01*
X75087262Y-84997200D02*
X74992024Y-84901961D01*
X74992024Y-84901961D02*
X74944405Y-84806723D01*
X74944405Y-84806723D02*
X74896786Y-84616247D01*
X74896786Y-84616247D02*
X74896786Y-84473390D01*
X74896786Y-84473390D02*
X74944405Y-84282914D01*
X74944405Y-84282914D02*
X74992024Y-84187676D01*
X74992024Y-84187676D02*
X75087262Y-84092438D01*
X75087262Y-84092438D02*
X75230119Y-84044819D01*
X75230119Y-84044819D02*
X75325357Y-84044819D01*
X75325357Y-84044819D02*
X75468214Y-84092438D01*
X75468214Y-84092438D02*
X75515833Y-84140057D01*
X75896786Y-84140057D02*
X75944405Y-84092438D01*
X75944405Y-84092438D02*
X76039643Y-84044819D01*
X76039643Y-84044819D02*
X76277738Y-84044819D01*
X76277738Y-84044819D02*
X76372976Y-84092438D01*
X76372976Y-84092438D02*
X76420595Y-84140057D01*
X76420595Y-84140057D02*
X76468214Y-84235295D01*
X76468214Y-84235295D02*
X76468214Y-84330533D01*
X76468214Y-84330533D02*
X76420595Y-84473390D01*
X76420595Y-84473390D02*
X75849167Y-85044819D01*
X75849167Y-85044819D02*
X76468214Y-85044819D01*
X109338095Y-123504819D02*
X109338095Y-122504819D01*
X109338095Y-122981009D02*
X109909523Y-122981009D01*
X109909523Y-123504819D02*
X109909523Y-122504819D01*
X110814285Y-122838152D02*
X110814285Y-123504819D01*
X110576190Y-122457200D02*
X110338095Y-123171485D01*
X110338095Y-123171485D02*
X110957142Y-123171485D01*
X227861905Y-88254819D02*
X227861905Y-87254819D01*
X227861905Y-87254819D02*
X228100000Y-87254819D01*
X228100000Y-87254819D02*
X228242857Y-87302438D01*
X228242857Y-87302438D02*
X228338095Y-87397676D01*
X228338095Y-87397676D02*
X228385714Y-87492914D01*
X228385714Y-87492914D02*
X228433333Y-87683390D01*
X228433333Y-87683390D02*
X228433333Y-87826247D01*
X228433333Y-87826247D02*
X228385714Y-88016723D01*
X228385714Y-88016723D02*
X228338095Y-88111961D01*
X228338095Y-88111961D02*
X228242857Y-88207200D01*
X228242857Y-88207200D02*
X228100000Y-88254819D01*
X228100000Y-88254819D02*
X227861905Y-88254819D01*
X228766667Y-87254819D02*
X229433333Y-87254819D01*
X229433333Y-87254819D02*
X229004762Y-88254819D01*
X250761905Y-101706819D02*
X251333333Y-101706819D01*
X251047619Y-102706819D02*
X251047619Y-101706819D01*
X252190476Y-102706819D02*
X251619048Y-102706819D01*
X251904762Y-102706819D02*
X251904762Y-101706819D01*
X251904762Y-101706819D02*
X251809524Y-101849676D01*
X251809524Y-101849676D02*
X251714286Y-101944914D01*
X251714286Y-101944914D02*
X251619048Y-101992533D01*
X253047619Y-101706819D02*
X252857143Y-101706819D01*
X252857143Y-101706819D02*
X252761905Y-101754438D01*
X252761905Y-101754438D02*
X252714286Y-101802057D01*
X252714286Y-101802057D02*
X252619048Y-101944914D01*
X252619048Y-101944914D02*
X252571429Y-102135390D01*
X252571429Y-102135390D02*
X252571429Y-102516342D01*
X252571429Y-102516342D02*
X252619048Y-102611580D01*
X252619048Y-102611580D02*
X252666667Y-102659200D01*
X252666667Y-102659200D02*
X252761905Y-102706819D01*
X252761905Y-102706819D02*
X252952381Y-102706819D01*
X252952381Y-102706819D02*
X253047619Y-102659200D01*
X253047619Y-102659200D02*
X253095238Y-102611580D01*
X253095238Y-102611580D02*
X253142857Y-102516342D01*
X253142857Y-102516342D02*
X253142857Y-102278247D01*
X253142857Y-102278247D02*
X253095238Y-102183009D01*
X253095238Y-102183009D02*
X253047619Y-102135390D01*
X253047619Y-102135390D02*
X252952381Y-102087771D01*
X252952381Y-102087771D02*
X252761905Y-102087771D01*
X252761905Y-102087771D02*
X252666667Y-102135390D01*
X252666667Y-102135390D02*
X252619048Y-102183009D01*
X252619048Y-102183009D02*
X252571429Y-102278247D01*
X240838095Y-91556819D02*
X241409523Y-91556819D01*
X241123809Y-92556819D02*
X241123809Y-91556819D01*
X241647619Y-91556819D02*
X242314285Y-91556819D01*
X242314285Y-91556819D02*
X241885714Y-92556819D01*
X107515833Y-84949580D02*
X107468214Y-84997200D01*
X107468214Y-84997200D02*
X107325357Y-85044819D01*
X107325357Y-85044819D02*
X107230119Y-85044819D01*
X107230119Y-85044819D02*
X107087262Y-84997200D01*
X107087262Y-84997200D02*
X106992024Y-84901961D01*
X106992024Y-84901961D02*
X106944405Y-84806723D01*
X106944405Y-84806723D02*
X106896786Y-84616247D01*
X106896786Y-84616247D02*
X106896786Y-84473390D01*
X106896786Y-84473390D02*
X106944405Y-84282914D01*
X106944405Y-84282914D02*
X106992024Y-84187676D01*
X106992024Y-84187676D02*
X107087262Y-84092438D01*
X107087262Y-84092438D02*
X107230119Y-84044819D01*
X107230119Y-84044819D02*
X107325357Y-84044819D01*
X107325357Y-84044819D02*
X107468214Y-84092438D01*
X107468214Y-84092438D02*
X107515833Y-84140057D01*
X107849167Y-84044819D02*
X108468214Y-84044819D01*
X108468214Y-84044819D02*
X108134881Y-84425771D01*
X108134881Y-84425771D02*
X108277738Y-84425771D01*
X108277738Y-84425771D02*
X108372976Y-84473390D01*
X108372976Y-84473390D02*
X108420595Y-84521009D01*
X108420595Y-84521009D02*
X108468214Y-84616247D01*
X108468214Y-84616247D02*
X108468214Y-84854342D01*
X108468214Y-84854342D02*
X108420595Y-84949580D01*
X108420595Y-84949580D02*
X108372976Y-84997200D01*
X108372976Y-84997200D02*
X108277738Y-85044819D01*
X108277738Y-85044819D02*
X107992024Y-85044819D01*
X107992024Y-85044819D02*
X107896786Y-84997200D01*
X107896786Y-84997200D02*
X107849167Y-84949580D01*
X163461905Y-88254819D02*
X163461905Y-87254819D01*
X163461905Y-87254819D02*
X163700000Y-87254819D01*
X163700000Y-87254819D02*
X163842857Y-87302438D01*
X163842857Y-87302438D02*
X163938095Y-87397676D01*
X163938095Y-87397676D02*
X163985714Y-87492914D01*
X163985714Y-87492914D02*
X164033333Y-87683390D01*
X164033333Y-87683390D02*
X164033333Y-87826247D01*
X164033333Y-87826247D02*
X163985714Y-88016723D01*
X163985714Y-88016723D02*
X163938095Y-88111961D01*
X163938095Y-88111961D02*
X163842857Y-88207200D01*
X163842857Y-88207200D02*
X163700000Y-88254819D01*
X163700000Y-88254819D02*
X163461905Y-88254819D01*
X164938095Y-87254819D02*
X164461905Y-87254819D01*
X164461905Y-87254819D02*
X164414286Y-87731009D01*
X164414286Y-87731009D02*
X164461905Y-87683390D01*
X164461905Y-87683390D02*
X164557143Y-87635771D01*
X164557143Y-87635771D02*
X164795238Y-87635771D01*
X164795238Y-87635771D02*
X164890476Y-87683390D01*
X164890476Y-87683390D02*
X164938095Y-87731009D01*
X164938095Y-87731009D02*
X164985714Y-87826247D01*
X164985714Y-87826247D02*
X164985714Y-88064342D01*
X164985714Y-88064342D02*
X164938095Y-88159580D01*
X164938095Y-88159580D02*
X164890476Y-88207200D01*
X164890476Y-88207200D02*
X164795238Y-88254819D01*
X164795238Y-88254819D02*
X164557143Y-88254819D01*
X164557143Y-88254819D02*
X164461905Y-88207200D01*
X164461905Y-88207200D02*
X164414286Y-88159580D01*
X48838095Y-101706819D02*
X49409523Y-101706819D01*
X49123809Y-102706819D02*
X49123809Y-101706819D01*
X49790476Y-102706819D02*
X49980952Y-102706819D01*
X49980952Y-102706819D02*
X50076190Y-102659200D01*
X50076190Y-102659200D02*
X50123809Y-102611580D01*
X50123809Y-102611580D02*
X50219047Y-102468723D01*
X50219047Y-102468723D02*
X50266666Y-102278247D01*
X50266666Y-102278247D02*
X50266666Y-101897295D01*
X50266666Y-101897295D02*
X50219047Y-101802057D01*
X50219047Y-101802057D02*
X50171428Y-101754438D01*
X50171428Y-101754438D02*
X50076190Y-101706819D01*
X50076190Y-101706819D02*
X49885714Y-101706819D01*
X49885714Y-101706819D02*
X49790476Y-101754438D01*
X49790476Y-101754438D02*
X49742857Y-101802057D01*
X49742857Y-101802057D02*
X49695238Y-101897295D01*
X49695238Y-101897295D02*
X49695238Y-102135390D01*
X49695238Y-102135390D02*
X49742857Y-102230628D01*
X49742857Y-102230628D02*
X49790476Y-102278247D01*
X49790476Y-102278247D02*
X49885714Y-102325866D01*
X49885714Y-102325866D02*
X50076190Y-102325866D01*
X50076190Y-102325866D02*
X50171428Y-102278247D01*
X50171428Y-102278247D02*
X50219047Y-102230628D01*
X50219047Y-102230628D02*
X50266666Y-102135390D01*
X235457142Y-116759580D02*
X235409523Y-116807200D01*
X235409523Y-116807200D02*
X235266666Y-116854819D01*
X235266666Y-116854819D02*
X235171428Y-116854819D01*
X235171428Y-116854819D02*
X235028571Y-116807200D01*
X235028571Y-116807200D02*
X234933333Y-116711961D01*
X234933333Y-116711961D02*
X234885714Y-116616723D01*
X234885714Y-116616723D02*
X234838095Y-116426247D01*
X234838095Y-116426247D02*
X234838095Y-116283390D01*
X234838095Y-116283390D02*
X234885714Y-116092914D01*
X234885714Y-116092914D02*
X234933333Y-115997676D01*
X234933333Y-115997676D02*
X235028571Y-115902438D01*
X235028571Y-115902438D02*
X235171428Y-115854819D01*
X235171428Y-115854819D02*
X235266666Y-115854819D01*
X235266666Y-115854819D02*
X235409523Y-115902438D01*
X235409523Y-115902438D02*
X235457142Y-115950057D01*
X236409523Y-116854819D02*
X235838095Y-116854819D01*
X236123809Y-116854819D02*
X236123809Y-115854819D01*
X236123809Y-115854819D02*
X236028571Y-115997676D01*
X236028571Y-115997676D02*
X235933333Y-116092914D01*
X235933333Y-116092914D02*
X235838095Y-116140533D01*
X237028571Y-115854819D02*
X237123809Y-115854819D01*
X237123809Y-115854819D02*
X237219047Y-115902438D01*
X237219047Y-115902438D02*
X237266666Y-115950057D01*
X237266666Y-115950057D02*
X237314285Y-116045295D01*
X237314285Y-116045295D02*
X237361904Y-116235771D01*
X237361904Y-116235771D02*
X237361904Y-116473866D01*
X237361904Y-116473866D02*
X237314285Y-116664342D01*
X237314285Y-116664342D02*
X237266666Y-116759580D01*
X237266666Y-116759580D02*
X237219047Y-116807200D01*
X237219047Y-116807200D02*
X237123809Y-116854819D01*
X237123809Y-116854819D02*
X237028571Y-116854819D01*
X237028571Y-116854819D02*
X236933333Y-116807200D01*
X236933333Y-116807200D02*
X236885714Y-116759580D01*
X236885714Y-116759580D02*
X236838095Y-116664342D01*
X236838095Y-116664342D02*
X236790476Y-116473866D01*
X236790476Y-116473866D02*
X236790476Y-116235771D01*
X236790476Y-116235771D02*
X236838095Y-116045295D01*
X236838095Y-116045295D02*
X236885714Y-115950057D01*
X236885714Y-115950057D02*
X236933333Y-115902438D01*
X236933333Y-115902438D02*
X237028571Y-115854819D01*
X38061905Y-88054819D02*
X38061905Y-87054819D01*
X38061905Y-87054819D02*
X38300000Y-87054819D01*
X38300000Y-87054819D02*
X38442857Y-87102438D01*
X38442857Y-87102438D02*
X38538095Y-87197676D01*
X38538095Y-87197676D02*
X38585714Y-87292914D01*
X38585714Y-87292914D02*
X38633333Y-87483390D01*
X38633333Y-87483390D02*
X38633333Y-87626247D01*
X38633333Y-87626247D02*
X38585714Y-87816723D01*
X38585714Y-87816723D02*
X38538095Y-87911961D01*
X38538095Y-87911961D02*
X38442857Y-88007200D01*
X38442857Y-88007200D02*
X38300000Y-88054819D01*
X38300000Y-88054819D02*
X38061905Y-88054819D01*
X39585714Y-88054819D02*
X39014286Y-88054819D01*
X39300000Y-88054819D02*
X39300000Y-87054819D01*
X39300000Y-87054819D02*
X39204762Y-87197676D01*
X39204762Y-87197676D02*
X39109524Y-87292914D01*
X39109524Y-87292914D02*
X39014286Y-87340533D01*
X131461905Y-88254819D02*
X131461905Y-87254819D01*
X131461905Y-87254819D02*
X131700000Y-87254819D01*
X131700000Y-87254819D02*
X131842857Y-87302438D01*
X131842857Y-87302438D02*
X131938095Y-87397676D01*
X131938095Y-87397676D02*
X131985714Y-87492914D01*
X131985714Y-87492914D02*
X132033333Y-87683390D01*
X132033333Y-87683390D02*
X132033333Y-87826247D01*
X132033333Y-87826247D02*
X131985714Y-88016723D01*
X131985714Y-88016723D02*
X131938095Y-88111961D01*
X131938095Y-88111961D02*
X131842857Y-88207200D01*
X131842857Y-88207200D02*
X131700000Y-88254819D01*
X131700000Y-88254819D02*
X131461905Y-88254819D01*
X132890476Y-87588152D02*
X132890476Y-88254819D01*
X132652381Y-87207200D02*
X132414286Y-87921485D01*
X132414286Y-87921485D02*
X133033333Y-87921485D01*
X99185714Y-120054819D02*
X99185714Y-119054819D01*
X99185714Y-119054819D02*
X99423809Y-119054819D01*
X99423809Y-119054819D02*
X99566666Y-119102438D01*
X99566666Y-119102438D02*
X99661904Y-119197676D01*
X99661904Y-119197676D02*
X99709523Y-119292914D01*
X99709523Y-119292914D02*
X99757142Y-119483390D01*
X99757142Y-119483390D02*
X99757142Y-119626247D01*
X99757142Y-119626247D02*
X99709523Y-119816723D01*
X99709523Y-119816723D02*
X99661904Y-119911961D01*
X99661904Y-119911961D02*
X99566666Y-120007200D01*
X99566666Y-120007200D02*
X99423809Y-120054819D01*
X99423809Y-120054819D02*
X99185714Y-120054819D01*
X100709523Y-120054819D02*
X100138095Y-120054819D01*
X100423809Y-120054819D02*
X100423809Y-119054819D01*
X100423809Y-119054819D02*
X100328571Y-119197676D01*
X100328571Y-119197676D02*
X100233333Y-119292914D01*
X100233333Y-119292914D02*
X100138095Y-119340533D01*
X101566666Y-119388152D02*
X101566666Y-120054819D01*
X101328571Y-119007200D02*
X101090476Y-119721485D01*
X101090476Y-119721485D02*
X101709523Y-119721485D01*
X37585714Y-120054819D02*
X37585714Y-119054819D01*
X37585714Y-119054819D02*
X37823809Y-119054819D01*
X37823809Y-119054819D02*
X37966666Y-119102438D01*
X37966666Y-119102438D02*
X38061904Y-119197676D01*
X38061904Y-119197676D02*
X38109523Y-119292914D01*
X38109523Y-119292914D02*
X38157142Y-119483390D01*
X38157142Y-119483390D02*
X38157142Y-119626247D01*
X38157142Y-119626247D02*
X38109523Y-119816723D01*
X38109523Y-119816723D02*
X38061904Y-119911961D01*
X38061904Y-119911961D02*
X37966666Y-120007200D01*
X37966666Y-120007200D02*
X37823809Y-120054819D01*
X37823809Y-120054819D02*
X37585714Y-120054819D01*
X39109523Y-120054819D02*
X38538095Y-120054819D01*
X38823809Y-120054819D02*
X38823809Y-119054819D01*
X38823809Y-119054819D02*
X38728571Y-119197676D01*
X38728571Y-119197676D02*
X38633333Y-119292914D01*
X38633333Y-119292914D02*
X38538095Y-119340533D01*
X39966666Y-119054819D02*
X39776190Y-119054819D01*
X39776190Y-119054819D02*
X39680952Y-119102438D01*
X39680952Y-119102438D02*
X39633333Y-119150057D01*
X39633333Y-119150057D02*
X39538095Y-119292914D01*
X39538095Y-119292914D02*
X39490476Y-119483390D01*
X39490476Y-119483390D02*
X39490476Y-119864342D01*
X39490476Y-119864342D02*
X39538095Y-119959580D01*
X39538095Y-119959580D02*
X39585714Y-120007200D01*
X39585714Y-120007200D02*
X39680952Y-120054819D01*
X39680952Y-120054819D02*
X39871428Y-120054819D01*
X39871428Y-120054819D02*
X39966666Y-120007200D01*
X39966666Y-120007200D02*
X40014285Y-119959580D01*
X40014285Y-119959580D02*
X40061904Y-119864342D01*
X40061904Y-119864342D02*
X40061904Y-119626247D01*
X40061904Y-119626247D02*
X40014285Y-119531009D01*
X40014285Y-119531009D02*
X39966666Y-119483390D01*
X39966666Y-119483390D02*
X39871428Y-119435771D01*
X39871428Y-119435771D02*
X39680952Y-119435771D01*
X39680952Y-119435771D02*
X39585714Y-119483390D01*
X39585714Y-119483390D02*
X39538095Y-119531009D01*
X39538095Y-119531009D02*
X39490476Y-119626247D01*
X186761905Y-101806819D02*
X187333333Y-101806819D01*
X187047619Y-102806819D02*
X187047619Y-101806819D01*
X188190476Y-102806819D02*
X187619048Y-102806819D01*
X187904762Y-102806819D02*
X187904762Y-101806819D01*
X187904762Y-101806819D02*
X187809524Y-101949676D01*
X187809524Y-101949676D02*
X187714286Y-102044914D01*
X187714286Y-102044914D02*
X187619048Y-102092533D01*
X189047619Y-102140152D02*
X189047619Y-102806819D01*
X188809524Y-101759200D02*
X188571429Y-102473485D01*
X188571429Y-102473485D02*
X189190476Y-102473485D01*
X240361905Y-101806819D02*
X240933333Y-101806819D01*
X240647619Y-102806819D02*
X240647619Y-101806819D01*
X241790476Y-102806819D02*
X241219048Y-102806819D01*
X241504762Y-102806819D02*
X241504762Y-101806819D01*
X241504762Y-101806819D02*
X241409524Y-101949676D01*
X241409524Y-101949676D02*
X241314286Y-102044914D01*
X241314286Y-102044914D02*
X241219048Y-102092533D01*
X242695238Y-101806819D02*
X242219048Y-101806819D01*
X242219048Y-101806819D02*
X242171429Y-102283009D01*
X242171429Y-102283009D02*
X242219048Y-102235390D01*
X242219048Y-102235390D02*
X242314286Y-102187771D01*
X242314286Y-102187771D02*
X242552381Y-102187771D01*
X242552381Y-102187771D02*
X242647619Y-102235390D01*
X242647619Y-102235390D02*
X242695238Y-102283009D01*
X242695238Y-102283009D02*
X242742857Y-102378247D01*
X242742857Y-102378247D02*
X242742857Y-102616342D01*
X242742857Y-102616342D02*
X242695238Y-102711580D01*
X242695238Y-102711580D02*
X242647619Y-102759200D01*
X242647619Y-102759200D02*
X242552381Y-102806819D01*
X242552381Y-102806819D02*
X242314286Y-102806819D01*
X242314286Y-102806819D02*
X242219048Y-102759200D01*
X242219048Y-102759200D02*
X242171429Y-102711580D01*
X112938095Y-91556819D02*
X113509523Y-91556819D01*
X113223809Y-92556819D02*
X113223809Y-91556819D01*
X113747619Y-91556819D02*
X114366666Y-91556819D01*
X114366666Y-91556819D02*
X114033333Y-91937771D01*
X114033333Y-91937771D02*
X114176190Y-91937771D01*
X114176190Y-91937771D02*
X114271428Y-91985390D01*
X114271428Y-91985390D02*
X114319047Y-92033009D01*
X114319047Y-92033009D02*
X114366666Y-92128247D01*
X114366666Y-92128247D02*
X114366666Y-92366342D01*
X114366666Y-92366342D02*
X114319047Y-92461580D01*
X114319047Y-92461580D02*
X114271428Y-92509200D01*
X114271428Y-92509200D02*
X114176190Y-92556819D01*
X114176190Y-92556819D02*
X113890476Y-92556819D01*
X113890476Y-92556819D02*
X113795238Y-92509200D01*
X113795238Y-92509200D02*
X113747619Y-92461580D01*
X267515833Y-84949580D02*
X267468214Y-84997200D01*
X267468214Y-84997200D02*
X267325357Y-85044819D01*
X267325357Y-85044819D02*
X267230119Y-85044819D01*
X267230119Y-85044819D02*
X267087262Y-84997200D01*
X267087262Y-84997200D02*
X266992024Y-84901961D01*
X266992024Y-84901961D02*
X266944405Y-84806723D01*
X266944405Y-84806723D02*
X266896786Y-84616247D01*
X266896786Y-84616247D02*
X266896786Y-84473390D01*
X266896786Y-84473390D02*
X266944405Y-84282914D01*
X266944405Y-84282914D02*
X266992024Y-84187676D01*
X266992024Y-84187676D02*
X267087262Y-84092438D01*
X267087262Y-84092438D02*
X267230119Y-84044819D01*
X267230119Y-84044819D02*
X267325357Y-84044819D01*
X267325357Y-84044819D02*
X267468214Y-84092438D01*
X267468214Y-84092438D02*
X267515833Y-84140057D01*
X268087262Y-84473390D02*
X267992024Y-84425771D01*
X267992024Y-84425771D02*
X267944405Y-84378152D01*
X267944405Y-84378152D02*
X267896786Y-84282914D01*
X267896786Y-84282914D02*
X267896786Y-84235295D01*
X267896786Y-84235295D02*
X267944405Y-84140057D01*
X267944405Y-84140057D02*
X267992024Y-84092438D01*
X267992024Y-84092438D02*
X268087262Y-84044819D01*
X268087262Y-84044819D02*
X268277738Y-84044819D01*
X268277738Y-84044819D02*
X268372976Y-84092438D01*
X268372976Y-84092438D02*
X268420595Y-84140057D01*
X268420595Y-84140057D02*
X268468214Y-84235295D01*
X268468214Y-84235295D02*
X268468214Y-84282914D01*
X268468214Y-84282914D02*
X268420595Y-84378152D01*
X268420595Y-84378152D02*
X268372976Y-84425771D01*
X268372976Y-84425771D02*
X268277738Y-84473390D01*
X268277738Y-84473390D02*
X268087262Y-84473390D01*
X268087262Y-84473390D02*
X267992024Y-84521009D01*
X267992024Y-84521009D02*
X267944405Y-84568628D01*
X267944405Y-84568628D02*
X267896786Y-84663866D01*
X267896786Y-84663866D02*
X267896786Y-84854342D01*
X267896786Y-84854342D02*
X267944405Y-84949580D01*
X267944405Y-84949580D02*
X267992024Y-84997200D01*
X267992024Y-84997200D02*
X268087262Y-85044819D01*
X268087262Y-85044819D02*
X268277738Y-85044819D01*
X268277738Y-85044819D02*
X268372976Y-84997200D01*
X268372976Y-84997200D02*
X268420595Y-84949580D01*
X268420595Y-84949580D02*
X268468214Y-84854342D01*
X268468214Y-84854342D02*
X268468214Y-84663866D01*
X268468214Y-84663866D02*
X268420595Y-84568628D01*
X268420595Y-84568628D02*
X268372976Y-84521009D01*
X268372976Y-84521009D02*
X268277738Y-84473390D01*
X226985714Y-120054819D02*
X226985714Y-119054819D01*
X226985714Y-119054819D02*
X227223809Y-119054819D01*
X227223809Y-119054819D02*
X227366666Y-119102438D01*
X227366666Y-119102438D02*
X227461904Y-119197676D01*
X227461904Y-119197676D02*
X227509523Y-119292914D01*
X227509523Y-119292914D02*
X227557142Y-119483390D01*
X227557142Y-119483390D02*
X227557142Y-119626247D01*
X227557142Y-119626247D02*
X227509523Y-119816723D01*
X227509523Y-119816723D02*
X227461904Y-119911961D01*
X227461904Y-119911961D02*
X227366666Y-120007200D01*
X227366666Y-120007200D02*
X227223809Y-120054819D01*
X227223809Y-120054819D02*
X226985714Y-120054819D01*
X228509523Y-120054819D02*
X227938095Y-120054819D01*
X228223809Y-120054819D02*
X228223809Y-119054819D01*
X228223809Y-119054819D02*
X228128571Y-119197676D01*
X228128571Y-119197676D02*
X228033333Y-119292914D01*
X228033333Y-119292914D02*
X227938095Y-119340533D01*
X229128571Y-119054819D02*
X229223809Y-119054819D01*
X229223809Y-119054819D02*
X229319047Y-119102438D01*
X229319047Y-119102438D02*
X229366666Y-119150057D01*
X229366666Y-119150057D02*
X229414285Y-119245295D01*
X229414285Y-119245295D02*
X229461904Y-119435771D01*
X229461904Y-119435771D02*
X229461904Y-119673866D01*
X229461904Y-119673866D02*
X229414285Y-119864342D01*
X229414285Y-119864342D02*
X229366666Y-119959580D01*
X229366666Y-119959580D02*
X229319047Y-120007200D01*
X229319047Y-120007200D02*
X229223809Y-120054819D01*
X229223809Y-120054819D02*
X229128571Y-120054819D01*
X229128571Y-120054819D02*
X229033333Y-120007200D01*
X229033333Y-120007200D02*
X228985714Y-119959580D01*
X228985714Y-119959580D02*
X228938095Y-119864342D01*
X228938095Y-119864342D02*
X228890476Y-119673866D01*
X228890476Y-119673866D02*
X228890476Y-119435771D01*
X228890476Y-119435771D02*
X228938095Y-119245295D01*
X228938095Y-119245295D02*
X228985714Y-119150057D01*
X228985714Y-119150057D02*
X229033333Y-119102438D01*
X229033333Y-119102438D02*
X229128571Y-119054819D01*
X190638095Y-71604819D02*
X190638095Y-70604819D01*
X190638095Y-71081009D02*
X191209523Y-71081009D01*
X191209523Y-71604819D02*
X191209523Y-70604819D01*
X192161904Y-70604819D02*
X191685714Y-70604819D01*
X191685714Y-70604819D02*
X191638095Y-71081009D01*
X191638095Y-71081009D02*
X191685714Y-71033390D01*
X191685714Y-71033390D02*
X191780952Y-70985771D01*
X191780952Y-70985771D02*
X192019047Y-70985771D01*
X192019047Y-70985771D02*
X192114285Y-71033390D01*
X192114285Y-71033390D02*
X192161904Y-71081009D01*
X192161904Y-71081009D02*
X192209523Y-71176247D01*
X192209523Y-71176247D02*
X192209523Y-71414342D01*
X192209523Y-71414342D02*
X192161904Y-71509580D01*
X192161904Y-71509580D02*
X192114285Y-71557200D01*
X192114285Y-71557200D02*
X192019047Y-71604819D01*
X192019047Y-71604819D02*
X191780952Y-71604819D01*
X191780952Y-71604819D02*
X191685714Y-71557200D01*
X191685714Y-71557200D02*
X191638095Y-71509580D01*
X48838095Y-91556819D02*
X49409523Y-91556819D01*
X49123809Y-92556819D02*
X49123809Y-91556819D01*
X50266666Y-92556819D02*
X49695238Y-92556819D01*
X49980952Y-92556819D02*
X49980952Y-91556819D01*
X49980952Y-91556819D02*
X49885714Y-91699676D01*
X49885714Y-91699676D02*
X49790476Y-91794914D01*
X49790476Y-91794914D02*
X49695238Y-91842533D01*
X28038095Y-71504819D02*
X28038095Y-70504819D01*
X28038095Y-70981009D02*
X28609523Y-70981009D01*
X28609523Y-71504819D02*
X28609523Y-70504819D01*
X29038095Y-70600057D02*
X29085714Y-70552438D01*
X29085714Y-70552438D02*
X29180952Y-70504819D01*
X29180952Y-70504819D02*
X29419047Y-70504819D01*
X29419047Y-70504819D02*
X29514285Y-70552438D01*
X29514285Y-70552438D02*
X29561904Y-70600057D01*
X29561904Y-70600057D02*
X29609523Y-70695295D01*
X29609523Y-70695295D02*
X29609523Y-70790533D01*
X29609523Y-70790533D02*
X29561904Y-70933390D01*
X29561904Y-70933390D02*
X28990476Y-71504819D01*
X28990476Y-71504819D02*
X29609523Y-71504819D01*
X45857142Y-118059580D02*
X45809523Y-118107200D01*
X45809523Y-118107200D02*
X45666666Y-118154819D01*
X45666666Y-118154819D02*
X45571428Y-118154819D01*
X45571428Y-118154819D02*
X45428571Y-118107200D01*
X45428571Y-118107200D02*
X45333333Y-118011961D01*
X45333333Y-118011961D02*
X45285714Y-117916723D01*
X45285714Y-117916723D02*
X45238095Y-117726247D01*
X45238095Y-117726247D02*
X45238095Y-117583390D01*
X45238095Y-117583390D02*
X45285714Y-117392914D01*
X45285714Y-117392914D02*
X45333333Y-117297676D01*
X45333333Y-117297676D02*
X45428571Y-117202438D01*
X45428571Y-117202438D02*
X45571428Y-117154819D01*
X45571428Y-117154819D02*
X45666666Y-117154819D01*
X45666666Y-117154819D02*
X45809523Y-117202438D01*
X45809523Y-117202438D02*
X45857142Y-117250057D01*
X46809523Y-118154819D02*
X46238095Y-118154819D01*
X46523809Y-118154819D02*
X46523809Y-117154819D01*
X46523809Y-117154819D02*
X46428571Y-117297676D01*
X46428571Y-117297676D02*
X46333333Y-117392914D01*
X46333333Y-117392914D02*
X46238095Y-117440533D01*
X47666666Y-117154819D02*
X47476190Y-117154819D01*
X47476190Y-117154819D02*
X47380952Y-117202438D01*
X47380952Y-117202438D02*
X47333333Y-117250057D01*
X47333333Y-117250057D02*
X47238095Y-117392914D01*
X47238095Y-117392914D02*
X47190476Y-117583390D01*
X47190476Y-117583390D02*
X47190476Y-117964342D01*
X47190476Y-117964342D02*
X47238095Y-118059580D01*
X47238095Y-118059580D02*
X47285714Y-118107200D01*
X47285714Y-118107200D02*
X47380952Y-118154819D01*
X47380952Y-118154819D02*
X47571428Y-118154819D01*
X47571428Y-118154819D02*
X47666666Y-118107200D01*
X47666666Y-118107200D02*
X47714285Y-118059580D01*
X47714285Y-118059580D02*
X47761904Y-117964342D01*
X47761904Y-117964342D02*
X47761904Y-117726247D01*
X47761904Y-117726247D02*
X47714285Y-117631009D01*
X47714285Y-117631009D02*
X47666666Y-117583390D01*
X47666666Y-117583390D02*
X47571428Y-117535771D01*
X47571428Y-117535771D02*
X47380952Y-117535771D01*
X47380952Y-117535771D02*
X47285714Y-117583390D01*
X47285714Y-117583390D02*
X47238095Y-117631009D01*
X47238095Y-117631009D02*
X47190476Y-117726247D01*
X262061905Y-120054819D02*
X262061905Y-119054819D01*
X262061905Y-119054819D02*
X262300000Y-119054819D01*
X262300000Y-119054819D02*
X262442857Y-119102438D01*
X262442857Y-119102438D02*
X262538095Y-119197676D01*
X262538095Y-119197676D02*
X262585714Y-119292914D01*
X262585714Y-119292914D02*
X262633333Y-119483390D01*
X262633333Y-119483390D02*
X262633333Y-119626247D01*
X262633333Y-119626247D02*
X262585714Y-119816723D01*
X262585714Y-119816723D02*
X262538095Y-119911961D01*
X262538095Y-119911961D02*
X262442857Y-120007200D01*
X262442857Y-120007200D02*
X262300000Y-120054819D01*
X262300000Y-120054819D02*
X262061905Y-120054819D01*
X263109524Y-120054819D02*
X263300000Y-120054819D01*
X263300000Y-120054819D02*
X263395238Y-120007200D01*
X263395238Y-120007200D02*
X263442857Y-119959580D01*
X263442857Y-119959580D02*
X263538095Y-119816723D01*
X263538095Y-119816723D02*
X263585714Y-119626247D01*
X263585714Y-119626247D02*
X263585714Y-119245295D01*
X263585714Y-119245295D02*
X263538095Y-119150057D01*
X263538095Y-119150057D02*
X263490476Y-119102438D01*
X263490476Y-119102438D02*
X263395238Y-119054819D01*
X263395238Y-119054819D02*
X263204762Y-119054819D01*
X263204762Y-119054819D02*
X263109524Y-119102438D01*
X263109524Y-119102438D02*
X263061905Y-119150057D01*
X263061905Y-119150057D02*
X263014286Y-119245295D01*
X263014286Y-119245295D02*
X263014286Y-119483390D01*
X263014286Y-119483390D02*
X263061905Y-119578628D01*
X263061905Y-119578628D02*
X263109524Y-119626247D01*
X263109524Y-119626247D02*
X263204762Y-119673866D01*
X263204762Y-119673866D02*
X263395238Y-119673866D01*
X263395238Y-119673866D02*
X263490476Y-119626247D01*
X263490476Y-119626247D02*
X263538095Y-119578628D01*
X263538095Y-119578628D02*
X263585714Y-119483390D01*
X195085714Y-120154819D02*
X195085714Y-119154819D01*
X195085714Y-119154819D02*
X195323809Y-119154819D01*
X195323809Y-119154819D02*
X195466666Y-119202438D01*
X195466666Y-119202438D02*
X195561904Y-119297676D01*
X195561904Y-119297676D02*
X195609523Y-119392914D01*
X195609523Y-119392914D02*
X195657142Y-119583390D01*
X195657142Y-119583390D02*
X195657142Y-119726247D01*
X195657142Y-119726247D02*
X195609523Y-119916723D01*
X195609523Y-119916723D02*
X195561904Y-120011961D01*
X195561904Y-120011961D02*
X195466666Y-120107200D01*
X195466666Y-120107200D02*
X195323809Y-120154819D01*
X195323809Y-120154819D02*
X195085714Y-120154819D01*
X196609523Y-120154819D02*
X196038095Y-120154819D01*
X196323809Y-120154819D02*
X196323809Y-119154819D01*
X196323809Y-119154819D02*
X196228571Y-119297676D01*
X196228571Y-119297676D02*
X196133333Y-119392914D01*
X196133333Y-119392914D02*
X196038095Y-119440533D01*
X197561904Y-120154819D02*
X196990476Y-120154819D01*
X197276190Y-120154819D02*
X197276190Y-119154819D01*
X197276190Y-119154819D02*
X197180952Y-119297676D01*
X197180952Y-119297676D02*
X197085714Y-119392914D01*
X197085714Y-119392914D02*
X196990476Y-119440533D01*
X43583333Y-84949580D02*
X43535714Y-84997200D01*
X43535714Y-84997200D02*
X43392857Y-85044819D01*
X43392857Y-85044819D02*
X43297619Y-85044819D01*
X43297619Y-85044819D02*
X43154762Y-84997200D01*
X43154762Y-84997200D02*
X43059524Y-84901961D01*
X43059524Y-84901961D02*
X43011905Y-84806723D01*
X43011905Y-84806723D02*
X42964286Y-84616247D01*
X42964286Y-84616247D02*
X42964286Y-84473390D01*
X42964286Y-84473390D02*
X43011905Y-84282914D01*
X43011905Y-84282914D02*
X43059524Y-84187676D01*
X43059524Y-84187676D02*
X43154762Y-84092438D01*
X43154762Y-84092438D02*
X43297619Y-84044819D01*
X43297619Y-84044819D02*
X43392857Y-84044819D01*
X43392857Y-84044819D02*
X43535714Y-84092438D01*
X43535714Y-84092438D02*
X43583333Y-84140057D01*
X44535714Y-85044819D02*
X43964286Y-85044819D01*
X44250000Y-85044819D02*
X44250000Y-84044819D01*
X44250000Y-84044819D02*
X44154762Y-84187676D01*
X44154762Y-84187676D02*
X44059524Y-84282914D01*
X44059524Y-84282914D02*
X43964286Y-84330533D01*
X107957142Y-116659580D02*
X107909523Y-116707200D01*
X107909523Y-116707200D02*
X107766666Y-116754819D01*
X107766666Y-116754819D02*
X107671428Y-116754819D01*
X107671428Y-116754819D02*
X107528571Y-116707200D01*
X107528571Y-116707200D02*
X107433333Y-116611961D01*
X107433333Y-116611961D02*
X107385714Y-116516723D01*
X107385714Y-116516723D02*
X107338095Y-116326247D01*
X107338095Y-116326247D02*
X107338095Y-116183390D01*
X107338095Y-116183390D02*
X107385714Y-115992914D01*
X107385714Y-115992914D02*
X107433333Y-115897676D01*
X107433333Y-115897676D02*
X107528571Y-115802438D01*
X107528571Y-115802438D02*
X107671428Y-115754819D01*
X107671428Y-115754819D02*
X107766666Y-115754819D01*
X107766666Y-115754819D02*
X107909523Y-115802438D01*
X107909523Y-115802438D02*
X107957142Y-115850057D01*
X108909523Y-116754819D02*
X108338095Y-116754819D01*
X108623809Y-116754819D02*
X108623809Y-115754819D01*
X108623809Y-115754819D02*
X108528571Y-115897676D01*
X108528571Y-115897676D02*
X108433333Y-115992914D01*
X108433333Y-115992914D02*
X108338095Y-116040533D01*
X109766666Y-116088152D02*
X109766666Y-116754819D01*
X109528571Y-115707200D02*
X109290476Y-116421485D01*
X109290476Y-116421485D02*
X109909523Y-116421485D01*
X203657142Y-116759580D02*
X203609523Y-116807200D01*
X203609523Y-116807200D02*
X203466666Y-116854819D01*
X203466666Y-116854819D02*
X203371428Y-116854819D01*
X203371428Y-116854819D02*
X203228571Y-116807200D01*
X203228571Y-116807200D02*
X203133333Y-116711961D01*
X203133333Y-116711961D02*
X203085714Y-116616723D01*
X203085714Y-116616723D02*
X203038095Y-116426247D01*
X203038095Y-116426247D02*
X203038095Y-116283390D01*
X203038095Y-116283390D02*
X203085714Y-116092914D01*
X203085714Y-116092914D02*
X203133333Y-115997676D01*
X203133333Y-115997676D02*
X203228571Y-115902438D01*
X203228571Y-115902438D02*
X203371428Y-115854819D01*
X203371428Y-115854819D02*
X203466666Y-115854819D01*
X203466666Y-115854819D02*
X203609523Y-115902438D01*
X203609523Y-115902438D02*
X203657142Y-115950057D01*
X204609523Y-116854819D02*
X204038095Y-116854819D01*
X204323809Y-116854819D02*
X204323809Y-115854819D01*
X204323809Y-115854819D02*
X204228571Y-115997676D01*
X204228571Y-115997676D02*
X204133333Y-116092914D01*
X204133333Y-116092914D02*
X204038095Y-116140533D01*
X205561904Y-116854819D02*
X204990476Y-116854819D01*
X205276190Y-116854819D02*
X205276190Y-115854819D01*
X205276190Y-115854819D02*
X205180952Y-115997676D01*
X205180952Y-115997676D02*
X205085714Y-116092914D01*
X205085714Y-116092914D02*
X204990476Y-116140533D01*
X59238095Y-91556819D02*
X59809523Y-91556819D01*
X59523809Y-92556819D02*
X59523809Y-91556819D01*
X60095238Y-91652057D02*
X60142857Y-91604438D01*
X60142857Y-91604438D02*
X60238095Y-91556819D01*
X60238095Y-91556819D02*
X60476190Y-91556819D01*
X60476190Y-91556819D02*
X60571428Y-91604438D01*
X60571428Y-91604438D02*
X60619047Y-91652057D01*
X60619047Y-91652057D02*
X60666666Y-91747295D01*
X60666666Y-91747295D02*
X60666666Y-91842533D01*
X60666666Y-91842533D02*
X60619047Y-91985390D01*
X60619047Y-91985390D02*
X60047619Y-92556819D01*
X60047619Y-92556819D02*
X60666666Y-92556819D01*
X171515833Y-84949580D02*
X171468214Y-84997200D01*
X171468214Y-84997200D02*
X171325357Y-85044819D01*
X171325357Y-85044819D02*
X171230119Y-85044819D01*
X171230119Y-85044819D02*
X171087262Y-84997200D01*
X171087262Y-84997200D02*
X170992024Y-84901961D01*
X170992024Y-84901961D02*
X170944405Y-84806723D01*
X170944405Y-84806723D02*
X170896786Y-84616247D01*
X170896786Y-84616247D02*
X170896786Y-84473390D01*
X170896786Y-84473390D02*
X170944405Y-84282914D01*
X170944405Y-84282914D02*
X170992024Y-84187676D01*
X170992024Y-84187676D02*
X171087262Y-84092438D01*
X171087262Y-84092438D02*
X171230119Y-84044819D01*
X171230119Y-84044819D02*
X171325357Y-84044819D01*
X171325357Y-84044819D02*
X171468214Y-84092438D01*
X171468214Y-84092438D02*
X171515833Y-84140057D01*
X172420595Y-84044819D02*
X171944405Y-84044819D01*
X171944405Y-84044819D02*
X171896786Y-84521009D01*
X171896786Y-84521009D02*
X171944405Y-84473390D01*
X171944405Y-84473390D02*
X172039643Y-84425771D01*
X172039643Y-84425771D02*
X172277738Y-84425771D01*
X172277738Y-84425771D02*
X172372976Y-84473390D01*
X172372976Y-84473390D02*
X172420595Y-84521009D01*
X172420595Y-84521009D02*
X172468214Y-84616247D01*
X172468214Y-84616247D02*
X172468214Y-84854342D01*
X172468214Y-84854342D02*
X172420595Y-84949580D01*
X172420595Y-84949580D02*
X172372976Y-84997200D01*
X172372976Y-84997200D02*
X172277738Y-85044819D01*
X172277738Y-85044819D02*
X172039643Y-85044819D01*
X172039643Y-85044819D02*
X171944405Y-84997200D01*
X171944405Y-84997200D02*
X171896786Y-84949580D01*
X112361905Y-101806819D02*
X112933333Y-101806819D01*
X112647619Y-102806819D02*
X112647619Y-101806819D01*
X113790476Y-102806819D02*
X113219048Y-102806819D01*
X113504762Y-102806819D02*
X113504762Y-101806819D01*
X113504762Y-101806819D02*
X113409524Y-101949676D01*
X113409524Y-101949676D02*
X113314286Y-102044914D01*
X113314286Y-102044914D02*
X113219048Y-102092533D01*
X114742857Y-102806819D02*
X114171429Y-102806819D01*
X114457143Y-102806819D02*
X114457143Y-101806819D01*
X114457143Y-101806819D02*
X114361905Y-101949676D01*
X114361905Y-101949676D02*
X114266667Y-102044914D01*
X114266667Y-102044914D02*
X114171429Y-102092533D01*
X272038095Y-71304819D02*
X272038095Y-70304819D01*
X272038095Y-70781009D02*
X272609523Y-70781009D01*
X272609523Y-71304819D02*
X272609523Y-70304819D01*
X272990476Y-70304819D02*
X273657142Y-70304819D01*
X273657142Y-70304819D02*
X273228571Y-71304819D01*
X190638095Y-123604819D02*
X190638095Y-122604819D01*
X190638095Y-123081009D02*
X191209523Y-123081009D01*
X191209523Y-123604819D02*
X191209523Y-122604819D01*
X192114285Y-122604819D02*
X191923809Y-122604819D01*
X191923809Y-122604819D02*
X191828571Y-122652438D01*
X191828571Y-122652438D02*
X191780952Y-122700057D01*
X191780952Y-122700057D02*
X191685714Y-122842914D01*
X191685714Y-122842914D02*
X191638095Y-123033390D01*
X191638095Y-123033390D02*
X191638095Y-123414342D01*
X191638095Y-123414342D02*
X191685714Y-123509580D01*
X191685714Y-123509580D02*
X191733333Y-123557200D01*
X191733333Y-123557200D02*
X191828571Y-123604819D01*
X191828571Y-123604819D02*
X192019047Y-123604819D01*
X192019047Y-123604819D02*
X192114285Y-123557200D01*
X192114285Y-123557200D02*
X192161904Y-123509580D01*
X192161904Y-123509580D02*
X192209523Y-123414342D01*
X192209523Y-123414342D02*
X192209523Y-123176247D01*
X192209523Y-123176247D02*
X192161904Y-123081009D01*
X192161904Y-123081009D02*
X192114285Y-123033390D01*
X192114285Y-123033390D02*
X192019047Y-122985771D01*
X192019047Y-122985771D02*
X191828571Y-122985771D01*
X191828571Y-122985771D02*
X191733333Y-123033390D01*
X191733333Y-123033390D02*
X191685714Y-123081009D01*
X191685714Y-123081009D02*
X191638095Y-123176247D01*
X122761905Y-101806819D02*
X123333333Y-101806819D01*
X123047619Y-102806819D02*
X123047619Y-101806819D01*
X124190476Y-102806819D02*
X123619048Y-102806819D01*
X123904762Y-102806819D02*
X123904762Y-101806819D01*
X123904762Y-101806819D02*
X123809524Y-101949676D01*
X123809524Y-101949676D02*
X123714286Y-102044914D01*
X123714286Y-102044914D02*
X123619048Y-102092533D01*
X124571429Y-101902057D02*
X124619048Y-101854438D01*
X124619048Y-101854438D02*
X124714286Y-101806819D01*
X124714286Y-101806819D02*
X124952381Y-101806819D01*
X124952381Y-101806819D02*
X125047619Y-101854438D01*
X125047619Y-101854438D02*
X125095238Y-101902057D01*
X125095238Y-101902057D02*
X125142857Y-101997295D01*
X125142857Y-101997295D02*
X125142857Y-102092533D01*
X125142857Y-102092533D02*
X125095238Y-102235390D01*
X125095238Y-102235390D02*
X124523810Y-102806819D01*
X124523810Y-102806819D02*
X125142857Y-102806819D01*
X176838095Y-91556819D02*
X177409523Y-91556819D01*
X177123809Y-92556819D02*
X177123809Y-91556819D01*
X178219047Y-91556819D02*
X177742857Y-91556819D01*
X177742857Y-91556819D02*
X177695238Y-92033009D01*
X177695238Y-92033009D02*
X177742857Y-91985390D01*
X177742857Y-91985390D02*
X177838095Y-91937771D01*
X177838095Y-91937771D02*
X178076190Y-91937771D01*
X178076190Y-91937771D02*
X178171428Y-91985390D01*
X178171428Y-91985390D02*
X178219047Y-92033009D01*
X178219047Y-92033009D02*
X178266666Y-92128247D01*
X178266666Y-92128247D02*
X178266666Y-92366342D01*
X178266666Y-92366342D02*
X178219047Y-92461580D01*
X178219047Y-92461580D02*
X178171428Y-92509200D01*
X178171428Y-92509200D02*
X178076190Y-92556819D01*
X178076190Y-92556819D02*
X177838095Y-92556819D01*
X177838095Y-92556819D02*
X177742857Y-92509200D01*
X177742857Y-92509200D02*
X177695238Y-92461580D01*
X251238095Y-91556819D02*
X251809523Y-91556819D01*
X251523809Y-92556819D02*
X251523809Y-91556819D01*
X252285714Y-91985390D02*
X252190476Y-91937771D01*
X252190476Y-91937771D02*
X252142857Y-91890152D01*
X252142857Y-91890152D02*
X252095238Y-91794914D01*
X252095238Y-91794914D02*
X252095238Y-91747295D01*
X252095238Y-91747295D02*
X252142857Y-91652057D01*
X252142857Y-91652057D02*
X252190476Y-91604438D01*
X252190476Y-91604438D02*
X252285714Y-91556819D01*
X252285714Y-91556819D02*
X252476190Y-91556819D01*
X252476190Y-91556819D02*
X252571428Y-91604438D01*
X252571428Y-91604438D02*
X252619047Y-91652057D01*
X252619047Y-91652057D02*
X252666666Y-91747295D01*
X252666666Y-91747295D02*
X252666666Y-91794914D01*
X252666666Y-91794914D02*
X252619047Y-91890152D01*
X252619047Y-91890152D02*
X252571428Y-91937771D01*
X252571428Y-91937771D02*
X252476190Y-91985390D01*
X252476190Y-91985390D02*
X252285714Y-91985390D01*
X252285714Y-91985390D02*
X252190476Y-92033009D01*
X252190476Y-92033009D02*
X252142857Y-92080628D01*
X252142857Y-92080628D02*
X252095238Y-92175866D01*
X252095238Y-92175866D02*
X252095238Y-92366342D01*
X252095238Y-92366342D02*
X252142857Y-92461580D01*
X252142857Y-92461580D02*
X252190476Y-92509200D01*
X252190476Y-92509200D02*
X252285714Y-92556819D01*
X252285714Y-92556819D02*
X252476190Y-92556819D01*
X252476190Y-92556819D02*
X252571428Y-92509200D01*
X252571428Y-92509200D02*
X252619047Y-92461580D01*
X252619047Y-92461580D02*
X252666666Y-92366342D01*
X252666666Y-92366342D02*
X252666666Y-92175866D01*
X252666666Y-92175866D02*
X252619047Y-92080628D01*
X252619047Y-92080628D02*
X252571428Y-92033009D01*
X252571428Y-92033009D02*
X252476190Y-91985390D01*
X109338095Y-71604819D02*
X109338095Y-70604819D01*
X109338095Y-71081009D02*
X109909523Y-71081009D01*
X109909523Y-71604819D02*
X109909523Y-70604819D01*
X110290476Y-70604819D02*
X110909523Y-70604819D01*
X110909523Y-70604819D02*
X110576190Y-70985771D01*
X110576190Y-70985771D02*
X110719047Y-70985771D01*
X110719047Y-70985771D02*
X110814285Y-71033390D01*
X110814285Y-71033390D02*
X110861904Y-71081009D01*
X110861904Y-71081009D02*
X110909523Y-71176247D01*
X110909523Y-71176247D02*
X110909523Y-71414342D01*
X110909523Y-71414342D02*
X110861904Y-71509580D01*
X110861904Y-71509580D02*
X110814285Y-71557200D01*
X110814285Y-71557200D02*
X110719047Y-71604819D01*
X110719047Y-71604819D02*
X110433333Y-71604819D01*
X110433333Y-71604819D02*
X110338095Y-71557200D01*
X110338095Y-71557200D02*
X110290476Y-71509580D01*
X139557142Y-116759580D02*
X139509523Y-116807200D01*
X139509523Y-116807200D02*
X139366666Y-116854819D01*
X139366666Y-116854819D02*
X139271428Y-116854819D01*
X139271428Y-116854819D02*
X139128571Y-116807200D01*
X139128571Y-116807200D02*
X139033333Y-116711961D01*
X139033333Y-116711961D02*
X138985714Y-116616723D01*
X138985714Y-116616723D02*
X138938095Y-116426247D01*
X138938095Y-116426247D02*
X138938095Y-116283390D01*
X138938095Y-116283390D02*
X138985714Y-116092914D01*
X138985714Y-116092914D02*
X139033333Y-115997676D01*
X139033333Y-115997676D02*
X139128571Y-115902438D01*
X139128571Y-115902438D02*
X139271428Y-115854819D01*
X139271428Y-115854819D02*
X139366666Y-115854819D01*
X139366666Y-115854819D02*
X139509523Y-115902438D01*
X139509523Y-115902438D02*
X139557142Y-115950057D01*
X140509523Y-116854819D02*
X139938095Y-116854819D01*
X140223809Y-116854819D02*
X140223809Y-115854819D01*
X140223809Y-115854819D02*
X140128571Y-115997676D01*
X140128571Y-115997676D02*
X140033333Y-116092914D01*
X140033333Y-116092914D02*
X139938095Y-116140533D01*
X140842857Y-115854819D02*
X141461904Y-115854819D01*
X141461904Y-115854819D02*
X141128571Y-116235771D01*
X141128571Y-116235771D02*
X141271428Y-116235771D01*
X141271428Y-116235771D02*
X141366666Y-116283390D01*
X141366666Y-116283390D02*
X141414285Y-116331009D01*
X141414285Y-116331009D02*
X141461904Y-116426247D01*
X141461904Y-116426247D02*
X141461904Y-116664342D01*
X141461904Y-116664342D02*
X141414285Y-116759580D01*
X141414285Y-116759580D02*
X141366666Y-116807200D01*
X141366666Y-116807200D02*
X141271428Y-116854819D01*
X141271428Y-116854819D02*
X140985714Y-116854819D01*
X140985714Y-116854819D02*
X140890476Y-116807200D01*
X140890476Y-116807200D02*
X140842857Y-116759580D01*
X187238095Y-91556819D02*
X187809523Y-91556819D01*
X187523809Y-92556819D02*
X187523809Y-91556819D01*
X188571428Y-91556819D02*
X188380952Y-91556819D01*
X188380952Y-91556819D02*
X188285714Y-91604438D01*
X188285714Y-91604438D02*
X188238095Y-91652057D01*
X188238095Y-91652057D02*
X188142857Y-91794914D01*
X188142857Y-91794914D02*
X188095238Y-91985390D01*
X188095238Y-91985390D02*
X188095238Y-92366342D01*
X188095238Y-92366342D02*
X188142857Y-92461580D01*
X188142857Y-92461580D02*
X188190476Y-92509200D01*
X188190476Y-92509200D02*
X188285714Y-92556819D01*
X188285714Y-92556819D02*
X188476190Y-92556819D01*
X188476190Y-92556819D02*
X188571428Y-92509200D01*
X188571428Y-92509200D02*
X188619047Y-92461580D01*
X188619047Y-92461580D02*
X188666666Y-92366342D01*
X188666666Y-92366342D02*
X188666666Y-92128247D01*
X188666666Y-92128247D02*
X188619047Y-92033009D01*
X188619047Y-92033009D02*
X188571428Y-91985390D01*
X188571428Y-91985390D02*
X188476190Y-91937771D01*
X188476190Y-91937771D02*
X188285714Y-91937771D01*
X188285714Y-91937771D02*
X188190476Y-91985390D01*
X188190476Y-91985390D02*
X188142857Y-92033009D01*
X188142857Y-92033009D02*
X188095238Y-92128247D01*
X139515833Y-84949580D02*
X139468214Y-84997200D01*
X139468214Y-84997200D02*
X139325357Y-85044819D01*
X139325357Y-85044819D02*
X139230119Y-85044819D01*
X139230119Y-85044819D02*
X139087262Y-84997200D01*
X139087262Y-84997200D02*
X138992024Y-84901961D01*
X138992024Y-84901961D02*
X138944405Y-84806723D01*
X138944405Y-84806723D02*
X138896786Y-84616247D01*
X138896786Y-84616247D02*
X138896786Y-84473390D01*
X138896786Y-84473390D02*
X138944405Y-84282914D01*
X138944405Y-84282914D02*
X138992024Y-84187676D01*
X138992024Y-84187676D02*
X139087262Y-84092438D01*
X139087262Y-84092438D02*
X139230119Y-84044819D01*
X139230119Y-84044819D02*
X139325357Y-84044819D01*
X139325357Y-84044819D02*
X139468214Y-84092438D01*
X139468214Y-84092438D02*
X139515833Y-84140057D01*
X140372976Y-84378152D02*
X140372976Y-85044819D01*
X140134881Y-83997200D02*
X139896786Y-84711485D01*
X139896786Y-84711485D02*
X140515833Y-84711485D01*
X123238095Y-91556819D02*
X123809523Y-91556819D01*
X123523809Y-92556819D02*
X123523809Y-91556819D01*
X124571428Y-91890152D02*
X124571428Y-92556819D01*
X124333333Y-91509200D02*
X124095238Y-92223485D01*
X124095238Y-92223485D02*
X124714285Y-92223485D01*
X259461905Y-88054819D02*
X259461905Y-87054819D01*
X259461905Y-87054819D02*
X259700000Y-87054819D01*
X259700000Y-87054819D02*
X259842857Y-87102438D01*
X259842857Y-87102438D02*
X259938095Y-87197676D01*
X259938095Y-87197676D02*
X259985714Y-87292914D01*
X259985714Y-87292914D02*
X260033333Y-87483390D01*
X260033333Y-87483390D02*
X260033333Y-87626247D01*
X260033333Y-87626247D02*
X259985714Y-87816723D01*
X259985714Y-87816723D02*
X259938095Y-87911961D01*
X259938095Y-87911961D02*
X259842857Y-88007200D01*
X259842857Y-88007200D02*
X259700000Y-88054819D01*
X259700000Y-88054819D02*
X259461905Y-88054819D01*
X260604762Y-87483390D02*
X260509524Y-87435771D01*
X260509524Y-87435771D02*
X260461905Y-87388152D01*
X260461905Y-87388152D02*
X260414286Y-87292914D01*
X260414286Y-87292914D02*
X260414286Y-87245295D01*
X260414286Y-87245295D02*
X260461905Y-87150057D01*
X260461905Y-87150057D02*
X260509524Y-87102438D01*
X260509524Y-87102438D02*
X260604762Y-87054819D01*
X260604762Y-87054819D02*
X260795238Y-87054819D01*
X260795238Y-87054819D02*
X260890476Y-87102438D01*
X260890476Y-87102438D02*
X260938095Y-87150057D01*
X260938095Y-87150057D02*
X260985714Y-87245295D01*
X260985714Y-87245295D02*
X260985714Y-87292914D01*
X260985714Y-87292914D02*
X260938095Y-87388152D01*
X260938095Y-87388152D02*
X260890476Y-87435771D01*
X260890476Y-87435771D02*
X260795238Y-87483390D01*
X260795238Y-87483390D02*
X260604762Y-87483390D01*
X260604762Y-87483390D02*
X260509524Y-87531009D01*
X260509524Y-87531009D02*
X260461905Y-87578628D01*
X260461905Y-87578628D02*
X260414286Y-87673866D01*
X260414286Y-87673866D02*
X260414286Y-87864342D01*
X260414286Y-87864342D02*
X260461905Y-87959580D01*
X260461905Y-87959580D02*
X260509524Y-88007200D01*
X260509524Y-88007200D02*
X260604762Y-88054819D01*
X260604762Y-88054819D02*
X260795238Y-88054819D01*
X260795238Y-88054819D02*
X260890476Y-88007200D01*
X260890476Y-88007200D02*
X260938095Y-87959580D01*
X260938095Y-87959580D02*
X260985714Y-87864342D01*
X260985714Y-87864342D02*
X260985714Y-87673866D01*
X260985714Y-87673866D02*
X260938095Y-87578628D01*
X260938095Y-87578628D02*
X260890476Y-87531009D01*
X260890476Y-87531009D02*
X260795238Y-87483390D01*
X28038095Y-123404819D02*
X28038095Y-122404819D01*
X28038095Y-122881009D02*
X28609523Y-122881009D01*
X28609523Y-123404819D02*
X28609523Y-122404819D01*
X29609523Y-123404819D02*
X29038095Y-123404819D01*
X29323809Y-123404819D02*
X29323809Y-122404819D01*
X29323809Y-122404819D02*
X29228571Y-122547676D01*
X29228571Y-122547676D02*
X29133333Y-122642914D01*
X29133333Y-122642914D02*
X29038095Y-122690533D01*
X58761905Y-101806819D02*
X59333333Y-101806819D01*
X59047619Y-102806819D02*
X59047619Y-101806819D01*
X60190476Y-102806819D02*
X59619048Y-102806819D01*
X59904762Y-102806819D02*
X59904762Y-101806819D01*
X59904762Y-101806819D02*
X59809524Y-101949676D01*
X59809524Y-101949676D02*
X59714286Y-102044914D01*
X59714286Y-102044914D02*
X59619048Y-102092533D01*
X60809524Y-101806819D02*
X60904762Y-101806819D01*
X60904762Y-101806819D02*
X61000000Y-101854438D01*
X61000000Y-101854438D02*
X61047619Y-101902057D01*
X61047619Y-101902057D02*
X61095238Y-101997295D01*
X61095238Y-101997295D02*
X61142857Y-102187771D01*
X61142857Y-102187771D02*
X61142857Y-102425866D01*
X61142857Y-102425866D02*
X61095238Y-102616342D01*
X61095238Y-102616342D02*
X61047619Y-102711580D01*
X61047619Y-102711580D02*
X61000000Y-102759200D01*
X61000000Y-102759200D02*
X60904762Y-102806819D01*
X60904762Y-102806819D02*
X60809524Y-102806819D01*
X60809524Y-102806819D02*
X60714286Y-102759200D01*
X60714286Y-102759200D02*
X60666667Y-102711580D01*
X60666667Y-102711580D02*
X60619048Y-102616342D01*
X60619048Y-102616342D02*
X60571429Y-102425866D01*
X60571429Y-102425866D02*
X60571429Y-102187771D01*
X60571429Y-102187771D02*
X60619048Y-101997295D01*
X60619048Y-101997295D02*
X60666667Y-101902057D01*
X60666667Y-101902057D02*
X60714286Y-101854438D01*
X60714286Y-101854438D02*
X60809524Y-101806819D01*
X176511905Y-101806819D02*
X177083333Y-101806819D01*
X176797619Y-102806819D02*
X176797619Y-101806819D01*
X177940476Y-102806819D02*
X177369048Y-102806819D01*
X177654762Y-102806819D02*
X177654762Y-101806819D01*
X177654762Y-101806819D02*
X177559524Y-101949676D01*
X177559524Y-101949676D02*
X177464286Y-102044914D01*
X177464286Y-102044914D02*
X177369048Y-102092533D01*
X178273810Y-101806819D02*
X178892857Y-101806819D01*
X178892857Y-101806819D02*
X178559524Y-102187771D01*
X178559524Y-102187771D02*
X178702381Y-102187771D01*
X178702381Y-102187771D02*
X178797619Y-102235390D01*
X178797619Y-102235390D02*
X178845238Y-102283009D01*
X178845238Y-102283009D02*
X178892857Y-102378247D01*
X178892857Y-102378247D02*
X178892857Y-102616342D01*
X178892857Y-102616342D02*
X178845238Y-102711580D01*
X178845238Y-102711580D02*
X178797619Y-102759200D01*
X178797619Y-102759200D02*
X178702381Y-102806819D01*
X178702381Y-102806819D02*
X178416667Y-102806819D01*
X178416667Y-102806819D02*
X178321429Y-102759200D01*
X178321429Y-102759200D02*
X178273810Y-102711580D01*
X162985714Y-120154819D02*
X162985714Y-119154819D01*
X162985714Y-119154819D02*
X163223809Y-119154819D01*
X163223809Y-119154819D02*
X163366666Y-119202438D01*
X163366666Y-119202438D02*
X163461904Y-119297676D01*
X163461904Y-119297676D02*
X163509523Y-119392914D01*
X163509523Y-119392914D02*
X163557142Y-119583390D01*
X163557142Y-119583390D02*
X163557142Y-119726247D01*
X163557142Y-119726247D02*
X163509523Y-119916723D01*
X163509523Y-119916723D02*
X163461904Y-120011961D01*
X163461904Y-120011961D02*
X163366666Y-120107200D01*
X163366666Y-120107200D02*
X163223809Y-120154819D01*
X163223809Y-120154819D02*
X162985714Y-120154819D01*
X164509523Y-120154819D02*
X163938095Y-120154819D01*
X164223809Y-120154819D02*
X164223809Y-119154819D01*
X164223809Y-119154819D02*
X164128571Y-119297676D01*
X164128571Y-119297676D02*
X164033333Y-119392914D01*
X164033333Y-119392914D02*
X163938095Y-119440533D01*
X164890476Y-119250057D02*
X164938095Y-119202438D01*
X164938095Y-119202438D02*
X165033333Y-119154819D01*
X165033333Y-119154819D02*
X165271428Y-119154819D01*
X165271428Y-119154819D02*
X165366666Y-119202438D01*
X165366666Y-119202438D02*
X165414285Y-119250057D01*
X165414285Y-119250057D02*
X165461904Y-119345295D01*
X165461904Y-119345295D02*
X165461904Y-119440533D01*
X165461904Y-119440533D02*
X165414285Y-119583390D01*
X165414285Y-119583390D02*
X164842857Y-120154819D01*
X164842857Y-120154819D02*
X165461904Y-120154819D01*
X75657142Y-116859580D02*
X75609523Y-116907200D01*
X75609523Y-116907200D02*
X75466666Y-116954819D01*
X75466666Y-116954819D02*
X75371428Y-116954819D01*
X75371428Y-116954819D02*
X75228571Y-116907200D01*
X75228571Y-116907200D02*
X75133333Y-116811961D01*
X75133333Y-116811961D02*
X75085714Y-116716723D01*
X75085714Y-116716723D02*
X75038095Y-116526247D01*
X75038095Y-116526247D02*
X75038095Y-116383390D01*
X75038095Y-116383390D02*
X75085714Y-116192914D01*
X75085714Y-116192914D02*
X75133333Y-116097676D01*
X75133333Y-116097676D02*
X75228571Y-116002438D01*
X75228571Y-116002438D02*
X75371428Y-115954819D01*
X75371428Y-115954819D02*
X75466666Y-115954819D01*
X75466666Y-115954819D02*
X75609523Y-116002438D01*
X75609523Y-116002438D02*
X75657142Y-116050057D01*
X76609523Y-116954819D02*
X76038095Y-116954819D01*
X76323809Y-116954819D02*
X76323809Y-115954819D01*
X76323809Y-115954819D02*
X76228571Y-116097676D01*
X76228571Y-116097676D02*
X76133333Y-116192914D01*
X76133333Y-116192914D02*
X76038095Y-116240533D01*
X77514285Y-115954819D02*
X77038095Y-115954819D01*
X77038095Y-115954819D02*
X76990476Y-116431009D01*
X76990476Y-116431009D02*
X77038095Y-116383390D01*
X77038095Y-116383390D02*
X77133333Y-116335771D01*
X77133333Y-116335771D02*
X77371428Y-116335771D01*
X77371428Y-116335771D02*
X77466666Y-116383390D01*
X77466666Y-116383390D02*
X77514285Y-116431009D01*
X77514285Y-116431009D02*
X77561904Y-116526247D01*
X77561904Y-116526247D02*
X77561904Y-116764342D01*
X77561904Y-116764342D02*
X77514285Y-116859580D01*
X77514285Y-116859580D02*
X77466666Y-116907200D01*
X77466666Y-116907200D02*
X77371428Y-116954819D01*
X77371428Y-116954819D02*
X77133333Y-116954819D01*
X77133333Y-116954819D02*
X77038095Y-116907200D01*
X77038095Y-116907200D02*
X76990476Y-116859580D01*
X195461905Y-88254819D02*
X195461905Y-87254819D01*
X195461905Y-87254819D02*
X195700000Y-87254819D01*
X195700000Y-87254819D02*
X195842857Y-87302438D01*
X195842857Y-87302438D02*
X195938095Y-87397676D01*
X195938095Y-87397676D02*
X195985714Y-87492914D01*
X195985714Y-87492914D02*
X196033333Y-87683390D01*
X196033333Y-87683390D02*
X196033333Y-87826247D01*
X196033333Y-87826247D02*
X195985714Y-88016723D01*
X195985714Y-88016723D02*
X195938095Y-88111961D01*
X195938095Y-88111961D02*
X195842857Y-88207200D01*
X195842857Y-88207200D02*
X195700000Y-88254819D01*
X195700000Y-88254819D02*
X195461905Y-88254819D01*
X196890476Y-87254819D02*
X196700000Y-87254819D01*
X196700000Y-87254819D02*
X196604762Y-87302438D01*
X196604762Y-87302438D02*
X196557143Y-87350057D01*
X196557143Y-87350057D02*
X196461905Y-87492914D01*
X196461905Y-87492914D02*
X196414286Y-87683390D01*
X196414286Y-87683390D02*
X196414286Y-88064342D01*
X196414286Y-88064342D02*
X196461905Y-88159580D01*
X196461905Y-88159580D02*
X196509524Y-88207200D01*
X196509524Y-88207200D02*
X196604762Y-88254819D01*
X196604762Y-88254819D02*
X196795238Y-88254819D01*
X196795238Y-88254819D02*
X196890476Y-88207200D01*
X196890476Y-88207200D02*
X196938095Y-88159580D01*
X196938095Y-88159580D02*
X196985714Y-88064342D01*
X196985714Y-88064342D02*
X196985714Y-87826247D01*
X196985714Y-87826247D02*
X196938095Y-87731009D01*
X196938095Y-87731009D02*
X196890476Y-87683390D01*
X196890476Y-87683390D02*
X196795238Y-87635771D01*
X196795238Y-87635771D02*
X196604762Y-87635771D01*
X196604762Y-87635771D02*
X196509524Y-87683390D01*
X196509524Y-87683390D02*
X196461905Y-87731009D01*
X196461905Y-87731009D02*
X196414286Y-87826247D01*
X235778333Y-84864580D02*
X235730714Y-84912200D01*
X235730714Y-84912200D02*
X235587857Y-84959819D01*
X235587857Y-84959819D02*
X235492619Y-84959819D01*
X235492619Y-84959819D02*
X235349762Y-84912200D01*
X235349762Y-84912200D02*
X235254524Y-84816961D01*
X235254524Y-84816961D02*
X235206905Y-84721723D01*
X235206905Y-84721723D02*
X235159286Y-84531247D01*
X235159286Y-84531247D02*
X235159286Y-84388390D01*
X235159286Y-84388390D02*
X235206905Y-84197914D01*
X235206905Y-84197914D02*
X235254524Y-84102676D01*
X235254524Y-84102676D02*
X235349762Y-84007438D01*
X235349762Y-84007438D02*
X235492619Y-83959819D01*
X235492619Y-83959819D02*
X235587857Y-83959819D01*
X235587857Y-83959819D02*
X235730714Y-84007438D01*
X235730714Y-84007438D02*
X235778333Y-84055057D01*
X236111667Y-83959819D02*
X236778333Y-83959819D01*
X236778333Y-83959819D02*
X236349762Y-84959819D01*
D11*
%TO.C,C12*%
X171566665Y-117390000D02*
X171798335Y-117390000D01*
X171566665Y-118110000D02*
X171798335Y-118110000D01*
%TO.C,D3*%
X99300000Y-81800000D02*
X99300000Y-86850000D01*
X99750000Y-81350000D02*
X99300000Y-81800000D01*
X100100000Y-83200000D02*
X100100000Y-85000000D01*
X105500000Y-83200000D02*
X105500000Y-85000000D01*
X106300000Y-81350000D02*
X99750000Y-81350000D01*
X106300000Y-86850000D02*
X99300000Y-86850000D01*
X106300000Y-86850000D02*
X106300000Y-81350000D01*
%TO.C,D2*%
X67300000Y-81800000D02*
X67300000Y-86850000D01*
X67750000Y-81350000D02*
X67300000Y-81800000D01*
X68100000Y-83200000D02*
X68100000Y-85000000D01*
X73500000Y-83200000D02*
X73500000Y-85000000D01*
X74300000Y-81350000D02*
X67750000Y-81350000D01*
X74300000Y-86850000D02*
X67300000Y-86850000D01*
X74300000Y-86850000D02*
X74300000Y-81350000D01*
%TO.C,D15*%
X67300000Y-113800000D02*
X67300000Y-118850000D01*
X67750000Y-113350000D02*
X67300000Y-113800000D01*
X68100000Y-115200000D02*
X68100000Y-117000000D01*
X73500000Y-115200000D02*
X73500000Y-117000000D01*
X74300000Y-113350000D02*
X67750000Y-113350000D01*
X74300000Y-118850000D02*
X67300000Y-118850000D01*
X74300000Y-118850000D02*
X74300000Y-113350000D01*
%TO.C,D13*%
X131300000Y-113800000D02*
X131300000Y-118850000D01*
X131750000Y-113350000D02*
X131300000Y-113800000D01*
X132100000Y-115200000D02*
X132100000Y-117000000D01*
X137500000Y-115200000D02*
X137500000Y-117000000D01*
X138300000Y-113350000D02*
X131750000Y-113350000D01*
X138300000Y-118850000D02*
X131300000Y-118850000D01*
X138300000Y-118850000D02*
X138300000Y-113350000D01*
%TO.C,C9*%
X267634165Y-117390000D02*
X267865835Y-117390000D01*
X267634165Y-118110000D02*
X267865835Y-118110000D01*
%TO.C,C6*%
X203566665Y-85390000D02*
X203798335Y-85390000D01*
X203566665Y-86110000D02*
X203798335Y-86110000D01*
%TO.C,C2*%
X75566665Y-85390000D02*
X75798335Y-85390000D01*
X75566665Y-86110000D02*
X75798335Y-86110000D01*
%TO.C,D7*%
X227300000Y-81800000D02*
X227300000Y-86850000D01*
X227750000Y-81350000D02*
X227300000Y-81800000D01*
X228100000Y-83200000D02*
X228100000Y-85000000D01*
X233500000Y-83200000D02*
X233500000Y-85000000D01*
X234300000Y-81350000D02*
X227750000Y-81350000D01*
X234300000Y-86850000D02*
X227300000Y-86850000D01*
X234300000Y-86850000D02*
X234300000Y-81350000D01*
%TO.C,T16*%
X249800000Y-102950000D02*
X254200000Y-102950000D01*
X249800000Y-107350000D02*
X249800000Y-102950000D01*
X254200000Y-102950000D02*
X254200000Y-107350000D01*
X254200000Y-107350000D02*
X249800000Y-107350000D01*
%TO.C,T7*%
X239400000Y-92800000D02*
X243800000Y-92800000D01*
X239400000Y-97200000D02*
X239400000Y-92800000D01*
X243800000Y-92800000D02*
X243800000Y-97200000D01*
X243800000Y-97200000D02*
X239400000Y-97200000D01*
%TO.C,C3*%
X107566665Y-85390000D02*
X107798335Y-85390000D01*
X107566665Y-86110000D02*
X107798335Y-86110000D01*
%TO.C,D5*%
X163300000Y-81800000D02*
X163300000Y-86850000D01*
X163750000Y-81350000D02*
X163300000Y-81800000D01*
X164100000Y-83200000D02*
X164100000Y-85000000D01*
X169500000Y-83200000D02*
X169500000Y-85000000D01*
X170300000Y-81350000D02*
X163750000Y-81350000D01*
X170300000Y-86850000D02*
X163300000Y-86850000D01*
X170300000Y-86850000D02*
X170300000Y-81350000D01*
%TO.C,T9*%
X47400000Y-102950000D02*
X51800000Y-102950000D01*
X47400000Y-107350000D02*
X47400000Y-102950000D01*
X51800000Y-102950000D02*
X51800000Y-107350000D01*
X51800000Y-107350000D02*
X47400000Y-107350000D01*
%TO.C,C10*%
X235566665Y-117390000D02*
X235798335Y-117390000D01*
X235566665Y-118110000D02*
X235798335Y-118110000D01*
%TO.C,D1*%
X35300000Y-81800000D02*
X35300000Y-86850000D01*
X35750000Y-81350000D02*
X35300000Y-81800000D01*
X36100000Y-83200000D02*
X36100000Y-85000000D01*
X41500000Y-83200000D02*
X41500000Y-85000000D01*
X42300000Y-81350000D02*
X35750000Y-81350000D01*
X42300000Y-86850000D02*
X35300000Y-86850000D01*
X42300000Y-86850000D02*
X42300000Y-81350000D01*
%TO.C,D4*%
X131300000Y-81800000D02*
X131300000Y-86850000D01*
X131750000Y-81350000D02*
X131300000Y-81800000D01*
X132100000Y-83200000D02*
X132100000Y-85000000D01*
X137500000Y-83200000D02*
X137500000Y-85000000D01*
X138300000Y-81350000D02*
X131750000Y-81350000D01*
X138300000Y-86850000D02*
X131300000Y-86850000D01*
X138300000Y-86850000D02*
X138300000Y-81350000D01*
%TO.C,D14*%
X99300000Y-113800000D02*
X99300000Y-118850000D01*
X99750000Y-113350000D02*
X99300000Y-113800000D01*
X100100000Y-115200000D02*
X100100000Y-117000000D01*
X105500000Y-115200000D02*
X105500000Y-117000000D01*
X106300000Y-113350000D02*
X99750000Y-113350000D01*
X106300000Y-118850000D02*
X99300000Y-118850000D01*
X106300000Y-118850000D02*
X106300000Y-113350000D01*
%TO.C,D16*%
X35300000Y-113800000D02*
X35300000Y-118850000D01*
X35750000Y-113350000D02*
X35300000Y-113800000D01*
X36100000Y-115200000D02*
X36100000Y-117000000D01*
X41500000Y-115200000D02*
X41500000Y-117000000D01*
X42300000Y-113350000D02*
X35750000Y-113350000D01*
X42300000Y-118850000D02*
X35300000Y-118850000D01*
X42300000Y-118850000D02*
X42300000Y-113350000D01*
%TO.C,T14*%
X185800000Y-103050000D02*
X190200000Y-103050000D01*
X185800000Y-107450000D02*
X185800000Y-103050000D01*
X190200000Y-103050000D02*
X190200000Y-107450000D01*
X190200000Y-107450000D02*
X185800000Y-107450000D01*
%TO.C,T15*%
X239400000Y-103050000D02*
X243800000Y-103050000D01*
X239400000Y-107450000D02*
X239400000Y-103050000D01*
X243800000Y-103050000D02*
X243800000Y-107450000D01*
X243800000Y-107450000D02*
X239400000Y-107450000D01*
%TO.C,T3*%
X111500000Y-92800000D02*
X115900000Y-92800000D01*
X111500000Y-97200000D02*
X111500000Y-92800000D01*
X115900000Y-92800000D02*
X115900000Y-97200000D01*
X115900000Y-97200000D02*
X111500000Y-97200000D01*
%TO.C,C8*%
X267566665Y-85390000D02*
X267798335Y-85390000D01*
X267566665Y-86110000D02*
X267798335Y-86110000D01*
%TO.C,D10*%
X227300000Y-113800000D02*
X227300000Y-118850000D01*
X227750000Y-113350000D02*
X227300000Y-113800000D01*
X228100000Y-115200000D02*
X228100000Y-117000000D01*
X233500000Y-115200000D02*
X233500000Y-117000000D01*
X234300000Y-113350000D02*
X227750000Y-113350000D01*
X234300000Y-118850000D02*
X227300000Y-118850000D01*
X234300000Y-118850000D02*
X234300000Y-113350000D01*
%TO.C,T1*%
X47400000Y-92800000D02*
X51800000Y-92800000D01*
X47400000Y-97200000D02*
X47400000Y-92800000D01*
X51800000Y-92800000D02*
X51800000Y-97200000D01*
X51800000Y-97200000D02*
X47400000Y-97200000D01*
%TO.C,C16*%
X43566665Y-117390000D02*
X43798335Y-117390000D01*
X43566665Y-118110000D02*
X43798335Y-118110000D01*
%TO.C,D9*%
X259300000Y-113800000D02*
X259300000Y-118850000D01*
X259750000Y-113350000D02*
X259300000Y-113800000D01*
X260100000Y-115200000D02*
X260100000Y-117000000D01*
X265500000Y-115200000D02*
X265500000Y-117000000D01*
X266300000Y-113350000D02*
X259750000Y-113350000D01*
X266300000Y-118850000D02*
X259300000Y-118850000D01*
X266300000Y-118850000D02*
X266300000Y-113350000D01*
%TO.C,D11*%
X195300000Y-113800000D02*
X195300000Y-118850000D01*
X195750000Y-113350000D02*
X195300000Y-113800000D01*
X196100000Y-115200000D02*
X196100000Y-117000000D01*
X201500000Y-115200000D02*
X201500000Y-117000000D01*
X202300000Y-113350000D02*
X195750000Y-113350000D01*
X202300000Y-118850000D02*
X195300000Y-118850000D01*
X202300000Y-118850000D02*
X202300000Y-113350000D01*
%TO.C,C1*%
X43634165Y-85390000D02*
X43865835Y-85390000D01*
X43634165Y-86110000D02*
X43865835Y-86110000D01*
%TO.C,C14*%
X107566665Y-117390000D02*
X107798335Y-117390000D01*
X107566665Y-118110000D02*
X107798335Y-118110000D01*
%TO.C,C11*%
X203566665Y-117440000D02*
X203798335Y-117440000D01*
X203566665Y-118160000D02*
X203798335Y-118160000D01*
%TO.C,T2*%
X57800000Y-92800000D02*
X62200000Y-92800000D01*
X57800000Y-97200000D02*
X57800000Y-92800000D01*
X62200000Y-92800000D02*
X62200000Y-97200000D01*
X62200000Y-97200000D02*
X57800000Y-97200000D01*
%TO.C,C5*%
X171566665Y-85390000D02*
X171798335Y-85390000D01*
X171566665Y-86110000D02*
X171798335Y-86110000D01*
%TO.C,T11*%
X111400000Y-103050000D02*
X115800000Y-103050000D01*
X111400000Y-107450000D02*
X111400000Y-103050000D01*
X115800000Y-103050000D02*
X115800000Y-107450000D01*
X115800000Y-107450000D02*
X111400000Y-107450000D01*
%TO.C,T12*%
X121800000Y-103050000D02*
X126200000Y-103050000D01*
X121800000Y-107450000D02*
X121800000Y-103050000D01*
X126200000Y-103050000D02*
X126200000Y-107450000D01*
X126200000Y-107450000D02*
X121800000Y-107450000D01*
%TO.C,T5*%
X175400000Y-92800000D02*
X179800000Y-92800000D01*
X175400000Y-97200000D02*
X175400000Y-92800000D01*
X179800000Y-92800000D02*
X179800000Y-97200000D01*
X179800000Y-97200000D02*
X175400000Y-97200000D01*
%TO.C,T8*%
X249800000Y-92800000D02*
X254200000Y-92800000D01*
X249800000Y-97200000D02*
X249800000Y-92800000D01*
X254200000Y-92800000D02*
X254200000Y-97200000D01*
X254200000Y-97200000D02*
X249800000Y-97200000D01*
%TO.C,C13*%
X139566665Y-117390000D02*
X139798335Y-117390000D01*
X139566665Y-118110000D02*
X139798335Y-118110000D01*
%TO.C,T6*%
X185800000Y-92800000D02*
X190200000Y-92800000D01*
X185800000Y-97200000D02*
X185800000Y-92800000D01*
X190200000Y-92800000D02*
X190200000Y-97200000D01*
X190200000Y-97200000D02*
X185800000Y-97200000D01*
%TO.C,C4*%
X139566665Y-85390000D02*
X139798335Y-85390000D01*
X139566665Y-86110000D02*
X139798335Y-86110000D01*
%TO.C,T4*%
X121800000Y-92800000D02*
X126200000Y-92800000D01*
X121800000Y-97200000D02*
X121800000Y-92800000D01*
X126200000Y-92800000D02*
X126200000Y-97200000D01*
X126200000Y-97200000D02*
X121800000Y-97200000D01*
%TO.C,D8*%
X259300000Y-81800000D02*
X259300000Y-86850000D01*
X259750000Y-81350000D02*
X259300000Y-81800000D01*
X260100000Y-83200000D02*
X260100000Y-85000000D01*
X265500000Y-83200000D02*
X265500000Y-85000000D01*
X266300000Y-81350000D02*
X259750000Y-81350000D01*
X266300000Y-86850000D02*
X259300000Y-86850000D01*
X266300000Y-86850000D02*
X266300000Y-81350000D01*
%TO.C,T10*%
X57800000Y-103050000D02*
X62200000Y-103050000D01*
X57800000Y-107450000D02*
X57800000Y-103050000D01*
X62200000Y-103050000D02*
X62200000Y-107450000D01*
X62200000Y-107450000D02*
X57800000Y-107450000D01*
%TO.C,T13*%
X175550000Y-103050000D02*
X179950000Y-103050000D01*
X175550000Y-107450000D02*
X175550000Y-103050000D01*
X179950000Y-103050000D02*
X179950000Y-107450000D01*
X179950000Y-107450000D02*
X175550000Y-107450000D01*
%TO.C,D12*%
X163300000Y-113800000D02*
X163300000Y-118850000D01*
X163750000Y-113350000D02*
X163300000Y-113800000D01*
X164100000Y-115200000D02*
X164100000Y-117000000D01*
X169500000Y-115200000D02*
X169500000Y-117000000D01*
X170300000Y-113350000D02*
X163750000Y-113350000D01*
X170300000Y-118850000D02*
X163300000Y-118850000D01*
X170300000Y-118850000D02*
X170300000Y-113350000D01*
%TO.C,C15*%
X75566665Y-117390000D02*
X75798335Y-117390000D01*
X75566665Y-118110000D02*
X75798335Y-118110000D01*
%TO.C,D6*%
X195300000Y-81800000D02*
X195300000Y-86850000D01*
X195750000Y-81350000D02*
X195300000Y-81800000D01*
X196100000Y-83200000D02*
X196100000Y-85000000D01*
X201500000Y-83200000D02*
X201500000Y-85000000D01*
X202300000Y-81350000D02*
X195750000Y-81350000D01*
X202300000Y-86850000D02*
X195300000Y-86850000D01*
X202300000Y-86850000D02*
X202300000Y-81350000D01*
%TO.C,C7*%
X235634165Y-85390000D02*
X235865835Y-85390000D01*
X235634165Y-86110000D02*
X235865835Y-86110000D01*
%TD*%
M02*
