%TF.GenerationSoftware,KiCad,Pcbnew,9.0.7*%
%TF.CreationDate,2026-04-27T22:34:43+02:00*%
%TF.ProjectId,chessconnect_uP,63686573-7363-46f6-9e6e-6563745f7550,rev?*%
%TF.SameCoordinates,Original*%
%TF.FileFunction,Legend,Bot*%
%TF.FilePolarity,Positive*%
%FSLAX46Y46*%
G04 Gerber Fmt 4.6, Leading zero omitted, Abs format (unit mm)*
G04 Created by KiCad (PCBNEW 9.0.7) date 2026-04-27 22:34:43*
%MOMM*%
%LPD*%
G01*
G04 APERTURE LIST*
%ADD10C,0.150000*%
%ADD11C,0.120000*%
%ADD12C,0.250000*%
%ADD13C,0.060000*%
G04 APERTURE END LIST*
D10*
X143833333Y-55854819D02*
X143833333Y-56569104D01*
X143833333Y-56569104D02*
X143880952Y-56711961D01*
X143880952Y-56711961D02*
X143976190Y-56807200D01*
X143976190Y-56807200D02*
X144119047Y-56854819D01*
X144119047Y-56854819D02*
X144214285Y-56854819D01*
X143214285Y-56283390D02*
X143309523Y-56235771D01*
X143309523Y-56235771D02*
X143357142Y-56188152D01*
X143357142Y-56188152D02*
X143404761Y-56092914D01*
X143404761Y-56092914D02*
X143404761Y-56045295D01*
X143404761Y-56045295D02*
X143357142Y-55950057D01*
X143357142Y-55950057D02*
X143309523Y-55902438D01*
X143309523Y-55902438D02*
X143214285Y-55854819D01*
X143214285Y-55854819D02*
X143023809Y-55854819D01*
X143023809Y-55854819D02*
X142928571Y-55902438D01*
X142928571Y-55902438D02*
X142880952Y-55950057D01*
X142880952Y-55950057D02*
X142833333Y-56045295D01*
X142833333Y-56045295D02*
X142833333Y-56092914D01*
X142833333Y-56092914D02*
X142880952Y-56188152D01*
X142880952Y-56188152D02*
X142928571Y-56235771D01*
X142928571Y-56235771D02*
X143023809Y-56283390D01*
X143023809Y-56283390D02*
X143214285Y-56283390D01*
X143214285Y-56283390D02*
X143309523Y-56331009D01*
X143309523Y-56331009D02*
X143357142Y-56378628D01*
X143357142Y-56378628D02*
X143404761Y-56473866D01*
X143404761Y-56473866D02*
X143404761Y-56664342D01*
X143404761Y-56664342D02*
X143357142Y-56759580D01*
X143357142Y-56759580D02*
X143309523Y-56807200D01*
X143309523Y-56807200D02*
X143214285Y-56854819D01*
X143214285Y-56854819D02*
X143023809Y-56854819D01*
X143023809Y-56854819D02*
X142928571Y-56807200D01*
X142928571Y-56807200D02*
X142880952Y-56759580D01*
X142880952Y-56759580D02*
X142833333Y-56664342D01*
X142833333Y-56664342D02*
X142833333Y-56473866D01*
X142833333Y-56473866D02*
X142880952Y-56378628D01*
X142880952Y-56378628D02*
X142928571Y-56331009D01*
X142928571Y-56331009D02*
X143023809Y-56283390D01*
X82954819Y-114666666D02*
X83669104Y-114666666D01*
X83669104Y-114666666D02*
X83811961Y-114619047D01*
X83811961Y-114619047D02*
X83907200Y-114523809D01*
X83907200Y-114523809D02*
X83954819Y-114380952D01*
X83954819Y-114380952D02*
X83954819Y-114285714D01*
X82954819Y-115619047D02*
X82954819Y-115142857D01*
X82954819Y-115142857D02*
X83431009Y-115095238D01*
X83431009Y-115095238D02*
X83383390Y-115142857D01*
X83383390Y-115142857D02*
X83335771Y-115238095D01*
X83335771Y-115238095D02*
X83335771Y-115476190D01*
X83335771Y-115476190D02*
X83383390Y-115571428D01*
X83383390Y-115571428D02*
X83431009Y-115619047D01*
X83431009Y-115619047D02*
X83526247Y-115666666D01*
X83526247Y-115666666D02*
X83764342Y-115666666D01*
X83764342Y-115666666D02*
X83859580Y-115619047D01*
X83859580Y-115619047D02*
X83907200Y-115571428D01*
X83907200Y-115571428D02*
X83954819Y-115476190D01*
X83954819Y-115476190D02*
X83954819Y-115238095D01*
X83954819Y-115238095D02*
X83907200Y-115142857D01*
X83907200Y-115142857D02*
X83859580Y-115095238D01*
X112833333Y-55854819D02*
X112833333Y-56569104D01*
X112833333Y-56569104D02*
X112880952Y-56711961D01*
X112880952Y-56711961D02*
X112976190Y-56807200D01*
X112976190Y-56807200D02*
X113119047Y-56854819D01*
X113119047Y-56854819D02*
X113214285Y-56854819D01*
X112452380Y-55854819D02*
X111785714Y-55854819D01*
X111785714Y-55854819D02*
X112214285Y-56854819D01*
X82954819Y-84666666D02*
X83669104Y-84666666D01*
X83669104Y-84666666D02*
X83811961Y-84619047D01*
X83811961Y-84619047D02*
X83907200Y-84523809D01*
X83907200Y-84523809D02*
X83954819Y-84380952D01*
X83954819Y-84380952D02*
X83954819Y-84285714D01*
X83288152Y-85571428D02*
X83954819Y-85571428D01*
X82907200Y-85333333D02*
X83621485Y-85095238D01*
X83621485Y-85095238D02*
X83621485Y-85714285D01*
X87083333Y-60954819D02*
X87083333Y-61669104D01*
X87083333Y-61669104D02*
X87130952Y-61811961D01*
X87130952Y-61811961D02*
X87226190Y-61907200D01*
X87226190Y-61907200D02*
X87369047Y-61954819D01*
X87369047Y-61954819D02*
X87464285Y-61954819D01*
X86702380Y-60954819D02*
X86083333Y-60954819D01*
X86083333Y-60954819D02*
X86416666Y-61335771D01*
X86416666Y-61335771D02*
X86273809Y-61335771D01*
X86273809Y-61335771D02*
X86178571Y-61383390D01*
X86178571Y-61383390D02*
X86130952Y-61431009D01*
X86130952Y-61431009D02*
X86083333Y-61526247D01*
X86083333Y-61526247D02*
X86083333Y-61764342D01*
X86083333Y-61764342D02*
X86130952Y-61859580D01*
X86130952Y-61859580D02*
X86178571Y-61907200D01*
X86178571Y-61907200D02*
X86273809Y-61954819D01*
X86273809Y-61954819D02*
X86559523Y-61954819D01*
X86559523Y-61954819D02*
X86654761Y-61907200D01*
X86654761Y-61907200D02*
X86702380Y-61859580D01*
X87083333Y-137904819D02*
X87083333Y-138619104D01*
X87083333Y-138619104D02*
X87130952Y-138761961D01*
X87130952Y-138761961D02*
X87226190Y-138857200D01*
X87226190Y-138857200D02*
X87369047Y-138904819D01*
X87369047Y-138904819D02*
X87464285Y-138904819D01*
X86178571Y-137904819D02*
X86369047Y-137904819D01*
X86369047Y-137904819D02*
X86464285Y-137952438D01*
X86464285Y-137952438D02*
X86511904Y-138000057D01*
X86511904Y-138000057D02*
X86607142Y-138142914D01*
X86607142Y-138142914D02*
X86654761Y-138333390D01*
X86654761Y-138333390D02*
X86654761Y-138714342D01*
X86654761Y-138714342D02*
X86607142Y-138809580D01*
X86607142Y-138809580D02*
X86559523Y-138857200D01*
X86559523Y-138857200D02*
X86464285Y-138904819D01*
X86464285Y-138904819D02*
X86273809Y-138904819D01*
X86273809Y-138904819D02*
X86178571Y-138857200D01*
X86178571Y-138857200D02*
X86130952Y-138809580D01*
X86130952Y-138809580D02*
X86083333Y-138714342D01*
X86083333Y-138714342D02*
X86083333Y-138476247D01*
X86083333Y-138476247D02*
X86130952Y-138381009D01*
X86130952Y-138381009D02*
X86178571Y-138333390D01*
X86178571Y-138333390D02*
X86273809Y-138285771D01*
X86273809Y-138285771D02*
X86464285Y-138285771D01*
X86464285Y-138285771D02*
X86559523Y-138333390D01*
X86559523Y-138333390D02*
X86607142Y-138381009D01*
X86607142Y-138381009D02*
X86654761Y-138476247D01*
D11*
%TO.C,J8*%
X141730000Y-43650000D02*
X141730000Y-49650000D01*
X141730000Y-52722642D02*
X141730000Y-52410000D01*
X142590000Y-43650000D02*
X141730000Y-43650000D01*
X142590000Y-49650000D02*
X142590000Y-43650000D01*
X142590000Y-52722642D02*
X142590000Y-52410000D01*
X143430000Y-52410000D02*
X143430000Y-49650000D01*
X144270000Y-52640000D02*
X144270000Y-52410000D01*
X144700000Y-55070000D02*
X145970000Y-55070000D01*
X145130000Y-52640000D02*
X145130000Y-52410000D01*
X145970000Y-55070000D02*
X145970000Y-53800000D01*
X145130000Y-49650000D02*
X144270000Y-49650000D01*
X144270000Y-43650000D01*
X145130000Y-43650000D01*
X145130000Y-49650000D01*
G36*
X145130000Y-49650000D02*
G01*
X144270000Y-49650000D01*
X144270000Y-43650000D01*
X145130000Y-43650000D01*
X145130000Y-49650000D01*
G37*
X146080000Y-52410000D02*
X140780000Y-52410000D01*
X140780000Y-49650000D01*
X146080000Y-49650000D01*
X146080000Y-52410000D01*
D12*
%TO.C,J5*%
X73850000Y-103550000D02*
X73850000Y-126450000D01*
X73850000Y-103550000D02*
X75970000Y-103550000D01*
X75820000Y-126450000D02*
X73850000Y-126450000D01*
X78140000Y-103550000D02*
X79050000Y-103550000D01*
X79050000Y-103550000D02*
X79050000Y-106020000D01*
X79050000Y-123980000D02*
X79050000Y-126400000D01*
X79050000Y-126450000D02*
X77980000Y-126450000D01*
X79220000Y-124520000D02*
X79730000Y-124520000D01*
X79480000Y-124260000D02*
X79220000Y-124520000D01*
X79730000Y-124520000D02*
X79480000Y-124260000D01*
D13*
X79920000Y-126450000D02*
G75*
G02*
X79860000Y-126450000I-30000J0D01*
G01*
X79860000Y-126450000D02*
G75*
G02*
X79920000Y-126450000I30000J0D01*
G01*
D11*
%TO.C,J7*%
X110805000Y-43635000D02*
X110805000Y-49635000D01*
X110805000Y-52707642D02*
X110805000Y-52395000D01*
X111665000Y-43635000D02*
X110805000Y-43635000D01*
X111665000Y-49635000D02*
X111665000Y-43635000D01*
X111665000Y-52707642D02*
X111665000Y-52395000D01*
X112505000Y-52395000D02*
X112505000Y-49635000D01*
X113345000Y-52625000D02*
X113345000Y-52395000D01*
X113775000Y-55055000D02*
X115045000Y-55055000D01*
X114205000Y-52625000D02*
X114205000Y-52395000D01*
X115045000Y-55055000D02*
X115045000Y-53785000D01*
X114205000Y-49635000D02*
X113345000Y-49635000D01*
X113345000Y-43635000D01*
X114205000Y-43635000D01*
X114205000Y-49635000D01*
G36*
X114205000Y-49635000D02*
G01*
X113345000Y-49635000D01*
X113345000Y-43635000D01*
X114205000Y-43635000D01*
X114205000Y-49635000D01*
G37*
X115155000Y-52395000D02*
X109855000Y-52395000D01*
X109855000Y-49635000D01*
X115155000Y-49635000D01*
X115155000Y-52395000D01*
D12*
%TO.C,J4*%
X73850000Y-73550000D02*
X73850000Y-96450000D01*
X73850000Y-73550000D02*
X75970000Y-73550000D01*
X75820000Y-96450000D02*
X73850000Y-96450000D01*
X78140000Y-73550000D02*
X79050000Y-73550000D01*
X79050000Y-73550000D02*
X79050000Y-76020000D01*
X79050000Y-93980000D02*
X79050000Y-96400000D01*
X79050000Y-96450000D02*
X77980000Y-96450000D01*
X79220000Y-94520000D02*
X79730000Y-94520000D01*
X79480000Y-94260000D02*
X79220000Y-94520000D01*
X79730000Y-94520000D02*
X79480000Y-94260000D01*
D13*
X79920000Y-96450000D02*
G75*
G02*
X79860000Y-96450000I-30000J0D01*
G01*
X79860000Y-96450000D02*
G75*
G02*
X79920000Y-96450000I30000J0D01*
G01*
D12*
%TO.C,J3*%
X75300000Y-53820000D02*
X75300000Y-51850000D01*
X75300000Y-57050000D02*
X75300000Y-55980000D01*
X77230000Y-57220000D02*
X77230000Y-57730000D01*
X77230000Y-57730000D02*
X77490000Y-57480000D01*
X77490000Y-57480000D02*
X77230000Y-57220000D01*
X77770000Y-57050000D02*
X75350000Y-57050000D01*
X98200000Y-51850000D02*
X75300000Y-51850000D01*
X98200000Y-51850000D02*
X98200000Y-53970000D01*
X98200000Y-56140000D02*
X98200000Y-57050000D01*
X98200000Y-57050000D02*
X95730000Y-57050000D01*
D13*
X75330000Y-57890000D02*
G75*
G02*
X75270000Y-57890000I-30000J0D01*
G01*
X75270000Y-57890000D02*
G75*
G02*
X75330000Y-57890000I30000J0D01*
G01*
D12*
%TO.C,J6*%
X75300000Y-142900000D02*
X77770000Y-142900000D01*
X75300000Y-143810000D02*
X75300000Y-142900000D01*
X75300000Y-148100000D02*
X75300000Y-145980000D01*
X75300000Y-148100000D02*
X98200000Y-148100000D01*
X95730000Y-142900000D02*
X98150000Y-142900000D01*
X96010000Y-142470000D02*
X96270000Y-142730000D01*
X96270000Y-142220000D02*
X96010000Y-142470000D01*
X96270000Y-142730000D02*
X96270000Y-142220000D01*
X98200000Y-142900000D02*
X98200000Y-143970000D01*
X98200000Y-146130000D02*
X98200000Y-148100000D01*
D13*
X98230000Y-142060000D02*
G75*
G02*
X98170000Y-142060000I-30000J0D01*
G01*
X98170000Y-142060000D02*
G75*
G02*
X98230000Y-142060000I30000J0D01*
G01*
%TD*%
M02*
