%TF.GenerationSoftware,KiCad,Pcbnew,9.0.7*%
%TF.CreationDate,2026-04-27T22:34:43+02:00*%
%TF.ProjectId,chessconnect_uP,63686573-7363-46f6-9e6e-6563745f7550,rev?*%
%TF.SameCoordinates,Original*%
%TF.FileFunction,Paste,Top*%
%TF.FilePolarity,Positive*%
%FSLAX46Y46*%
G04 Gerber Fmt 4.6, Leading zero omitted, Abs format (unit mm)*
G04 Created by KiCad (PCBNEW 9.0.7) date 2026-04-27 22:34:43*
%MOMM*%
%LPD*%
G01*
G04 APERTURE LIST*
G04 Aperture macros list*
%AMRoundRect*
0 Rectangle with rounded corners*
0 $1 Rounding radius*
0 $2 $3 $4 $5 $6 $7 $8 $9 X,Y pos of 4 corners*
0 Add a 4 corners polygon primitive as box body*
4,1,4,$2,$3,$4,$5,$6,$7,$8,$9,$2,$3,0*
0 Add four circle primitives for the rounded corners*
1,1,$1+$1,$2,$3*
1,1,$1+$1,$4,$5*
1,1,$1+$1,$6,$7*
1,1,$1+$1,$8,$9*
0 Add four rect primitives between the rounded corners*
20,1,$1+$1,$2,$3,$4,$5,0*
20,1,$1+$1,$4,$5,$6,$7,0*
20,1,$1+$1,$6,$7,$8,$9,0*
20,1,$1+$1,$8,$9,$2,$3,0*%
%AMFreePoly0*
4,1,14,0.354215,0.088284,0.450784,-0.008285,0.462500,-0.036569,0.462500,-0.060000,0.450784,-0.088284,0.422500,-0.100000,-0.422500,-0.100000,-0.450784,-0.088284,-0.462500,-0.060000,-0.462500,0.060000,-0.450784,0.088284,-0.422500,0.100000,0.325931,0.100000,0.354215,0.088284,0.354215,0.088284,$1*%
%AMFreePoly1*
4,1,14,0.450784,0.088284,0.462500,0.060000,0.462500,0.036569,0.450784,0.008285,0.354215,-0.088284,0.325931,-0.100000,-0.422500,-0.100000,-0.450784,-0.088284,-0.462500,-0.060000,-0.462500,0.060000,-0.450784,0.088284,-0.422500,0.100000,0.422500,0.100000,0.450784,0.088284,0.450784,0.088284,$1*%
%AMFreePoly2*
4,1,14,0.088284,0.450784,0.100000,0.422500,0.100000,-0.422500,0.088284,-0.450784,0.060000,-0.462500,-0.060000,-0.462500,-0.088284,-0.450784,-0.100000,-0.422500,-0.100000,0.325931,-0.088284,0.354215,0.008285,0.450784,0.036569,0.462500,0.060000,0.462500,0.088284,0.450784,0.088284,0.450784,$1*%
%AMFreePoly3*
4,1,14,-0.008285,0.450784,0.088284,0.354215,0.100000,0.325931,0.100000,-0.422500,0.088284,-0.450784,0.060000,-0.462500,-0.060000,-0.462500,-0.088284,-0.450784,-0.100000,-0.422500,-0.100000,0.422500,-0.088284,0.450784,-0.060000,0.462500,-0.036569,0.462500,-0.008285,0.450784,-0.008285,0.450784,$1*%
%AMFreePoly4*
4,1,14,0.450784,0.088284,0.462500,0.060000,0.462500,-0.060000,0.450784,-0.088284,0.422500,-0.100000,-0.325931,-0.100000,-0.354215,-0.088284,-0.450784,0.008285,-0.462500,0.036569,-0.462500,0.060000,-0.450784,0.088284,-0.422500,0.100000,0.422500,0.100000,0.450784,0.088284,0.450784,0.088284,$1*%
%AMFreePoly5*
4,1,14,0.450784,0.088284,0.462500,0.060000,0.462500,-0.060000,0.450784,-0.088284,0.422500,-0.100000,-0.422500,-0.100000,-0.450784,-0.088284,-0.462500,-0.060000,-0.462500,-0.036569,-0.450784,-0.008285,-0.354215,0.088284,-0.325931,0.100000,0.422500,0.100000,0.450784,0.088284,0.450784,0.088284,$1*%
%AMFreePoly6*
4,1,14,0.088284,0.450784,0.100000,0.422500,0.100000,-0.325931,0.088284,-0.354215,-0.008285,-0.450784,-0.036569,-0.462500,-0.060000,-0.462500,-0.088284,-0.450784,-0.100000,-0.422500,-0.100000,0.422500,-0.088284,0.450784,-0.060000,0.462500,0.060000,0.462500,0.088284,0.450784,0.088284,0.450784,$1*%
%AMFreePoly7*
4,1,14,0.088284,0.450784,0.100000,0.422500,0.100000,-0.422500,0.088284,-0.450784,0.060000,-0.462500,0.036569,-0.462500,0.008285,-0.450784,-0.088284,-0.354215,-0.100000,-0.325931,-0.100000,0.422500,-0.088284,0.450784,-0.060000,0.462500,0.060000,0.462500,0.088284,0.450784,0.088284,0.450784,$1*%
%AMFreePoly8*
4,1,61,2.235325,0.825371,2.249970,0.790016,2.249970,0.590017,2.235325,0.554662,2.199970,0.540017,1.479969,0.540017,1.479969,0.380022,2.199970,0.380022,2.235325,0.365377,2.249970,0.330022,2.249970,0.130023,2.235325,0.094668,2.199970,0.080023,1.479969,0.080023,1.479969,-0.079972,2.199970,-0.079972,2.235325,-0.094617,2.249970,-0.129972,2.249970,-0.329971,2.235325,-0.365326,
2.199970,-0.379971,1.479969,-0.379971,1.479969,-0.539966,2.199970,-0.539966,2.235325,-0.554611,2.249970,-0.589966,2.249970,-0.789965,2.235325,-0.825320,2.199970,-0.839965,-2.200021,-0.839965,-2.235376,-0.825320,-2.250021,-0.789965,-2.250021,-0.589966,-2.235376,-0.554611,-2.200021,-0.539966,-1.480020,-0.539966,-1.480020,-0.379971,-2.200021,-0.379971,-2.235376,-0.365326,-2.250021,-0.329971,
-2.250021,-0.129972,-2.235376,-0.094617,-2.200021,-0.079972,-1.480020,-0.079972,-1.480020,0.080023,-2.200021,0.080023,-2.235376,0.094668,-2.250021,0.130023,-2.250021,0.330022,-2.235376,0.365377,-2.200021,0.380022,-1.480020,0.380022,-1.480020,0.540017,-2.200021,0.540017,-2.235376,0.554662,-2.250021,0.590017,-2.250021,0.790016,-2.235376,0.825371,-2.200021,0.840016,2.199970,0.840016,
2.235325,0.825371,2.235325,0.825371,$1*%
G04 Aperture macros list end*
%ADD10RoundRect,0.237500X-0.300000X-0.237500X0.300000X-0.237500X0.300000X0.237500X-0.300000X0.237500X0*%
%ADD11RoundRect,0.237500X0.250000X0.237500X-0.250000X0.237500X-0.250000X-0.237500X0.250000X-0.237500X0*%
%ADD12RoundRect,0.237500X0.237500X-0.300000X0.237500X0.300000X-0.237500X0.300000X-0.237500X-0.300000X0*%
%ADD13RoundRect,0.237500X0.237500X-0.250000X0.237500X0.250000X-0.237500X0.250000X-0.237500X-0.250000X0*%
%ADD14R,1.000000X3.800000*%
%ADD15RoundRect,0.237500X-0.237500X0.250000X-0.237500X-0.250000X0.237500X-0.250000X0.237500X0.250000X0*%
%ADD16R,2.500000X1.100000*%
%ADD17R,2.340000X3.600000*%
%ADD18RoundRect,0.237500X0.300000X0.237500X-0.300000X0.237500X-0.300000X-0.237500X0.300000X-0.237500X0*%
%ADD19FreePoly0,180.000000*%
%ADD20RoundRect,0.050000X0.412500X0.050000X-0.412500X0.050000X-0.412500X-0.050000X0.412500X-0.050000X0*%
%ADD21FreePoly1,180.000000*%
%ADD22FreePoly2,180.000000*%
%ADD23RoundRect,0.050000X0.050000X0.412500X-0.050000X0.412500X-0.050000X-0.412500X0.050000X-0.412500X0*%
%ADD24FreePoly3,180.000000*%
%ADD25FreePoly4,180.000000*%
%ADD26FreePoly5,180.000000*%
%ADD27FreePoly6,180.000000*%
%ADD28FreePoly7,180.000000*%
%ADD29RoundRect,0.237500X-0.237500X0.300000X-0.237500X-0.300000X0.237500X-0.300000X0.237500X0.300000X0*%
%ADD30RoundRect,0.090000X0.090000X-0.139000X0.090000X0.139000X-0.090000X0.139000X-0.090000X-0.139000X0*%
%ADD31R,0.700000X0.250000*%
%ADD32FreePoly8,90.000000*%
%ADD33RoundRect,0.237500X-0.250000X-0.237500X0.250000X-0.237500X0.250000X0.237500X-0.250000X0.237500X0*%
%ADD34R,1.700000X0.400000*%
%ADD35R,1.650000X0.400000*%
%ADD36FreePoly0,270.000000*%
%ADD37RoundRect,0.050000X-0.050000X0.412500X-0.050000X-0.412500X0.050000X-0.412500X0.050000X0.412500X0*%
%ADD38FreePoly1,270.000000*%
%ADD39FreePoly2,270.000000*%
%ADD40RoundRect,0.050000X-0.412500X0.050000X-0.412500X-0.050000X0.412500X-0.050000X0.412500X0.050000X0*%
%ADD41FreePoly3,270.000000*%
%ADD42FreePoly4,270.000000*%
%ADD43FreePoly5,270.000000*%
%ADD44FreePoly6,270.000000*%
%ADD45FreePoly7,270.000000*%
G04 APERTURE END LIST*
D10*
%TO.C,C21*%
X97737500Y-75900000D03*
X99462500Y-75900000D03*
%TD*%
D11*
%TO.C,R17*%
X105312500Y-77300000D03*
X103487500Y-77300000D03*
%TD*%
D12*
%TO.C,C27*%
X98400000Y-127562500D03*
X98400000Y-125837500D03*
%TD*%
D10*
%TO.C,C7*%
X135437500Y-90500000D03*
X137162500Y-90500000D03*
%TD*%
D11*
%TO.C,R28*%
X115025000Y-117600000D03*
X113200000Y-117600000D03*
%TD*%
D13*
%TO.C,R5*%
X125800000Y-86112500D03*
X125800000Y-84287500D03*
%TD*%
D14*
%TO.C,L1*%
X147322500Y-59739975D03*
X144922500Y-59739975D03*
%TD*%
D10*
%TO.C,C9*%
X127127500Y-125822500D03*
X128852500Y-125822500D03*
%TD*%
D12*
%TO.C,C23*%
X103887500Y-71212500D03*
X103887500Y-69487500D03*
%TD*%
D10*
%TO.C,C20*%
X105925000Y-65350000D03*
X107650000Y-65350000D03*
%TD*%
%TO.C,C2*%
X139012500Y-99520000D03*
X140737500Y-99520000D03*
%TD*%
D15*
%TO.C,R33*%
X88200000Y-121087500D03*
X88200000Y-122912500D03*
%TD*%
D16*
%TO.C,U3*%
X124870000Y-128100000D03*
X124870000Y-125800000D03*
X124870000Y-123500000D03*
D17*
X118930000Y-125800000D03*
%TD*%
D18*
%TO.C,C11*%
X142622500Y-62569975D03*
X140897500Y-62569975D03*
%TD*%
D15*
%TO.C,R10*%
X151022500Y-68227475D03*
X151022500Y-70052475D03*
%TD*%
D19*
%TO.C,U7*%
X96387500Y-107400000D03*
D20*
X96387500Y-107000000D03*
X96387500Y-106600000D03*
X96387500Y-106200000D03*
D21*
X96387500Y-105800000D03*
D22*
X95800000Y-105212500D03*
D23*
X95400000Y-105212500D03*
X95000000Y-105212500D03*
X94600000Y-105212500D03*
D24*
X94200000Y-105212500D03*
D25*
X93612500Y-105800000D03*
D20*
X93612500Y-106200000D03*
X93612500Y-106600000D03*
X93612500Y-107000000D03*
D26*
X93612500Y-107400000D03*
D27*
X94200000Y-107987500D03*
D23*
X94600000Y-107987500D03*
X95000000Y-107987500D03*
X95400000Y-107987500D03*
D28*
X95800000Y-107987500D03*
%TD*%
D13*
%TO.C,R18*%
X101300000Y-96212500D03*
X101300000Y-94387500D03*
%TD*%
D11*
%TO.C,R20*%
X104212500Y-89000000D03*
X102387500Y-89000000D03*
%TD*%
D10*
%TO.C,C26*%
X89137500Y-127900000D03*
X90862500Y-127900000D03*
%TD*%
D11*
%TO.C,R31*%
X111112500Y-107000000D03*
X109287500Y-107000000D03*
%TD*%
D29*
%TO.C,C5*%
X135275000Y-104857500D03*
X135275000Y-106582500D03*
%TD*%
D15*
%TO.C,R8*%
X165900000Y-120337500D03*
X165900000Y-122162500D03*
%TD*%
D10*
%TO.C,C17*%
X149060000Y-64029975D03*
X150785000Y-64029975D03*
%TD*%
D11*
%TO.C,R9*%
X147462500Y-135850000D03*
X145637500Y-135850000D03*
%TD*%
D10*
%TO.C,C14*%
X149760000Y-59539975D03*
X151485000Y-59539975D03*
%TD*%
D30*
%TO.C,D1*%
X166750000Y-76082500D03*
X166750000Y-75217500D03*
%TD*%
D10*
%TO.C,C15*%
X149760000Y-61039975D03*
X151485000Y-61039975D03*
%TD*%
D31*
%TO.C,U11*%
X147702500Y-65914975D03*
X147702500Y-65414975D03*
X147702500Y-64914975D03*
X147702500Y-64414975D03*
X147702500Y-63914975D03*
X147702500Y-63414975D03*
X147702500Y-62914975D03*
X144802500Y-62914975D03*
X144802500Y-63414975D03*
X144802500Y-63914975D03*
X144802500Y-64414975D03*
X144802500Y-64914975D03*
X144802500Y-65414975D03*
X144802500Y-65914975D03*
D32*
X146252500Y-64414975D03*
%TD*%
D12*
%TO.C,C6*%
X135275000Y-114582500D03*
X135275000Y-112857500D03*
%TD*%
D19*
%TO.C,U4*%
X104387500Y-67400000D03*
D20*
X104387500Y-67000000D03*
X104387500Y-66600000D03*
X104387500Y-66200000D03*
D21*
X104387500Y-65800000D03*
D22*
X103800000Y-65212500D03*
D23*
X103400000Y-65212500D03*
X103000000Y-65212500D03*
X102600000Y-65212500D03*
D24*
X102200000Y-65212500D03*
D25*
X101612500Y-65800000D03*
D20*
X101612500Y-66200000D03*
X101612500Y-66600000D03*
X101612500Y-67000000D03*
D26*
X101612500Y-67400000D03*
D27*
X102200000Y-67987500D03*
D23*
X102600000Y-67987500D03*
X103000000Y-67987500D03*
X103400000Y-67987500D03*
D28*
X103800000Y-67987500D03*
%TD*%
D11*
%TO.C,R14*%
X111912500Y-72100000D03*
X110087500Y-72100000D03*
%TD*%
D33*
%TO.C,R4*%
X164287500Y-69500000D03*
X166112500Y-69500000D03*
%TD*%
D29*
%TO.C,C13*%
X143222500Y-65877475D03*
X143222500Y-67602475D03*
%TD*%
D11*
%TO.C,R12*%
X113512500Y-67800000D03*
X111687500Y-67800000D03*
%TD*%
D15*
%TO.C,R34*%
X95300000Y-126087500D03*
X95300000Y-127912500D03*
%TD*%
D11*
%TO.C,R16*%
X112712500Y-81700000D03*
X110887500Y-81700000D03*
%TD*%
D10*
%TO.C,C1*%
X139012500Y-102520000D03*
X140737500Y-102520000D03*
%TD*%
D15*
%TO.C,R35*%
X96700000Y-99187500D03*
X96700000Y-101012500D03*
%TD*%
D10*
%TO.C,C28*%
X97937500Y-105400000D03*
X99662500Y-105400000D03*
%TD*%
D12*
%TO.C,C19*%
X95650000Y-93612500D03*
X95650000Y-91887500D03*
%TD*%
D19*
%TO.C,U5*%
X96187500Y-78000000D03*
D20*
X96187500Y-77600000D03*
X96187500Y-77200000D03*
X96187500Y-76800000D03*
D21*
X96187500Y-76400000D03*
D22*
X95600000Y-75812500D03*
D23*
X95200000Y-75812500D03*
X94800000Y-75812500D03*
X94400000Y-75812500D03*
D24*
X94000000Y-75812500D03*
D25*
X93412500Y-76400000D03*
D20*
X93412500Y-76800000D03*
X93412500Y-77200000D03*
X93412500Y-77600000D03*
D26*
X93412500Y-78000000D03*
D27*
X94000000Y-78587500D03*
D23*
X94400000Y-78587500D03*
X94800000Y-78587500D03*
X95200000Y-78587500D03*
D28*
X95600000Y-78587500D03*
%TD*%
D33*
%TO.C,R29*%
X106387500Y-113300000D03*
X108212500Y-113300000D03*
%TD*%
D10*
%TO.C,C16*%
X149760000Y-62529975D03*
X151485000Y-62529975D03*
%TD*%
D19*
%TO.C,U6*%
X96187500Y-89800000D03*
D20*
X96187500Y-89400000D03*
X96187500Y-89000000D03*
X96187500Y-88600000D03*
D21*
X96187500Y-88200000D03*
D22*
X95600000Y-87612500D03*
D23*
X95200000Y-87612500D03*
X94800000Y-87612500D03*
X94400000Y-87612500D03*
D24*
X94000000Y-87612500D03*
D25*
X93412500Y-88200000D03*
D20*
X93412500Y-88600000D03*
X93412500Y-89000000D03*
X93412500Y-89400000D03*
D26*
X93412500Y-89800000D03*
D27*
X94000000Y-90387500D03*
D23*
X94400000Y-90387500D03*
X94800000Y-90387500D03*
X95200000Y-90387500D03*
D28*
X95600000Y-90387500D03*
%TD*%
D15*
%TO.C,R22*%
X96900000Y-70087500D03*
X96900000Y-71912500D03*
%TD*%
D12*
%TO.C,C8*%
X135400000Y-86162500D03*
X135400000Y-84437500D03*
%TD*%
D33*
%TO.C,R13*%
X103987500Y-74100000D03*
X105812500Y-74100000D03*
%TD*%
D15*
%TO.C,R1*%
X118400000Y-87687500D03*
X118400000Y-89512500D03*
%TD*%
%TO.C,R15*%
X100700000Y-81387500D03*
X100700000Y-83212500D03*
%TD*%
D10*
%TO.C,C3*%
X139012500Y-101020000D03*
X140737500Y-101020000D03*
%TD*%
D15*
%TO.C,R23*%
X95800000Y-83687500D03*
X95800000Y-85512500D03*
%TD*%
D33*
%TO.C,R19*%
X102587500Y-100100000D03*
X104412500Y-100100000D03*
%TD*%
D11*
%TO.C,R3*%
X129612500Y-98400000D03*
X127787500Y-98400000D03*
%TD*%
D34*
%TO.C,U10*%
X128000000Y-86550000D03*
X128000000Y-87200000D03*
X128000000Y-87850000D03*
X128000000Y-88500000D03*
X128000000Y-89150000D03*
X128000000Y-89800000D03*
X128000000Y-90450000D03*
X133600000Y-90450000D03*
X133600000Y-89800000D03*
X133600000Y-89150000D03*
X133600000Y-88500000D03*
X133600000Y-87850000D03*
X133600000Y-87200000D03*
X133600000Y-86550000D03*
%TD*%
D11*
%TO.C,R30*%
X105412500Y-109200000D03*
X103587500Y-109200000D03*
%TD*%
D18*
%TO.C,C25*%
X104300000Y-129637500D03*
X102575000Y-129637500D03*
%TD*%
D11*
%TO.C,R2*%
X129812500Y-95000000D03*
X127987500Y-95000000D03*
%TD*%
D15*
%TO.C,R7*%
X162590000Y-120237500D03*
X162590000Y-122062500D03*
%TD*%
%TO.C,R6*%
X159300000Y-120237500D03*
X159300000Y-122062500D03*
%TD*%
D19*
%TO.C,U8*%
X87637500Y-129900000D03*
D20*
X87637500Y-129500000D03*
X87637500Y-129100000D03*
X87637500Y-128700000D03*
D21*
X87637500Y-128300000D03*
D22*
X87050000Y-127712500D03*
D23*
X86650000Y-127712500D03*
X86250000Y-127712500D03*
X85850000Y-127712500D03*
D24*
X85450000Y-127712500D03*
D25*
X84862500Y-128300000D03*
D20*
X84862500Y-128700000D03*
X84862500Y-129100000D03*
X84862500Y-129500000D03*
D26*
X84862500Y-129900000D03*
D27*
X85450000Y-130487500D03*
D23*
X85850000Y-130487500D03*
X86250000Y-130487500D03*
X86650000Y-130487500D03*
D28*
X87050000Y-130487500D03*
%TD*%
D12*
%TO.C,C18*%
X95680000Y-81862500D03*
X95680000Y-80137500D03*
%TD*%
%TO.C,C29*%
X95887500Y-111262500D03*
X95887500Y-109537500D03*
%TD*%
%TO.C,C24*%
X87137500Y-133762500D03*
X87137500Y-132037500D03*
%TD*%
D33*
%TO.C,R32*%
X102475000Y-103700000D03*
X104300000Y-103700000D03*
%TD*%
D35*
%TO.C,U2*%
X113680000Y-94830000D03*
X113680000Y-95480000D03*
X113680000Y-96130000D03*
X113680000Y-96780000D03*
X113680000Y-97430000D03*
X113680000Y-98080000D03*
X113680000Y-98720000D03*
X113680000Y-99380000D03*
X113680000Y-100030000D03*
X113680000Y-100680000D03*
X113680000Y-101330000D03*
X113680000Y-101970000D03*
X119720000Y-101970000D03*
X119720000Y-101330000D03*
X119720000Y-100680000D03*
X119720000Y-100030000D03*
X119720000Y-99380000D03*
X119720000Y-98720000D03*
X119720000Y-98080000D03*
X119720000Y-97430000D03*
X119720000Y-96780000D03*
X119720000Y-96130000D03*
X119720000Y-95480000D03*
X119720000Y-94830000D03*
%TD*%
D10*
%TO.C,C22*%
X97717500Y-87800000D03*
X99442500Y-87800000D03*
%TD*%
D11*
%TO.C,R27*%
X111712500Y-128800000D03*
X109887500Y-128800000D03*
%TD*%
D18*
%TO.C,C12*%
X143322500Y-64039975D03*
X141597500Y-64039975D03*
%TD*%
D12*
%TO.C,C10*%
X126990000Y-123385000D03*
X126990000Y-121660000D03*
%TD*%
D36*
%TO.C,U9*%
X100487500Y-129062500D03*
D37*
X100087500Y-129062500D03*
X99687500Y-129062500D03*
X99287500Y-129062500D03*
D38*
X98887500Y-129062500D03*
D39*
X98300000Y-129650000D03*
D40*
X98300000Y-130050000D03*
X98300000Y-130450000D03*
X98300000Y-130850000D03*
D41*
X98300000Y-131250000D03*
D42*
X98887500Y-131837500D03*
D37*
X99287500Y-131837500D03*
X99687500Y-131837500D03*
X100087500Y-131837500D03*
D43*
X100487500Y-131837500D03*
D44*
X101075000Y-131250000D03*
D40*
X101075000Y-130850000D03*
X101075000Y-130450000D03*
X101075000Y-130050000D03*
D45*
X101075000Y-129650000D03*
%TD*%
D12*
%TO.C,C4*%
X139750000Y-133562500D03*
X139750000Y-131837500D03*
%TD*%
D11*
%TO.C,R11*%
X150872500Y-72100000D03*
X149047500Y-72100000D03*
%TD*%
%TO.C,R26*%
X102925000Y-121800000D03*
X101100000Y-121800000D03*
%TD*%
D15*
%TO.C,R21*%
X105300000Y-59387500D03*
X105300000Y-61212500D03*
%TD*%
D33*
%TO.C,R25*%
X94100000Y-118700000D03*
X95925000Y-118700000D03*
%TD*%
D13*
%TO.C,R24*%
X90900000Y-136412500D03*
X90900000Y-134587500D03*
%TD*%
M02*
