%TF.GenerationSoftware,KiCad,Pcbnew,9.0.7*%
%TF.CreationDate,2026-04-27T22:34:43+02:00*%
%TF.ProjectId,chessconnect_uP,63686573-7363-46f6-9e6e-6563745f7550,rev?*%
%TF.SameCoordinates,Original*%
%TF.FileFunction,Paste,Bot*%
%TF.FilePolarity,Positive*%
%FSLAX46Y46*%
G04 Gerber Fmt 4.6, Leading zero omitted, Abs format (unit mm)*
G04 Created by KiCad (PCBNEW 9.0.7) date 2026-04-27 22:34:43*
%MOMM*%
%LPD*%
G01*
G04 APERTURE LIST*
%ADD10R,1.500000X0.500000*%
%ADD11R,1.700000X2.000000*%
%ADD12R,0.500000X1.500000*%
%ADD13R,2.000000X1.700000*%
G04 APERTURE END LIST*
D10*
%TO.C,J5*%
X79500000Y-123500000D03*
X79500000Y-122500000D03*
X79500000Y-121500000D03*
X79500000Y-120500000D03*
X79500000Y-119500000D03*
X79500000Y-118500000D03*
X79500000Y-117500000D03*
X79500000Y-116500000D03*
X79500000Y-115500000D03*
X79500000Y-114500000D03*
X79500000Y-113500000D03*
X79500000Y-112500000D03*
X79500000Y-111500000D03*
X79500000Y-110500000D03*
X79500000Y-109500000D03*
X79500000Y-108500000D03*
X79500000Y-107500000D03*
X79500000Y-106500000D03*
D11*
X77060000Y-104300000D03*
X76900000Y-125700000D03*
%TD*%
D10*
%TO.C,J4*%
X79500000Y-93500000D03*
X79500000Y-92500000D03*
X79500000Y-91500000D03*
X79500000Y-90500000D03*
X79500000Y-89500000D03*
X79500000Y-88500000D03*
X79500000Y-87500000D03*
X79500000Y-86500000D03*
X79500000Y-85500000D03*
X79500000Y-84500000D03*
X79500000Y-83500000D03*
X79500000Y-82500000D03*
X79500000Y-81500000D03*
X79500000Y-80500000D03*
X79500000Y-79500000D03*
X79500000Y-78500000D03*
X79500000Y-77500000D03*
X79500000Y-76500000D03*
D11*
X77060000Y-74300000D03*
X76900000Y-95700000D03*
%TD*%
D12*
%TO.C,J3*%
X78250000Y-57500000D03*
X79250000Y-57500000D03*
X80250000Y-57500000D03*
X81250000Y-57500000D03*
X82250000Y-57500000D03*
X83250000Y-57500000D03*
X84250000Y-57500000D03*
X85250000Y-57500000D03*
X86250000Y-57500000D03*
X87250000Y-57500000D03*
X88250000Y-57500000D03*
X89250000Y-57500000D03*
X90250000Y-57500000D03*
X91250000Y-57500000D03*
X92250000Y-57500000D03*
X93250000Y-57500000D03*
X94250000Y-57500000D03*
X95250000Y-57500000D03*
D13*
X97450000Y-55060000D03*
X76050000Y-54900000D03*
%TD*%
D12*
%TO.C,J6*%
X95250000Y-142450000D03*
X94250000Y-142450000D03*
X93250000Y-142450000D03*
X92250000Y-142450000D03*
X91250000Y-142450000D03*
X90250000Y-142450000D03*
X89250000Y-142450000D03*
X88250000Y-142450000D03*
X87250000Y-142450000D03*
X86250000Y-142450000D03*
X85250000Y-142450000D03*
X84250000Y-142450000D03*
X83250000Y-142450000D03*
X82250000Y-142450000D03*
X81250000Y-142450000D03*
X80250000Y-142450000D03*
X79250000Y-142450000D03*
X78250000Y-142450000D03*
D13*
X76050000Y-144890000D03*
X97450000Y-145050000D03*
%TD*%
M02*
