%TF.GenerationSoftware,KiCad,Pcbnew,9.0.7*%
%TF.CreationDate,2026-04-27T22:34:44+02:00*%
%TF.ProjectId,chessconnect_uP,63686573-7363-46f6-9e6e-6563745f7550,rev?*%
%TF.SameCoordinates,Original*%
%TF.FileFunction,Soldermask,Bot*%
%TF.FilePolarity,Negative*%
%FSLAX46Y46*%
G04 Gerber Fmt 4.6, Leading zero omitted, Abs format (unit mm)*
G04 Created by KiCad (PCBNEW 9.0.7) date 2026-04-27 22:34:44*
%MOMM*%
%LPD*%
G01*
G04 APERTURE LIST*
G04 Aperture macros list*
%AMRoundRect*
0 Rectangle with rounded corners*
0 $1 Rounding radius*
0 $2 $3 $4 $5 $6 $7 $8 $9 X,Y pos of 4 corners*
0 Add a 4 corners polygon primitive as box body*
4,1,4,$2,$3,$4,$5,$6,$7,$8,$9,$2,$3,0*
0 Add four circle primitives for the rounded corners*
1,1,$1+$1,$2,$3*
1,1,$1+$1,$4,$5*
1,1,$1+$1,$6,$7*
1,1,$1+$1,$8,$9*
0 Add four rect primitives between the rounded corners*
20,1,$1+$1,$2,$3,$4,$5,0*
20,1,$1+$1,$4,$5,$6,$7,0*
20,1,$1+$1,$6,$7,$8,$9,0*
20,1,$1+$1,$8,$9,$2,$3,0*%
G04 Aperture macros list end*
%ADD10C,5.600000*%
%ADD11C,2.000000*%
%ADD12C,2.300000*%
%ADD13C,1.500000*%
%ADD14R,1.700000X1.700000*%
%ADD15C,1.700000*%
%ADD16O,1.500000X3.800000*%
%ADD17O,3.400000X1.500000*%
%ADD18RoundRect,0.250000X-0.550000X-0.550000X0.550000X-0.550000X0.550000X0.550000X-0.550000X0.550000X0*%
%ADD19C,1.600000*%
%ADD20R,1.500000X0.500000*%
%ADD21R,1.700000X2.000000*%
%ADD22R,0.500000X1.500000*%
%ADD23R,2.000000X1.700000*%
G04 APERTURE END LIST*
D10*
%TO.C,H4*%
X167250000Y-100000000D03*
%TD*%
%TO.C,H3*%
X82000000Y-100000000D03*
%TD*%
%TO.C,H2*%
X121500000Y-145500000D03*
%TD*%
%TO.C,H1*%
X122000000Y-54250000D03*
%TD*%
D11*
%TO.C,SW1*%
X139650000Y-135950000D03*
X139650000Y-142450000D03*
X135150000Y-135950000D03*
X135150000Y-142450000D03*
%TD*%
D12*
%TO.C,U12*%
X160800000Y-82300000D03*
X160800000Y-87000000D03*
X160800000Y-91700000D03*
X169200000Y-93600000D03*
X169200000Y-80400000D03*
%TD*%
D13*
%TO.C,Y1*%
X138975000Y-107020000D03*
X138975000Y-111900000D03*
%TD*%
D14*
%TO.C,J2*%
X162200000Y-136660000D03*
D15*
X159660000Y-136660000D03*
X162200000Y-139200000D03*
X159660000Y-139200000D03*
X162200000Y-141740000D03*
X159660000Y-141740000D03*
%TD*%
D16*
%TO.C,DC1*%
X161750000Y-57830000D03*
X167750000Y-57830000D03*
D17*
X164250000Y-53170000D03*
%TD*%
D18*
%TO.C,U1*%
X142900000Y-87360000D03*
D19*
X142900000Y-89900000D03*
X142900000Y-92440000D03*
X142900000Y-94980000D03*
X142900000Y-97520000D03*
X142900000Y-100060000D03*
X142900000Y-102600000D03*
X142900000Y-105140000D03*
X142900000Y-107680000D03*
X142900000Y-110220000D03*
X142900000Y-112760000D03*
X142900000Y-115300000D03*
X142900000Y-117840000D03*
X142900000Y-120380000D03*
X150520000Y-120380000D03*
X150520000Y-117840000D03*
X150520000Y-115300000D03*
X150520000Y-112760000D03*
X150520000Y-110220000D03*
X150520000Y-107680000D03*
X150520000Y-105140000D03*
X150520000Y-102600000D03*
X150520000Y-100060000D03*
X150520000Y-97520000D03*
X150520000Y-94980000D03*
X150520000Y-92440000D03*
X150520000Y-89900000D03*
X150520000Y-87360000D03*
%TD*%
D14*
%TO.C,J8*%
X144700000Y-53800000D03*
D15*
X142160000Y-53800000D03*
%TD*%
D20*
%TO.C,J5*%
X79500000Y-123500000D03*
X79500000Y-122500000D03*
X79500000Y-121500000D03*
X79500000Y-120500000D03*
X79500000Y-119500000D03*
X79500000Y-118500000D03*
X79500000Y-117500000D03*
X79500000Y-116500000D03*
X79500000Y-115500000D03*
X79500000Y-114500000D03*
X79500000Y-113500000D03*
X79500000Y-112500000D03*
X79500000Y-111500000D03*
X79500000Y-110500000D03*
X79500000Y-109500000D03*
X79500000Y-108500000D03*
X79500000Y-107500000D03*
X79500000Y-106500000D03*
D21*
X77060000Y-104300000D03*
X76900000Y-125700000D03*
%TD*%
D14*
%TO.C,J7*%
X113775000Y-53785000D03*
D15*
X111235000Y-53785000D03*
%TD*%
D20*
%TO.C,J4*%
X79500000Y-93500000D03*
X79500000Y-92500000D03*
X79500000Y-91500000D03*
X79500000Y-90500000D03*
X79500000Y-89500000D03*
X79500000Y-88500000D03*
X79500000Y-87500000D03*
X79500000Y-86500000D03*
X79500000Y-85500000D03*
X79500000Y-84500000D03*
X79500000Y-83500000D03*
X79500000Y-82500000D03*
X79500000Y-81500000D03*
X79500000Y-80500000D03*
X79500000Y-79500000D03*
X79500000Y-78500000D03*
X79500000Y-77500000D03*
X79500000Y-76500000D03*
D21*
X77060000Y-74300000D03*
X76900000Y-95700000D03*
%TD*%
D22*
%TO.C,J3*%
X78250000Y-57500000D03*
X79250000Y-57500000D03*
X80250000Y-57500000D03*
X81250000Y-57500000D03*
X82250000Y-57500000D03*
X83250000Y-57500000D03*
X84250000Y-57500000D03*
X85250000Y-57500000D03*
X86250000Y-57500000D03*
X87250000Y-57500000D03*
X88250000Y-57500000D03*
X89250000Y-57500000D03*
X90250000Y-57500000D03*
X91250000Y-57500000D03*
X92250000Y-57500000D03*
X93250000Y-57500000D03*
X94250000Y-57500000D03*
X95250000Y-57500000D03*
D23*
X97450000Y-55060000D03*
X76050000Y-54900000D03*
%TD*%
D22*
%TO.C,J6*%
X95250000Y-142450000D03*
X94250000Y-142450000D03*
X93250000Y-142450000D03*
X92250000Y-142450000D03*
X91250000Y-142450000D03*
X90250000Y-142450000D03*
X89250000Y-142450000D03*
X88250000Y-142450000D03*
X87250000Y-142450000D03*
X86250000Y-142450000D03*
X85250000Y-142450000D03*
X84250000Y-142450000D03*
X83250000Y-142450000D03*
X82250000Y-142450000D03*
X81250000Y-142450000D03*
X80250000Y-142450000D03*
X79250000Y-142450000D03*
X78250000Y-142450000D03*
D23*
X76050000Y-144890000D03*
X97450000Y-145050000D03*
%TD*%
M02*
