M48
; DRILL file {KiCad 9.0.7} date 2026-04-27T22:34:49+0200
; FORMAT={-:-/ absolute / metric / decimal}
; #@! TF.CreationDate,2026-04-27T22:34:49+02:00
; #@! TF.GenerationSoftware,Kicad,Pcbnew,9.0.7
; #@! TF.FileFunction,Plated,1,2,PTH
FMAT,2
METRIC
; #@! TA.AperFunction,Plated,PTH,ViaDrill
T1C0.300
; #@! TA.AperFunction,Plated,PTH,ViaDrill
T2C0.500
; #@! TA.AperFunction,Plated,PTH,ComponentDrill
T3C0.800
; #@! TA.AperFunction,Plated,PTH,ComponentDrill
T4C0.900
; #@! TA.AperFunction,Plated,PTH,ComponentDrill
T5C1.000
; #@! TA.AperFunction,Plated,PTH,ComponentDrill
T6C1.100
; #@! TA.AperFunction,Plated,PTH,ComponentDrill
T7C1.500
; #@! TA.AperFunction,Plated,PTH,ComponentDrill
T8C3.200
%
G90
G05
T1
X76.6Y-128.8
X78.25Y-133.4
X79.25Y-134.223
X80.25Y-135.0
X81.25Y-135.75
X81.85Y-89.5
X82.6Y-88.5
X82.75Y-127.5
X83.25Y-95.0
X83.5Y-74.5
X83.95Y-120.5
X84.0Y-87.5
X84.2Y-124.7
X84.25Y-132.8
X84.6Y-119.5
X84.7Y-133.7
X84.85Y-118.5
X84.95Y-86.5
X85.0Y-91.5
X85.2Y-135.2
X86.45Y-90.5
X86.55Y-85.5
X86.8Y-136.7
X87.0Y-111.6
X88.55Y-76.5
X88.55Y-77.6
X88.55Y-78.5
X89.2Y-71.0
X89.75Y-84.5
X90.2Y-86.3
X90.2Y-129.7
X90.5Y-75.25
X90.6Y-90.5
X90.8Y-105.2
X90.8Y-106.2
X90.8Y-107.2
X90.8Y-108.15
X90.8Y-109.55
X90.9Y-114.1
X90.9Y-132.1
X91.2Y-81.5
X91.6Y-83.5
X91.7Y-112.35
X91.8Y-75.65
X92.0Y-110.95
X92.15Y-129.05
X92.35Y-72.2
X92.35Y-103.7
X92.4Y-80.5
X92.8Y-122.0
X92.85Y-66.25
X92.95Y-84.0
X93.55Y-72.3
X93.55Y-79.9
X93.6Y-127.6
X93.65Y-92.8
X93.7Y-99.2
X93.8Y-82.6
X93.95Y-103.1
X94.0Y-66.2
X94.6Y-72.3
X94.9Y-130.8
X94.9Y-132.15
X94.9Y-133.6
X95.0Y-102.25
X95.0Y-129.6
X95.1Y-62.45
X95.2Y-63.95
X95.35Y-65.75
X96.55Y-133.2
X96.6Y-137.85
X96.75Y-136.85
X96.95Y-135.85
X97.05Y-134.9
X97.35Y-133.9
X97.4Y-118.7
X97.4Y-132.4
X97.5Y-78.3
X97.5Y-84.7
X97.5Y-107.7
X97.8Y-90.4
X98.1Y-73.5
X98.3Y-115.5
X98.7Y-68.4
X98.8Y-122.9
X99.2Y-71.65
X99.9Y-121.8
X99.9Y-125.2
X100.15Y-70.6
X100.3Y-62.1
X100.7Y-85.2
X100.9Y-125.8
X101.1Y-87.5
X101.1Y-127.9
X101.15Y-69.7
X101.2Y-109.7
X102.0Y-64.15
X102.3Y-75.7
X102.4Y-63.25
X102.8Y-105.2
X102.95Y-61.05
X103.1Y-118.5
X103.6Y-125.5
X103.7Y-97.4
X103.8Y-53.8
X103.9Y-91.0
X105.3Y-83.8
X105.4Y-87.7
X105.7Y-67.8
X106.1Y-79.8
X106.2Y-101.9
X107.2Y-108.0
X108.3Y-128.4
X109.5Y-113.3
X109.7Y-81.7
X109.9Y-69.9
X110.1Y-67.8
X110.2Y-77.4
X111.3Y-62.9
X111.3Y-117.5
X111.7Y-103.5
X112.4Y-88.0
X112.4Y-91.6
X112.7Y-122.6
X113.3Y-109.2
X113.9Y-139.4
X114.5Y-84.9
X114.8Y-127.5
X115.9Y-103.6
X116.1Y-102.1
X118.0Y-104.6
X120.2Y-76.7
X120.8Y-92.2
X121.5Y-100.68
X122.5Y-100.03
X123.3Y-92.5
X124.4Y-112.5
X125.0Y-98.4
X126.0Y-89.5
X126.0Y-133.6
X126.5Y-93.0
X126.7Y-53.0
X128.3Y-68.4
X128.8Y-92.0
X132.9Y-60.4
X136.3Y-88.5
X137.0Y-128.6
X138.3Y-88.1
X138.4Y-96.0
X143.3Y-71.5
X144.8Y-110.0
X145.3Y-97.8
X146.0Y-125.8
X146.26Y-67.2
X148.3Y-99.9
X148.3Y-110.7
X150.0Y-83.8
X151.4Y-54.9
X152.8Y-98.9
X154.3Y-138.6
X154.4Y-65.7
X155.5Y-87.3
X156.9Y-83.8
X159.4Y-128.0
X160.7Y-71.6
X163.8Y-104.3
X164.1Y-126.8
X164.25Y-95.25
X168.0Y-142.5
X169.6Y-77.6
T2
X88.5Y-131.3
X99.1Y-80.5
X99.1Y-92.5
X99.1Y-110.4
X106.1Y-69.4
X122.2Y-86.1
X122.73Y-94.47
X132.419Y-93.519
X144.7Y-81.8
X151.8Y-134.6
T3
X138.975Y-107.02
X138.975Y-111.9
X142.9Y-87.36
X142.9Y-89.9
X142.9Y-92.44
X142.9Y-94.98
X142.9Y-97.52
X142.9Y-100.06
X142.9Y-102.6
X142.9Y-105.14
X142.9Y-107.68
X142.9Y-110.22
X142.9Y-112.76
X142.9Y-115.3
X142.9Y-117.84
X142.9Y-120.38
X150.52Y-87.36
X150.52Y-89.9
X150.52Y-92.44
X150.52Y-94.98
X150.52Y-97.52
X150.52Y-100.06
X150.52Y-102.6
X150.52Y-105.14
X150.52Y-107.68
X150.52Y-110.22
X150.52Y-112.76
X150.52Y-115.3
X150.52Y-117.84
X150.52Y-120.38
T5
X111.235Y-53.785
X113.775Y-53.785
X142.16Y-53.8
X144.7Y-53.8
X159.66Y-136.66
X159.66Y-139.2
X159.66Y-141.74
X162.2Y-136.66
X162.2Y-139.2
X162.2Y-141.74
T6
X135.15Y-135.95
X135.15Y-142.45
X139.65Y-135.95
X139.65Y-142.45
T7
X160.8Y-82.3
X160.8Y-87.0
X160.8Y-91.7
X169.2Y-80.4
X169.2Y-93.6
T8
X82.0Y-100.0
X121.5Y-145.5
X122.0Y-54.25
X167.25Y-100.0
T4
X161.75Y-58.93G85X161.75Y-56.73
G05
X163.4Y-53.17G85X165.1Y-53.17
G05
X167.75Y-56.73G85X167.75Y-58.93
G05
M30
